<?xml version="1.0" encoding="utf-8" ?><svg xmlns="http://www.w3.org/2000/svg" xmlns:xlink="http://www.w3.org/1999/xlink" width="500" height="500" viewBox="0 0 500 500"><path fill="#E2E2E1" transform="scale(0.488281 0.488281)" d="M222.731 411.002C223.413 404.324 236.954 383.429 241.053 377.094C371.444 175.622 684.345 185.736 804.999 391.843C807.118 395.462 813.083 407.629 815.575 410.172C818.295 411.248 827.691 415.475 829.481 417.357C833.125 422.074 837.425 429.331 840.315 434.645C840.909 442.979 841.212 452.249 835.466 459.082C835.481 459.375 835.496 459.668 835.511 459.961C843.054 486.092 847.214 511.972 848.355 539.181C848.698 547.359 847.731 556.343 847.144 564.554C845.537 631.178 815.642 696.845 773.059 747.278C772.635 747.78 772.218 748.257 771.761 748.759C777.001 755.71 785.195 762.242 791.193 768.53C806.96 785.102 826.187 800.048 832.343 823.141C833.582 827.79 833.213 833.754 832.611 838.468C827.238 880.533 782.732 898.713 744.817 894.721C723.093 892.434 713.768 881.895 699.64 867.548C692.161 859.993 684.778 852.345 677.49 844.606C675.43 842.416 670.265 836.41 668.443 834.801C659.672 838.355 616.885 858.243 611.16 858.372C584.872 868.015 552.675 874.643 524.662 872.968C520.112 873.397 510.394 872.969 505.193 873.022C457.686 873.502 408.689 859.075 366.966 836.339C326.383 815.162 288.252 784.105 259.632 748.281C256.01 743.748 250.61 736.933 247.597 732.042C246.224 731.177 241.57 723.716 240.203 721.649C201.779 663.553 185.351 595.53 189.442 526.282C189.936 520.601 191.081 514.731 191.704 509.101C193.699 491.09 197.32 473.774 202.852 456.518C202.88 456.379 202.908 456.239 202.936 456.1C198.466 449.645 199.444 441.914 200.052 434.412C202.011 430.063 205.628 425.523 207.614 420.944C208.996 418.994 210.374 418.503 211.296 416.429C215.415 412.671 216.937 411.537 222.731 411.002Z"/><defs><linearGradient id="gradient_0" gradientUnits="userSpaceOnUse" x1="495.60803" y1="867.302" x2="482.32623" y2="775.55878"><stop offset="0" stop-color="#9D9C9C"/><stop offset="1" stop-color="#BEBFBA"/></linearGradient></defs><path fill="url(#gradient_0)" transform="scale(0.488281 0.488281)" d="M247.597 732.042C250.377 732.919 262.196 750.323 265.19 753.741C278.767 769.24 293.705 783.596 309.292 797.045C314.833 801.827 321.657 799.764 327.75 806.255C329.018 806.24 334.157 805.918 335.007 806.671C336.519 808.012 343.506 816.085 344.92 816.336C359.31 818.866 372.411 825.345 386.438 829.243C390.24 830.299 394.276 832.247 398.126 833.103C444.813 843.483 494.163 850.538 541.809 844.51C544.545 844.163 547.743 844.675 550.482 844.052C570.811 838.85 590.731 836.452 606.401 820.685C618.602 808.406 611.163 793.47 610.87 778.619C610.837 776.975 602.736 771.71 602.934 768.925C602.948 768.647 601.96 765.109 601.773 764.75C600.571 765.851 601.116 768.61 599.862 771.053L599.325 770.728C599.366 767.568 600.1 767.256 600.197 764.631C600.27 762.659 597.367 757.95 598.718 756.113C600.064 758.481 599.813 760.721 601.193 761.78L601.734 761.153L601.47 760.554C600.084 757.326 599.531 753.289 598.459 751.32L598.772 750.943C601.008 752.904 602.397 760.534 604.653 763.729C612.724 775.158 620.91 784.023 631.185 793.453C636.934 798.73 643.76 809.93 650.013 814.582C652.589 816.414 667.546 832.865 668.443 834.801C659.672 838.355 616.885 858.243 611.16 858.372C584.872 868.015 552.675 874.643 524.662 872.968C520.112 873.397 510.394 872.969 505.193 873.022C457.686 873.502 408.689 859.075 366.966 836.339C326.383 815.162 288.252 784.105 259.632 748.281C256.01 743.748 250.61 736.933 247.597 732.042Z"/><defs><linearGradient id="gradient_1" gradientUnits="userSpaceOnUse" x1="582.25305" y1="863.84821" x2="578.08441" y2="843.8598"><stop offset="0" stop-color="#696869"/><stop offset="1" stop-color="#979794"/></linearGradient></defs><path fill="url(#gradient_1)" transform="scale(0.488281 0.488281)" d="M650.013 814.582C652.589 816.414 667.546 832.865 668.443 834.801C659.672 838.355 616.885 858.243 611.16 858.372C584.872 868.015 552.675 874.643 524.662 872.968C534.67 869.552 550.033 871.407 561.155 867.947L560.982 867.576C558.159 866.756 555.87 866.955 552.928 866.966C549.793 868.304 531.735 867.258 527.336 866.889C526.185 866.793 519.355 863.417 516.719 863.323C508.963 863.055 501.164 863.374 493.401 863.144C492.931 863.13 491.553 863.311 490.897 863.321L494.109 861.195C498.898 861.441 504.719 860.819 509.73 860.795C522.727 860.731 535.661 861.082 548.611 859.778C552.627 859.374 556.719 858.054 560.865 857.345C570.291 855.733 579.702 853.808 588.979 851.479C592.239 850.66 599.166 849.852 601.624 849.026C609.839 846.337 617.918 841.669 626.27 839.49C634.933 837.369 643.187 834.781 651.569 831.801C651.447 831.844 662.234 829.755 662.37 829.742C662.383 829.584 651.153 816.603 650.013 814.582Z"/><defs><linearGradient id="gradient_2" gradientUnits="userSpaceOnUse" x1="585.72565" y1="867.60986" x2="585.26752" y2="859.77362"><stop offset="0" stop-color="#3E3F3E"/><stop offset="1" stop-color="#636261"/></linearGradient></defs><path fill="url(#gradient_2)" transform="scale(0.488281 0.488281)" d="M552.928 866.966C560.66 865.098 601.142 854.418 605.66 857.933L603.546 858.77C607.214 859.121 607.384 858.154 611.16 858.372C584.872 868.015 552.675 874.643 524.662 872.968C534.67 869.552 550.033 871.407 561.155 867.947L560.982 867.576C558.159 866.756 555.87 866.955 552.928 866.966Z"/><path fill="#626261" transform="scale(0.488281 0.488281)" d="M366.966 836.339C373.31 837.333 387.472 847.508 394.856 849.112C398.269 849.853 404.525 848.927 406.993 849.274C410.298 849.739 430.442 851.343 431.727 852.374C429.544 854.368 430.069 851.199 428.942 853.876L428 853.583C433.854 858.212 470.542 858.503 479.512 860.185C483.233 860.882 489.842 860.159 494.109 861.195L490.897 863.321C491.553 863.311 492.931 863.13 493.401 863.144C501.164 863.374 508.963 863.055 516.719 863.323C519.355 863.417 526.185 866.793 527.336 866.889C531.735 867.258 549.793 868.304 552.928 866.966C555.87 866.955 558.159 866.756 560.982 867.576L561.155 867.947C550.033 871.407 534.67 869.552 524.662 872.968C520.112 873.397 510.394 872.969 505.193 873.022C457.686 873.502 408.689 859.075 366.966 836.339Z"/><path fill="#848483" transform="scale(0.488281 0.488281)" d="M490.897 863.321C487.347 865.693 417.656 857.916 414.481 852.527C417.093 851.683 423.019 854.501 427.241 852.637L428 853.583C433.854 858.212 470.542 858.503 479.512 860.185C483.233 860.882 489.842 860.159 494.109 861.195L490.897 863.321Z"/><defs><linearGradient id="gradient_3" gradientUnits="userSpaceOnUse" x1="827.28247" y1="455.62259" x2="829.15015" y2="412.48273"><stop offset="0" stop-color="#52194C"/><stop offset="1" stop-color="#8F3277"/></linearGradient></defs><path fill="url(#gradient_3)" transform="scale(0.488281 0.488281)" d="M815.575 410.172C818.295 411.248 827.691 415.475 829.481 417.357C833.125 422.074 837.425 429.331 840.315 434.645C840.909 442.979 841.212 452.249 835.466 459.082C834.302 451.183 819.353 419.044 815.575 410.172Z"/><path fill="#6C1B57" transform="scale(0.488281 0.488281)" d="M211.296 416.429C215.415 412.671 216.937 411.537 222.731 411.002C221.651 414.124 219.231 418.582 217.834 422.056C213.201 433.58 208.079 444.803 202.936 456.1C198.466 449.645 199.444 441.914 200.052 434.412C202.011 430.063 205.628 425.523 207.614 420.944C208.996 418.994 210.374 418.503 211.296 416.429Z"/><defs><linearGradient id="gradient_4" gradientUnits="userSpaceOnUse" x1="514.26562" y1="752.58868" x2="516.60779" y2="375.77454"><stop offset="0" stop-color="#850B6D"/><stop offset="1" stop-color="#BB31A6"/></linearGradient></defs><path fill="url(#gradient_4)" transform="scale(0.488281 0.488281)" d="M434.092 347.745C443.084 340.268 461.752 338.657 472.93 338.094C476.724 337.903 481.569 337.841 485.123 336.596C485.756 337.595 485.819 337.626 486.598 338.52C489.037 339.087 493.975 336.217 495.482 336.339C503.518 336.994 513.022 335.468 520.782 335.735C540.966 336.43 561.393 337.684 581.18 341.837C584.05 342.439 591.023 343.186 593.125 344.665L592.823 345.391L590.324 345.916C588.42 345.946 585.696 345.111 584.327 345.739L584.363 346.926C587.388 348.452 589.215 348.494 592.292 349.165C601.391 351.148 610.468 353.848 619.048 357.464C621.897 358.664 623.995 356.259 627.994 358.947C625.1 355.306 623.163 355.258 618.787 353.772C618.569 353.83 618.35 353.889 618.131 353.948C615.63 355.422 606.331 352.373 604.742 350.655C608.106 347.941 627.507 356.016 631.441 358.167L631.369 358.521L630.193 358.281C630.504 359.33 630.234 358.835 631.086 359.718L630.571 359.841C629.785 360.036 630.087 359.954 629.251 360.243C630.85 361.597 633.469 364.185 635.299 364.325C636.224 364.396 638.912 366.028 639.65 366.303C639.649 366.302 643.954 365.356 644.473 365.603C649.226 367.87 654 371.358 658.522 374.157C659.069 373.983 659.616 373.81 660.163 373.636C665.643 378.021 676.705 387.046 681.811 391.215C678.376 388.7 677.329 388.214 673.634 386.434C671.059 385.193 668.732 379.339 664.794 379.201L663.355 379.974L663.346 380.724C664.764 381.692 664.652 381.629 666.229 382.215C671.993 384.358 681.447 396.196 685.367 398.609L685.68 398.218C685.001 396.326 683.803 394.401 683.639 392.497L684.226 392.455C686.161 394.455 685.155 393.675 686.08 395.097C691.05 402.742 702.081 407.528 705.79 416.398L707.51 416.193C708.089 417.223 707.861 416.877 708.186 417.829C710.628 424.985 722.083 433.923 724.073 441.537C726.165 446.446 738.659 471.919 741.221 475.354L741.162 476.201C740.779 482.288 743.016 485.645 744.406 491.383C745.789 497.096 745.548 499.6 749.172 504.581C749.467 509.547 749.703 514.678 750.109 519.622C753.76 540.294 750.426 546.145 750.905 564.391C750.979 572.623 748.111 590.278 743.439 597.17C732.547 633.046 724.094 648.63 700.79 677.207C671.022 660.953 640.126 664.979 614.538 687.182C605.82 696.038 600.067 704.126 596.277 716.031C596.032 717.351 595.699 719.721 595.189 720.828C594.432 726.771 594.239 730.695 594.517 736.704C595.701 738.306 596.019 739.478 596.956 741.193C596.434 744.851 594.329 742.414 595.559 745.694C594.59 745.469 593.632 745.353 592.642 745.264C593.646 748.082 595.814 747.911 598.568 748.135L598.553 748.78C596.091 750.087 594.829 748.505 592.82 749.779L592.849 752.201L592.448 752.113L592.164 750.298C587.87 749.8 585.42 750.579 583.417 746.239L580.778 746.488C578.448 747.733 572.019 749.02 569.153 749.472C483.133 763.016 394.061 747.242 333.578 680.774C309.454 654.212 292.952 621.627 285.814 586.463C284.39 579.687 282.246 569.159 282.553 562.337C281.13 544.619 282.61 533.949 284.438 516.797C283.255 514.227 285.262 508.299 285.915 505.296C290.79 483.363 298.523 462.166 308.916 442.247C310.309 439.563 312.758 436.561 314.246 433.818C315.02 432.393 314.966 428.878 315.389 428.597C319.756 425.695 320.092 427.086 322.062 421.113C323.31 417.329 327.466 414.689 330.022 411.539C331.419 409.817 332.763 407.591 333.969 405.655C336.999 401.354 347.14 390.185 351.263 387.025C356.525 386.87 364.054 375.715 372.557 374.245C372.692 373.55 372.765 373.233 372.977 372.541L373.158 371.972C374.735 371.79 375.727 371.8 377.289 371.804C383.53 362.538 395.868 362.329 404.353 358.105C405.23 357.178 407.348 356.54 408.708 355.816L408.528 355.406L406.199 354.954C418.082 349.773 421.111 347.553 434.092 347.745Z"/><defs><linearGradient id="gradient_5" gradientUnits="userSpaceOnUse" x1="516.28241" y1="467.78094" x2="524.69324" y2="351.65186"><stop offset="0" stop-color="#BA43A5"/><stop offset="1" stop-color="#CB79B8"/></linearGradient></defs><path fill="url(#gradient_5)" transform="scale(0.488281 0.488281)" d="M427.915 363.597C431.123 363.844 446.627 358.431 451.012 357.443C466.205 354.019 480.858 352.024 496.447 351.64C508.141 351.061 519.817 349.578 531.706 350.601C565.617 353.651 599.902 360.128 630.441 375.835C634.159 378 649.755 384.858 651.502 387.442C654.472 391.835 666.844 401.392 668.021 404.745C669.894 410.084 669.925 430.812 663.867 435.13C659.225 438.438 657.036 440.851 652.159 443.566C646.536 448.376 642.68 450.622 635.918 453.49C632.846 454.793 629.263 457.839 626.057 459.1C625.465 459.381 621.73 459.856 620.56 460.129C610.146 462.525 599.586 464.232 588.949 465.24C585.667 463.595 576.87 465.141 572.812 465.212C559.922 465.439 546.339 463.823 533.448 465.057C526.422 465.729 521.616 467.898 513.994 466.072C511.93 465.578 507.244 468.035 505.01 467.032L504.244 465.584C499.588 467.799 487.143 459.067 481.453 460.336C478.991 460.886 473.395 457.843 470.141 457.573C461.668 456.87 446.853 456.996 439.195 453.984C423.378 447.763 384.901 434.046 376.093 419.949L374.272 419.134C373.972 418.199 371.373 409.978 371.514 409.22C373.159 400.392 381.044 389.441 388 383.641C391.921 380.372 393.539 379.792 397.531 377.156C399.051 376.162 400.699 374.373 402.17 373.226L402.082 371.92C403.039 371.413 402.495 371.55 403.741 371.643L403.747 372.05C412.357 370.537 416.624 367.303 424.573 364.552C425.562 364.209 426.713 364.036 427.915 363.597Z"/><path fill="#801F66" transform="scale(0.488281 0.488281)" d="M434.092 347.745C443.084 340.268 461.752 338.657 472.93 338.094C476.724 337.903 481.569 337.841 485.123 336.596C485.756 337.595 485.819 337.626 486.598 338.52C489.037 339.087 493.975 336.217 495.482 336.339C503.518 336.994 513.022 335.468 520.782 335.735C540.966 336.43 561.393 337.684 581.18 341.837C584.05 342.439 591.023 343.186 593.125 344.665L592.823 345.391L590.324 345.916C588.42 345.946 585.696 345.111 584.327 345.739L584.363 346.926C587.388 348.452 589.215 348.494 592.292 349.165C601.391 351.148 610.468 353.848 619.048 357.464C621.897 358.664 623.995 356.259 627.994 358.947C625.1 355.306 623.163 355.258 618.787 353.772C618.569 353.83 618.35 353.889 618.131 353.948C615.63 355.422 606.331 352.373 604.742 350.655C608.106 347.941 627.507 356.016 631.441 358.167L631.369 358.521L630.193 358.281C630.504 359.33 630.234 358.835 631.086 359.718L630.571 359.841C629.785 360.036 630.087 359.954 629.251 360.243C630.85 361.597 633.469 364.185 635.299 364.325C636.224 364.396 638.912 366.028 639.65 366.303C639.649 366.302 643.954 365.356 644.473 365.603C649.226 367.87 654 371.358 658.522 374.157C659.069 373.983 659.616 373.81 660.163 373.636C665.643 378.021 676.705 387.046 681.811 391.215C678.376 388.7 677.329 388.214 673.634 386.434C671.059 385.193 668.732 379.339 664.794 379.201L663.355 379.974L663.346 380.724C664.764 381.692 664.652 381.629 666.229 382.215C671.993 384.358 681.447 396.196 685.367 398.609L685.68 398.218C685.001 396.326 683.803 394.401 683.639 392.497L684.226 392.455C686.161 394.455 685.155 393.675 686.08 395.097C691.05 402.742 702.081 407.528 705.79 416.398L707.51 416.193C708.089 417.223 707.861 416.877 708.186 417.829C710.628 424.985 722.083 433.923 724.073 441.537C722.339 439.457 722.712 439.015 720.157 436.827L719.379 436.904L718.763 438.237C719.11 439.532 719.184 440.113 719.365 441.417C717.695 439.124 716.012 436.84 714.316 434.566C713.986 433.724 712.537 431.889 711.922 431.051L711.433 431.552C711.256 431.446 711.078 431.339 710.901 431.233C707.213 427.474 693.182 411.482 690.035 409.602L688.828 409.346C688.21 410.875 689.145 413.507 689.805 414.974C690.053 415.524 690.305 416.072 690.535 416.63L690.014 416.506C688.615 414.227 685.554 412.023 684.568 409.875C682.952 406.355 675.524 400.564 671.839 401.922C667.915 395.908 661.335 394.742 656.768 389.737C651.029 383.705 643.063 379.916 635.563 376.269C594.016 356.063 544.944 346.598 498.899 350.312C496.089 350.539 492.285 350.46 489.686 351.008C485.968 351.791 483.313 350.903 479.637 351.352C469.096 352.466 436.701 357.926 427.915 363.597C426.713 364.036 425.562 364.209 424.573 364.552C416.624 367.303 412.357 370.537 403.747 372.05L403.741 371.643C402.495 371.55 403.039 371.413 402.082 371.92C399.574 373.364 393.713 377.089 391.174 377.198C391.737 376.452 392.193 375.797 392.569 374.94C379.878 374.703 386.543 382.908 380.459 385.223L379.468 384.899C379.174 384.19 379.247 384.629 379.641 383.578L381.251 382.337C381 381.197 381.255 381.693 380.509 380.837C379.123 380.686 378.053 380.531 376.645 380.586L376.35 381.079L376.794 382.1L374.331 380.716C376.352 379.331 376.247 379.841 377.122 377.931C376.9 376.276 377.196 377.028 376.069 375.652L370.456 378.838C371.815 377.002 374.316 375.604 374.557 373.714L373.158 371.972C374.735 371.79 375.727 371.8 377.289 371.804C383.53 362.538 395.868 362.329 404.353 358.105C405.23 357.178 407.348 356.54 408.708 355.816L408.528 355.406L406.199 354.954C418.082 349.773 421.111 347.553 434.092 347.745Z"/><path fill="#D5CAD0" transform="scale(0.488281 0.488281)" d="M434.092 347.745C443.084 340.268 461.752 338.657 472.93 338.094C476.724 337.903 481.569 337.841 485.123 336.596C485.756 337.595 485.819 337.626 486.598 338.52C489.037 339.087 493.975 336.217 495.482 336.339C503.518 336.994 513.022 335.468 520.782 335.735C540.966 336.43 561.393 337.684 581.18 341.837C584.05 342.439 591.023 343.186 593.125 344.665L592.823 345.391L590.324 345.916C582.635 343.14 569.745 342.489 561.328 340.245C558.295 339.436 532.536 337.697 531.21 338.075C534.678 341.213 544.369 338.887 549.087 341.981C532.992 341.452 523.499 339.885 506.362 340.511C492.989 340.409 455.409 343.76 443.512 348.68C429.861 351.231 417.867 355.792 404.937 360.444C401.602 362.104 388.647 368.766 385.492 369.704C383.11 370.112 378.597 371.709 377.289 371.804C383.53 362.538 395.868 362.329 404.353 358.105C405.23 357.178 407.348 356.54 408.708 355.816L408.528 355.406L406.199 354.954C418.082 349.773 421.111 347.553 434.092 347.745Z"/><path fill="#D4C0CC" transform="scale(0.488281 0.488281)" d="M549.087 341.981C544.369 338.887 534.678 341.213 531.21 338.075C532.536 337.697 558.295 339.436 561.328 340.245C569.745 342.489 582.635 343.14 590.324 345.916C588.42 345.946 585.696 345.111 584.327 345.739L584.363 346.926C587.388 348.452 589.215 348.494 592.292 349.165C601.391 351.148 610.468 353.848 619.048 357.464C621.897 358.664 623.995 356.259 627.994 358.947C625.1 355.306 623.163 355.258 618.787 353.772C618.569 353.83 618.35 353.889 618.131 353.948C615.63 355.422 606.331 352.373 604.742 350.655C608.106 347.941 627.507 356.016 631.441 358.167L631.369 358.521L630.193 358.281C630.504 359.33 630.234 358.835 631.086 359.718L630.571 359.841C629.785 360.036 630.087 359.954 629.251 360.243C630.85 361.597 633.469 364.185 635.299 364.325C636.224 364.396 638.912 366.028 639.65 366.303C639.649 366.302 643.954 365.356 644.473 365.603C649.226 367.87 654 371.358 658.522 374.157C659.069 373.983 659.616 373.81 660.163 373.636C665.643 378.021 676.705 387.046 681.811 391.215C678.376 388.7 677.329 388.214 673.634 386.434C671.059 385.193 668.732 379.339 664.794 379.201L663.355 379.974L663.346 380.724C664.764 381.692 664.652 381.629 666.229 382.215C671.993 384.358 681.447 396.196 685.367 398.609L685.68 398.218C685.001 396.326 683.803 394.401 683.639 392.497L684.226 392.455C686.161 394.455 685.155 393.675 686.08 395.097C691.05 402.742 702.081 407.528 705.79 416.398L707.51 416.193C708.089 417.223 707.861 416.877 708.186 417.829C710.628 424.985 722.083 433.923 724.073 441.537C722.339 439.457 722.712 439.015 720.157 436.827L719.379 436.904L718.763 438.237C719.11 439.532 719.184 440.113 719.365 441.417C717.695 439.124 716.012 436.84 714.316 434.566C713.986 433.724 712.537 431.889 711.922 431.051C711.391 429.977 708.227 425.677 707.357 424.526C695.251 408.504 673.511 387.08 656.157 377.106C655.504 376.455 647.45 371.826 646.218 371.136C626.247 359.946 605.649 352.942 583.327 348.072C573.704 345.973 566.89 344.181 556.89 343.284C556.851 343.27 549.71 342.102 549.087 341.981Z"/><path fill="#D5CAD0" transform="scale(0.488281 0.488281)" d="M685.68 398.218C685.001 396.326 683.803 394.401 683.639 392.497L684.226 392.455C686.161 394.455 685.155 393.675 686.08 395.097C691.05 402.742 702.081 407.528 705.79 416.398C696.713 414.361 691.999 400.706 685.68 398.218Z"/><path fill="#6C1B57" transform="scale(0.488281 0.488281)" d="M556.89 343.284C566.89 344.181 573.704 345.973 583.327 348.072C605.649 352.942 626.247 359.946 646.218 371.136C647.45 371.826 655.504 376.455 656.157 377.106C657.344 378.437 657.767 379.064 657.678 380.689C655.185 380.692 643.848 372.372 640.48 370.815C624.535 363.445 607.577 358.588 591.327 351.951C589.275 351.112 585.618 350.839 583.374 350.346C576.853 348.83 568.768 349.083 562.627 346.642C560.105 345.64 557.685 345.786 556.044 344.913L555.906 344.12L556.89 343.284Z"/><path fill="#6C1B57" transform="scale(0.488281 0.488281)" d="M443.512 348.68C455.409 343.76 492.989 340.409 506.362 340.511C511.032 341.24 517.731 341.182 522.475 340.78L522.911 341.192C520.871 343.015 518.261 341.362 515.376 342.172C509.841 343.725 503.161 341.806 497.445 342.576C486.269 343.492 476.53 345.863 465.615 347.803C459.02 348.976 451.268 348.773 444.784 349.354L443.512 348.68Z"/><path fill="#8D2D79" transform="scale(0.488281 0.488281)" d="M377.122 377.931C380.47 375.914 380.75 374.942 384.535 373.88L385.71 374.181C385.875 376.029 381.891 380.021 380.509 380.837C379.123 380.686 378.053 380.531 376.645 380.586L376.35 381.079L376.794 382.1L374.331 380.716C376.352 379.331 376.247 379.841 377.122 377.931Z"/><path fill="#D4C0CC" transform="scale(0.488281 0.488281)" d="M377.289 371.804C378.597 371.709 383.11 370.112 385.492 369.704C384.04 370.609 376.994 374.854 376.069 375.652L370.456 378.838C371.815 377.002 374.316 375.604 374.557 373.714L373.158 371.972C374.735 371.79 375.727 371.8 377.289 371.804Z"/><path fill="#6C1B57" transform="scale(0.488281 0.488281)" d="M333.969 405.655C336.999 401.354 347.14 390.185 351.263 387.025C356.525 386.87 364.054 375.715 372.557 374.245C372.692 373.55 372.765 373.233 372.977 372.541L373.158 371.972L374.557 373.714C374.316 375.604 371.815 377.002 370.456 378.838L376.069 375.652C377.196 377.028 376.9 376.276 377.122 377.931C376.247 379.841 376.352 379.331 374.331 380.716C371.187 381.389 366.896 385.258 365.082 385.253L364.194 386C364.054 387.706 363.807 387.942 362.905 389.31C357.432 392.726 352.597 392.176 350.888 399.38C349.487 400.517 347.809 401.231 346.548 402.336C340.108 407.989 334.433 414.549 329.85 421.793C329.381 422.533 327.176 422.804 326.777 423.486C323.42 429.221 319.092 434.621 315.531 440.107C312.947 444.086 310.511 449.846 308.274 454.164C303.033 464.278 296.992 474.978 294.508 486.142C292.773 493.813 290.255 501.736 287.455 509.039C286.598 511.141 287.242 512.894 286.646 514.292C285.532 513.068 286.425 511.885 286.079 510.013C285.497 512.266 284.95 514.527 284.438 516.797C283.255 514.227 285.262 508.299 285.915 505.296C290.79 483.363 298.523 462.166 308.916 442.247C310.309 439.563 312.758 436.561 314.246 433.818C315.02 432.393 314.966 428.878 315.389 428.597C319.756 425.695 320.092 427.086 322.062 421.113C323.31 417.329 327.466 414.689 330.022 411.539C331.419 409.817 332.763 407.591 333.969 405.655Z"/><path fill="#D4C0CC" transform="scale(0.488281 0.488281)" d="M333.969 405.655C338.736 404.272 340.554 400.297 346.851 398.056C340.37 405.243 334.207 410.82 328.065 418.54C309.968 441.109 296.742 467.181 289.219 495.114C288.47 497.996 286.263 507.387 286.079 510.013C285.497 512.266 284.95 514.527 284.438 516.797C283.255 514.227 285.262 508.299 285.915 505.296C290.79 483.363 298.523 462.166 308.916 442.247C310.309 439.563 312.758 436.561 314.246 433.818C315.02 432.393 314.966 428.878 315.389 428.597C319.756 425.695 320.092 427.086 322.062 421.113C323.31 417.329 327.466 414.689 330.022 411.539C331.419 409.817 332.763 407.591 333.969 405.655Z"/><path fill="#D5CAD0" transform="scale(0.488281 0.488281)" d="M333.969 405.655C336.999 401.354 347.14 390.185 351.263 387.025C356.525 386.87 364.054 375.715 372.557 374.245C372.692 373.55 372.765 373.233 372.977 372.541L373.158 371.972L374.557 373.714C374.316 375.604 371.815 377.002 370.456 378.838L363.936 383.625C360.16 386.548 356.601 389.417 352.977 392.527C351.525 393.772 348.057 397.274 346.851 398.056C340.554 400.297 338.736 404.272 333.969 405.655Z"/><path fill="#801F66" transform="scale(0.488281 0.488281)" d="M365.082 385.253C366.896 385.258 371.187 381.389 374.331 380.716L376.794 382.1C378.407 382.036 377.799 381.741 378.814 382.66C372.429 386.304 369.928 382.681 364.481 389.529L364.342 390.392C365.377 389.713 365.804 389.774 367.029 389.727L368.024 390.262L368.183 391.189L367.27 390.771C365.647 390.912 362.319 391.728 361.559 393.001C359.063 397.178 356.846 397.921 353.34 400.49C350.12 402.848 346.491 407.732 343.809 410.761C343.3 411.403 343.815 413.236 343.674 413.36C340.154 416.455 335.376 419.179 331.761 422.065C329.257 424.062 328.805 423.682 328.969 425.556L329.675 425.698C331.297 424.499 331.816 424.062 333.238 422.635C332.988 423.491 326.664 430.357 325.399 432.218C321.245 438.33 317.429 444.938 313.454 451.149C310.835 455.244 311.868 456.245 307.686 458.438L306.891 458.875C305.88 460.317 305.98 460.26 305.678 462.023L306.013 462.521C308.304 461.879 308.044 461.088 308.247 458.819L309.198 458.641C310.166 462.817 298.359 473.78 297.769 479.694L298.29 480.416C301.404 479.746 301.381 477.564 302.076 474.82L302.434 474.909C302.537 479.077 297.33 483.897 295.928 487.615C290.129 502.995 286.02 519.533 284.732 535.895C284.316 541.187 284.005 558.987 282.553 562.337C281.13 544.619 282.61 533.949 284.438 516.797C284.95 514.527 285.497 512.266 286.079 510.013C286.425 511.885 285.532 513.068 286.646 514.292C287.242 512.894 286.598 511.141 287.455 509.039C290.255 501.736 292.773 493.813 294.508 486.142C296.992 474.978 303.033 464.278 308.274 454.164C310.511 449.846 312.947 444.086 315.531 440.107C319.092 434.621 323.42 429.221 326.777 423.486C327.176 422.804 329.381 422.533 329.85 421.793C334.433 414.549 340.108 407.989 346.548 402.336C347.809 401.231 349.487 400.517 350.888 399.38C352.597 392.176 357.432 392.726 362.905 389.31C363.807 387.942 364.054 387.706 364.194 386L365.082 385.253Z"/><path fill="#D4C0CC" transform="scale(0.488281 0.488281)" d="M719.365 441.417C719.184 440.113 719.11 439.532 718.763 438.237L719.379 436.904L720.157 436.827C722.712 439.015 722.339 439.457 724.073 441.537C726.165 446.446 738.659 471.919 741.221 475.354L741.162 476.201C740.779 482.288 743.016 485.645 744.406 491.383C745.789 497.096 745.548 499.6 749.172 504.581C749.467 509.547 749.703 514.678 750.109 519.622C753.76 540.294 750.426 546.145 750.905 564.391C749.809 568.609 749.539 578.282 747.527 580.283C747.659 577.067 748.562 574.182 748.751 570.387L748.167 570.174C748.542 563.578 750.439 541.076 748.604 535.059C744.681 526.772 744.837 526.049 743.622 516.615L743.513 511.905C743.734 504.092 740.642 499.145 740.521 491.442L741.039 491.417C736.287 472.315 728.694 458.328 719.365 441.417Z"/><path fill="#801F66" transform="scale(0.488281 0.488281)" d="M743.513 511.905L744.245 513.146L745.234 512.808L745.34 513.657C745.487 514.799 745.663 515.525 745.932 516.64L746.679 516.559C746.971 517.722 747.247 518.889 747.505 520.06C747.747 524.99 748.635 530.262 748.604 535.059C744.681 526.772 744.837 526.049 743.622 516.615L743.513 511.905Z"/><path fill="#6C1B57" transform="scale(0.488281 0.488281)" d="M741.039 491.417C742.675 495.92 746.305 511.894 746.679 516.559L745.932 516.64C745.663 515.525 745.487 514.799 745.34 513.657L745.234 512.808L744.245 513.146L743.513 511.905C743.734 504.092 740.642 499.145 740.521 491.442L741.039 491.417Z"/><path fill="#801F66" transform="scale(0.488281 0.488281)" d="M714.316 434.566C716.012 436.84 717.695 439.124 719.365 441.417C728.694 458.328 736.287 472.315 741.039 491.417L740.521 491.442C740.642 499.145 743.734 504.092 743.513 511.905L743.622 516.615C740.956 511.566 743.276 506.188 740.697 499.483L740.286 499.738C738.894 502.248 738.945 504.218 738.711 507.046L738.553 506.931C738.571 495.341 729.437 473.26 724.735 462.014C724.294 461.147 722.407 454.688 721.995 453.132C720.588 447.818 715.342 439.179 714.316 434.566Z"/><path fill="#8D2D79" transform="scale(0.488281 0.488281)" d="M690.035 409.602C693.182 411.482 707.213 427.474 710.901 431.233C711.078 431.339 711.256 431.446 711.433 431.552L711.922 431.051C712.537 431.889 713.986 433.724 714.316 434.566C715.342 439.179 720.588 447.818 721.995 453.132C722.407 454.688 724.294 461.147 724.735 462.014C723.633 461.798 723.199 461.679 722.133 461.323C720.928 456.332 707.056 436.568 703.272 431.356L703.591 430.691C703.891 430.844 706.63 433.944 707.181 434.527C706.277 427.623 700.653 428.761 699.142 425.494C695.97 418.637 700.221 420.948 693.595 414.758C693.542 416.821 695.566 416.357 695.904 418.897L695.032 418.891C692.231 417.397 689.847 412.767 690.035 409.602Z"/><path fill="#6C1B57" transform="scale(0.488281 0.488281)" d="M580.778 746.488C582.045 745.434 584.82 745.024 586.543 744.623C587.468 743.224 587.7 741.748 588.155 740.089L587.257 740.406L587.626 740.274L587.111 739.975C587.142 737.775 593.116 737.628 593.216 736.183C593.52 731.782 592.726 724.653 595.189 720.828C594.432 726.771 594.239 730.695 594.517 736.704C595.701 738.306 596.019 739.478 596.956 741.193C596.434 744.851 594.329 742.414 595.559 745.694C594.59 745.469 593.632 745.353 592.642 745.264C593.646 748.082 595.814 747.911 598.568 748.135L598.553 748.78C596.091 750.087 594.829 748.505 592.82 749.779L592.849 752.201L592.448 752.113L592.164 750.298C587.87 749.8 585.42 750.579 583.417 746.239L580.778 746.488Z"/><path fill="#D5CAD0" transform="scale(0.488281 0.488281)" d="M594.517 736.704C595.701 738.306 596.019 739.478 596.956 741.193C596.434 744.851 594.329 742.414 595.559 745.694C594.59 745.469 593.632 745.353 592.642 745.264C593.646 748.082 595.814 747.911 598.568 748.135L598.553 748.78C596.091 750.087 594.829 748.505 592.82 749.779L592.849 752.201L592.448 752.113L592.164 750.298C587.87 749.8 585.42 750.579 583.417 746.239L587.664 745.167C589.853 744.762 591.922 744.584 593.807 743.475C595.191 741.107 594.668 739.73 594.517 736.704Z"/><path fill="#6C1B57" transform="scale(0.488281 0.488281)" d="M596.277 716.031C595.881 713.411 596.591 713.127 594.684 710.425C593.141 708.239 594.764 699.25 596.253 697.798L596.855 698.019C597.414 701.639 593.481 708.753 596.334 710.26L597.474 709.584C599.302 706.227 596.487 700.648 599.431 696.578C601.843 693.244 603.017 693.806 606.489 693.809C610.2 691.516 609.326 687.866 614.538 687.182C605.82 696.038 600.067 704.126 596.277 716.031Z"/><path fill="#D5CAD0" transform="scale(0.488281 0.488281)" d="M750.905 564.391C750.979 572.623 748.111 590.278 743.439 597.17C745.408 588.244 746.985 579.237 748.167 570.174L748.751 570.387C748.562 574.182 747.659 577.067 747.527 580.283C749.539 578.282 749.809 568.609 750.905 564.391Z"/><defs><linearGradient id="gradient_6" gradientUnits="userSpaceOnUse" x1="403.05231" y1="591.94312" x2="423.04691" y2="499.33398"><stop offset="0" stop-color="#52C6C1"/><stop offset="1" stop-color="#8FEAE1"/></linearGradient></defs><path fill="url(#gradient_6)" transform="scale(0.488281 0.488281)" d="M382.936 508.361C398.439 496.121 419.87 494.667 436.885 504.7C453.899 514.734 462.999 534.191 459.791 553.682L460.591 554.069C460.286 555.098 460.27 555.541 460.192 556.564C459.886 560.625 458.637 563.825 456.806 567.52C447.422 586.461 429.313 595.51 408.59 594.828C407.774 594.801 406.905 594.332 406.148 594.071C402.963 593.294 398.211 592.286 395.027 592.407L394.69 592.944C396.01 594.903 406.509 598.439 408.554 598.368L408.573 599.117C404.731 599.824 403.902 599.049 399.982 597.939C386.124 594.015 370.72 585.915 366.554 571.013C366.201 569.75 363.874 565.641 363.052 564.75C360.096 559.93 361.773 543.287 361.771 536.891C361.768 526.906 370.895 512.274 378.69 505.957C379.959 505.834 379.367 505.713 380.445 506.545C378.998 509.744 367.272 513.007 371.448 519.593C374.403 516.499 378.639 508.729 382.936 508.361Z"/><path fill="#801F66" transform="scale(0.488281 0.488281)" d="M363.052 564.75C360.096 559.93 361.773 543.287 361.771 536.891C361.768 526.906 370.895 512.274 378.69 505.957C379.959 505.834 379.367 505.713 380.445 506.545C378.998 509.744 367.272 513.007 371.448 519.593C374.403 516.499 378.639 508.729 382.936 508.361C368.168 520.02 361.605 539.251 366.164 557.505C371.661 579.518 391.864 594.642 414.534 593.717C437.204 592.791 456.107 576.07 459.791 553.682L460.591 554.069C460.286 555.098 460.27 555.541 460.192 556.564C459.886 560.625 458.637 563.825 456.806 567.52C447.422 586.461 429.313 595.51 408.59 594.828C407.774 594.801 406.905 594.332 406.148 594.071C402.963 593.294 398.211 592.286 395.027 592.407L394.69 592.944C396.01 594.903 406.509 598.439 408.554 598.368L408.573 599.117C404.731 599.824 403.902 599.049 399.982 597.939C386.124 594.015 370.72 585.915 366.554 571.013C366.201 569.75 363.874 565.641 363.052 564.75Z"/><defs><linearGradient id="gradient_7" gradientUnits="userSpaceOnUse" x1="403.62299" y1="568.59454" x2="419.2309" y2="518.44934"><stop offset="0" stop-color="#760055"/><stop offset="1" stop-color="#BC57A1"/></linearGradient></defs><path fill="url(#gradient_7)" transform="scale(0.488281 0.488281)" d="M397.738 519.644C409.693 511.762 428.73 515.964 436.298 527.961C436.821 528.79 437.535 529.885 437.803 530.831L439.275 533.507C442.041 539.853 443.829 544.919 441.863 552.03L440.318 557.991C441.224 560.668 435.307 566.708 434.222 569.865L435.369 569.744C435.403 571.861 432.973 571.392 434.727 574.733C430.805 586.676 414.761 579.893 404.878 582.917C403.35 581.935 397.368 578.263 396.405 577.275C395.782 576.525 393.51 575.471 392.724 574.761C390.025 572.326 393.018 573.417 391.652 568.023C380.757 556.938 378.5 536.899 390.142 525.678C392.041 523.4 395.162 521.116 397.738 519.644Z"/><path fill="#512765" transform="scale(0.488281 0.488281)" d="M390.142 525.678L390.539 526.272L388.293 529.551C382.971 537.323 383.057 549.78 388.616 557.446C392.576 560.295 395.101 567.337 400.249 567.066C402.076 566.969 405.022 565.706 407.021 565.794C412.248 566.314 419.699 569.171 424.737 568.796C425.504 568.739 429.973 565.715 430.928 565.08C431.036 565.001 431.145 564.921 431.253 564.842C437.982 556.741 438.082 550.39 437.196 540.716C438.145 537.781 437.643 534.169 437.803 530.831L439.275 533.507C442.041 539.853 443.829 544.919 441.863 552.03L440.318 557.991C441.224 560.668 435.307 566.708 434.222 569.865L435.369 569.744C435.403 571.861 432.973 571.392 434.727 574.733C430.805 586.676 414.761 579.893 404.878 582.917C403.35 581.935 397.368 578.263 396.405 577.275C395.782 576.525 393.51 575.471 392.724 574.761C390.025 572.326 393.018 573.417 391.652 568.023C380.757 556.938 378.5 536.899 390.142 525.678Z"/><path fill="#6DD6C6" transform="scale(0.488281 0.488281)" d="M434.222 569.865L435.369 569.744C435.403 571.861 432.973 571.392 434.727 574.733C430.805 586.676 414.761 579.893 404.878 582.917C403.35 581.935 397.368 578.263 396.405 577.275C399.794 578.476 408.579 578.022 411.685 576.444C413.907 576.458 416.49 576.193 418.736 576.022C424.63 576.064 424.898 576.256 430.548 574.598C431.625 573.091 433.061 571.353 434.222 569.865Z"/><path fill="#6C1B57" transform="scale(0.488281 0.488281)" d="M388.616 557.446C392.576 560.295 395.101 567.337 400.249 567.066C402.076 566.969 405.022 565.706 407.021 565.794C412.248 566.314 419.699 569.171 424.737 568.796C425.504 568.739 429.973 565.715 430.928 565.08C424.177 574.409 407.81 574.965 398.871 568.469C394.396 566.053 390.945 561.91 388.616 557.446Z"/><path fill="#65B3BA" transform="scale(0.488281 0.488281)" d="M391.652 568.023L394.119 570.242C400.34 575.008 404.181 575.453 411.685 576.444C408.579 578.022 399.794 578.476 396.405 577.275C395.782 576.525 393.51 575.471 392.724 574.761C390.025 572.326 393.018 573.417 391.652 568.023Z"/><path fill="#65B3BA" transform="scale(0.488281 0.488281)" d="M440.318 557.991C441.224 560.668 435.307 566.708 434.222 569.865C433.061 571.353 431.625 573.091 430.548 574.598C424.898 576.256 424.63 576.064 418.736 576.022C428.179 573.395 433.62 568.983 438.731 560.555L440.318 557.991Z"/><path fill="#3F2B68" transform="scale(0.488281 0.488281)" d="M439.275 533.507C442.041 539.853 443.829 544.919 441.863 552.03C439.032 549.951 439.323 537.327 439.275 533.507Z"/><path fill="#8D2D79" transform="scale(0.488281 0.488281)" d="M397.738 519.644C409.693 511.762 428.73 515.964 436.298 527.961C436.821 528.79 437.535 529.885 437.803 530.831C437.643 534.169 438.145 537.781 437.196 540.716C436.401 539.052 435.079 536.144 434.961 534.409C434.598 529.078 433.592 530.989 431.81 529.091C432.24 528.369 432.556 527.803 432.937 527.054C426.679 515.653 409.388 515.541 398.849 520.133C398.478 519.97 398.108 519.807 397.738 519.644Z"/><defs><linearGradient id="gradient_8" gradientUnits="userSpaceOnUse" x1="615.06519" y1="592.6629" x2="611.94025" y2="498.00198"><stop offset="0" stop-color="#51C7C1"/><stop offset="1" stop-color="#91F0E1"/></linearGradient></defs><path fill="url(#gradient_8)" transform="scale(0.488281 0.488281)" d="M641.451 505.957C662.346 519.837 668.995 547.486 656.695 569.35C644.396 591.213 617.314 599.886 594.602 589.235C571.89 578.584 561.24 552.217 570.183 528.78C579.127 505.343 604.636 492.775 628.669 499.963C633.203 501.319 637.51 503.338 641.451 505.957Z"/><path fill="#9AE9E0" transform="scale(0.488281 0.488281)" d="M628.669 499.963C633.203 501.319 637.51 503.338 641.451 505.957C637.444 508.341 630.784 503.488 628.669 499.963Z"/><defs><linearGradient id="gradient_9" gradientUnits="userSpaceOnUse" x1="616.47083" y1="560.19061" x2="613.54633" y2="533.1001"><stop offset="0" stop-color="#830863"/><stop offset="1" stop-color="#AA2484"/></linearGradient></defs><path fill="url(#gradient_9)" transform="scale(0.488281 0.488281)" d="M588.691 531.457C597.066 517.427 609.947 512.976 625.623 517.23C628.467 518.83 633.563 521.311 635.581 523.661C637.565 525.483 638.289 526.205 639.939 528.32C641.371 530.94 642.982 533.642 644.021 536.42C645.69 542.234 645.552 544.686 645.539 550.77C646.32 558.531 642.13 566.495 636.082 571.522C633.763 573.45 632.129 573.91 629.166 573.013C622.786 575.883 615.383 577.771 608.488 575.305C604.995 574.928 601.808 573.524 598.91 571.561C592.021 566.849 587.249 559.628 585.616 551.443L586.37 550.28L588.513 550.28C588.68 548.136 588.788 543.858 589.625 542.103C589.581 538.294 589.585 537.502 587.427 534.416L588.691 531.457Z"/><defs><linearGradient id="gradient_10" gradientUnits="userSpaceOnUse" x1="617.8241" y1="575.08673" x2="616.25446" y2="544.7547"><stop offset="0" stop-color="#5D1D58"/><stop offset="1" stop-color="#980D6D"/></linearGradient></defs><path fill="url(#gradient_10)" transform="scale(0.488281 0.488281)" d="M635.581 523.661C637.565 525.483 638.289 526.205 639.939 528.32C641.371 530.94 642.982 533.642 644.021 536.42C645.69 542.234 645.552 544.686 645.539 550.77C646.32 558.531 642.13 566.495 636.082 571.522C633.763 573.45 632.129 573.91 629.166 573.013C622.786 575.883 615.383 577.771 608.488 575.305C604.995 574.928 601.808 573.524 598.91 571.561C592.021 566.849 587.249 559.628 585.616 551.443L586.37 550.28L588.513 550.28C588.68 548.136 588.788 543.858 589.625 542.103C590.817 544.095 589.413 544.126 590.354 545.449C591.643 547.261 592.314 552.321 594.445 553.09C604.331 556.655 620.442 561.004 630.672 558.378C633.46 557.662 639.353 544.421 641.392 543.318C640.633 539.851 636.977 534.777 635.182 530.917C635.414 527.669 635.671 531.129 637.517 528.34C637.135 526.755 637.101 526.876 635.869 525.764L635.581 523.661Z"/><path fill="#801F66" transform="scale(0.488281 0.488281)" d="M635.581 523.661C637.565 525.483 638.289 526.205 639.939 528.32C641.371 530.94 642.982 533.642 644.021 536.42C645.69 542.234 645.552 544.686 645.539 550.77C644.69 553.606 643.972 556.201 642.311 558.717C640.92 554.228 647.157 546.47 641.392 543.318C640.633 539.851 636.977 534.777 635.182 530.917C635.414 527.669 635.671 531.129 637.517 528.34C637.135 526.755 637.101 526.876 635.869 525.764L635.581 523.661Z"/><path fill="#512765" transform="scale(0.488281 0.488281)" d="M585.616 551.443L586.37 550.28L588.513 550.28C589.178 553.291 589.765 556.318 590.274 559.359C596.77 564.862 602.395 572.137 612.004 573.421L612.266 573.787C607.092 575.735 597.027 566.308 592.82 563.792C592.505 568.109 604.592 573.574 608.302 574.757L608.488 575.305C604.995 574.928 601.808 573.524 598.91 571.561C592.021 566.849 587.249 559.628 585.616 551.443Z"/><path fill="#65B3BA" transform="scale(0.488281 0.488281)" d="M642.311 558.717C643.972 556.201 644.69 553.606 645.539 550.77C646.32 558.531 642.13 566.495 636.082 571.522C633.763 573.45 632.129 573.91 629.166 573.013C634.463 569.404 639.909 564.887 642.311 558.717Z"/><path fill="#B14794" transform="scale(0.488281 0.488281)" d="M588.691 531.457C597.066 517.427 609.947 512.976 625.623 517.23C628.467 518.83 633.563 521.311 635.581 523.661L635.869 525.764L636.446 526.943L635.79 527.822L635.934 527.973L636.577 527.592L636.423 528.471C633.165 527.624 633.157 531.956 630.002 534.197C619.166 541.897 603.78 540.04 592.058 536.493C593.725 536.175 596.299 535.828 597.743 535.162C592.986 534.542 591.602 535.029 588.691 531.457Z"/><path fill="#9AE9E0" transform="scale(0.488281 0.488281)" d="M625.623 517.23L626.326 516.666C631.424 518.717 631.66 520.361 637.001 519.188C639.321 518.679 643.444 527.321 644.408 529.517C645.906 532.07 646.128 534.085 644.021 536.42C642.982 533.642 641.371 530.94 639.939 528.32C638.289 526.205 637.565 525.483 635.581 523.661C633.563 521.311 628.467 518.83 625.623 517.23Z"/><path fill="#3F2B68" transform="scale(0.488281 0.488281)" d="M587.427 534.416C589.585 537.502 589.581 538.294 589.625 542.103C588.788 543.858 588.68 548.136 588.513 550.28L586.37 550.28L585.616 551.443C584.812 544.079 585.128 541.334 587.427 534.416Z"/><path fill="#6DD6C6" transform="scale(0.488281 0.488281)" d="M460.986 625.464C466.185 617.695 473.781 625.531 479.593 629.179C498.392 640.979 523.894 642.175 544.042 633.282C547.065 631.93 550.012 630.414 552.87 628.74C559.154 624.986 563.379 618.179 570.27 624.419L571.154 626.904C571.879 631.392 571.492 632.967 568.696 636.715C564.947 641.74 557.11 647.589 551.255 649.703C548.478 650.705 537.042 652.453 534.115 652.493L534.299 651.897C537.05 650.996 547.689 647.554 549.829 645.99C546.785 646.101 535.952 650.658 531.433 651.64C516.75 654.832 499.937 654.461 485.64 649.624C483.497 648.907 480.078 649.872 476.752 648.643L476.482 648.156L478.246 647.789C476.215 645.597 473.48 645.242 470.996 643.62C469.662 642.75 468.255 638.853 467.217 637.914C465.321 636.197 464.812 636.919 463.279 634.397L463.393 633.476C460.785 630.438 460.087 629.535 460.986 625.464Z"/><path fill="#9AE9E0" transform="scale(0.488281 0.488281)" d="M460.986 625.464C466.185 617.695 473.781 625.531 479.593 629.179C498.392 640.979 523.894 642.175 544.042 633.282C547.065 631.93 550.012 630.414 552.87 628.74C559.154 624.986 563.379 618.179 570.27 624.419C559.368 630.351 552.47 635.44 540.415 640.287C515.752 650.203 488.891 643.944 467.959 628.546C466.419 627.395 462.645 627.013 460.986 625.464Z"/><path fill="#6C1B57" transform="scale(0.488281 0.488281)" d="M571.154 626.904C571.879 631.392 571.492 632.967 568.696 636.715C564.947 641.74 557.11 647.589 551.255 649.703C548.478 650.705 537.042 652.453 534.115 652.493L534.299 651.897C537.05 650.996 547.689 647.554 549.829 645.99C546.785 646.101 535.952 650.658 531.433 651.64C516.75 654.832 499.937 654.461 485.64 649.624C483.497 648.907 480.078 649.872 476.752 648.643L476.482 648.156L478.246 647.789C476.215 645.597 473.48 645.242 470.996 643.62C469.662 642.75 468.255 638.853 467.217 637.914C465.321 636.197 464.812 636.919 463.279 634.397L463.393 633.476C467.74 636.192 472.322 639.759 476.769 642.143C502.23 655.784 533.169 655.063 557.893 640.073C563.138 636.893 570.668 633.657 571.154 626.904Z"/><defs><linearGradient id="gradient_11" gradientUnits="userSpaceOnUse" x1="122.36412" y1="405.767" x2="128.69794" y2="349.68353"><stop offset="0" stop-color="#691557"/><stop offset="1" stop-color="#AF308C"/></linearGradient></defs><path fill="url(#gradient_11)" transform="scale(0.488281 0.488281)" d="M143.281 401.476C133.818 408.153 120.616 409.181 110.648 402.945C103.59 398.603 98.5881 391.591 96.7811 383.504C91.0033 357.56 120.241 339.825 141.71 353.723C148.063 357.836 153.214 364.506 154.47 372.021C154.969 375.008 155.044 378.384 155.686 381.33L155.898 382.27C150.311 387.646 146.81 390.858 144.52 398.644C144.21 399.696 143.779 400.507 143.281 401.476Z"/><path fill="#C259A6" transform="scale(0.488281 0.488281)" d="M126.597 357.748C137.48 359.417 139.757 373.779 132.652 372.783L133.791 371.239C132.417 370.995 132.828 371.346 132.133 370.544C133.817 369.995 134.601 369.515 135.457 367.977L134.505 366.785C133.132 367.031 133.27 367.471 132.143 369.012C128.174 370.567 126.155 370.825 122.226 369.126L122.03 369.687C122.647 370.927 123.096 371.411 122.889 372.738L122.045 372.993C117.834 372.283 115.606 369.571 115.628 365.207C115.645 361.772 117.665 360.294 120.074 358.189C122.051 357.924 124.566 357.859 126.597 357.748Z"/><defs><linearGradient id="gradient_12" gradientUnits="userSpaceOnUse" x1="920.19086" y1="405.54089" x2="912.91516" y2="350.54037"><stop offset="0" stop-color="#6B1457"/><stop offset="1" stop-color="#B02A8D"/></linearGradient></defs><path fill="url(#gradient_12)" transform="scale(0.488281 0.488281)" d="M902.972 352.738C911.561 348.367 920.594 347.961 929.414 351.78C936.87 356.055 942.878 361.204 945.185 370.069C950.711 391.301 931.259 411.372 909.818 405.729C905.706 404.647 901.129 402.456 897.537 400.134C894.905 393.375 891.57 388.013 887.394 382.086C887.4 382.046 887.406 382.006 887.413 381.966C887.008 375.89 889.284 369.588 891.833 364.137C894.939 358.422 897.758 356.218 902.972 352.738Z"/><path fill="#8D2D79" transform="scale(0.488281 0.488281)" d="M902.972 352.738C911.561 348.367 920.594 347.961 929.414 351.78C924.987 352.442 924.055 349.386 917.675 350.3C918.317 350.827 918.979 351.202 919.724 351.567L919.919 352.28C916.83 353.525 912.752 352.634 909.281 354.877C907.916 355.759 904.903 357.341 903.285 357.545C900.674 355.52 904.387 356.665 901.663 354.903C896.875 356.984 895.607 362.593 891.833 364.137C894.939 358.422 897.758 356.218 902.972 352.738Z"/><path fill="#C259A6" transform="scale(0.488281 0.488281)" d="M917.779 372.324C919.687 372.549 919.134 371.772 921.07 372.638C920.716 377.432 902.287 376.092 904.23 367.835C904.978 364.658 903.343 362.588 905.7 359.426C908.318 355.915 916.087 352.888 919.73 355.67C919.196 356.878 919.27 356.398 919.254 357.682C922.724 359.114 935.012 363.432 929.318 368.965C928.781 368.287 928.975 368.555 928.51 367.875L928.192 367.406C926.565 368.02 925.987 368.188 924.268 368.402C923.089 370.234 919.777 371.45 917.779 372.324Z"/><path fill="#B14794" transform="scale(0.488281 0.488281)" d="M917.779 372.324C919.687 372.549 919.134 371.772 921.07 372.638C920.716 377.432 902.287 376.092 904.23 367.835C904.978 364.658 903.343 362.588 905.7 359.426C908.318 355.915 916.087 352.888 919.73 355.67C919.196 356.878 919.27 356.398 919.254 357.682C922.724 359.114 935.012 363.432 929.318 368.965C928.781 368.287 928.975 368.555 928.51 367.875L928.192 367.406C926.565 368.02 925.987 368.188 924.268 368.402C925.276 367.234 926.661 366.16 926.546 364.532C925.926 355.795 904.835 356.95 906.995 366.242C908.22 371.513 912.997 372.41 917.779 372.324Z"/><defs><linearGradient id="gradient_13" gradientUnits="userSpaceOnUse" x1="170.79387" y1="416.93857" x2="181.29724" y2="399.94067"><stop offset="0" stop-color="#CCCBCB"/><stop offset="1" stop-color="#FAFAFA"/></linearGradient></defs><path fill="url(#gradient_13)" transform="scale(0.488281 0.488281)" d="M143.281 401.476C143.779 400.507 144.21 399.696 144.52 398.644C146.81 390.858 150.311 387.646 155.898 382.27C161.807 389.517 191.274 406.058 200.615 411.73C202.567 412.066 207.786 415.301 211.296 416.429C210.374 418.503 208.996 418.994 207.614 420.944C205.628 425.523 202.011 430.063 200.052 434.412C197.465 432.419 187.37 427.917 183.565 425.683C169.256 417.281 158.287 408.804 143.281 401.476Z"/><path fill="#E2E2E1" transform="scale(0.488281 0.488281)" d="M200.615 411.73C202.567 412.066 207.786 415.301 211.296 416.429C210.374 418.503 208.996 418.994 207.614 420.944C204.956 420.199 203.314 417.804 202.229 418.459C199.773 419.939 191.851 417.523 192.466 414.035C195.418 411.798 197.915 413.145 200.615 411.73Z"/><path fill="#E2E2E1" transform="scale(0.488281 0.488281)" d="M887.394 382.086C891.57 388.013 894.905 393.375 897.537 400.134C889.036 406.141 848.525 432.155 840.315 434.645C837.425 429.331 833.125 422.074 829.481 417.357C830.191 417.543 830.723 417.6 831.447 417.709C839.825 411.95 849.387 407.171 857.817 401.473C867.143 395.17 879.293 389.709 887.394 382.086Z"/></svg>