<?xml version="1.0" encoding="utf-8" ?><svg xmlns="http://www.w3.org/2000/svg" xmlns:xlink="http://www.w3.org/1999/xlink" width="1024" height="1024" viewBox="0 0 1024 1024"><path fill="#E5E5E4" d="M222.053 410.632C222.039 410.424 221.993 410.217 222.011 410.009C222.306 406.568 229.82 394.926 231.907 391.485C256.86 350.346 286.43 317.671 325.85 289.867C400.744 237.041 490.56 221.641 580.137 237.173C658.735 250.8 733.703 294.482 782.375 357.918C790.926 369.126 798.784 380.847 805.904 393.014C808.725 397.882 812.469 406.552 815.461 410.531C823.128 412.459 824.035 414.541 830.404 417.741L830.176 418.392L833.68 423.502C835.74 427.04 838.993 432.235 840.309 436.016C842.028 445.272 840.262 452.123 835.959 460.341C836.329 461.633 837.297 464.638 837.357 465.813C840.567 474.736 843.663 491.013 845.127 500.495C854.276 559.874 845.677 620.632 820.411 675.14C807.924 701.886 791.647 726.693 772.082 748.795C787.124 765.259 803.781 780.031 818.187 796.907C839.759 822.178 837.806 852.911 813.931 875.652C811.522 877.947 806.695 881.524 803.56 882.814C803.441 882.973 803.322 883.132 803.203 883.29C791.104 890.505 773.479 894.639 760.131 895.254C735.509 896.389 721.436 890.939 704.631 873.529C697.112 866.312 690.315 858.431 683.274 850.765C678.73 845.817 673.867 839.041 668.777 834.78C662.56 837.312 636.047 850.872 632.167 851.315C617.585 857.469 594.502 865.013 578.872 867.944C571.698 869.669 565.401 870.69 558.096 871.591C503.728 877.611 463.095 874.458 411.045 856.487C409.613 855.728 406.873 854.853 405.228 854.25C390.582 848.877 376.342 842.906 363.009 834.672C357.833 833.044 342.343 822.821 337.509 819.586C295.277 791.317 260.61 756.614 234.061 713.2C188.493 638.688 177.842 553.86 198.727 469.354C200.062 465.489 201.263 461.305 202.466 457.375C200.433 450.024 197.566 444.512 199.539 436.047C201.081 432.168 204.692 426.389 206.88 422.539C208.003 420.948 209.093 419.334 210.148 417.696C213.868 413.791 217.136 412.342 222.053 410.632Z"/><path fill="#BBBABA" d="M363.009 834.672C357.833 833.044 342.343 822.821 337.509 819.586C295.277 791.317 260.61 756.614 234.061 713.2C188.493 638.688 177.842 553.86 198.727 469.354C198.749 469.498 198.771 469.642 198.793 469.787C198.709 479.754 193.947 490.314 193.142 500.202C192.943 502.64 194.52 509.565 194.234 513.499C193.794 519.536 193.79 526.073 193.52 532.144C193.621 536.568 194.848 540.294 194.569 544.527C194.795 547.502 195.144 552.279 195.825 555.21C196.85 559.626 195.765 567.978 196.819 571.742C198.819 576.039 198.33 580.344 198.909 584.964C199.905 592.905 201.345 601.143 202.482 609.042C203.924 619.061 207.153 627.19 210.482 636.491C213.293 644.345 213.967 654.87 217.495 662.895C219.259 668.076 222.537 673.069 224.45 677.953C228.759 688.952 234.746 697.448 241.665 706.901C245.358 711.946 248.074 719.033 252.124 724.025C254.562 727.46 261.303 732.669 263.137 735.785C271.682 750.545 280.503 758.657 294.101 768.428C302.333 774.343 309.741 782.104 318.692 787.817C331.996 796.307 346.441 803.91 360.274 811.539C365.695 814.529 374.519 815.977 380.294 818.823C389.926 822.809 400.245 826.872 410.351 829.441C416.672 831.047 424.986 831.606 431.525 833.057C442.555 835.505 453.05 837.471 464.252 838.651C488.471 841.2 510.583 843.25 534.843 839.22C542.219 837.995 549.994 837.643 557.005 835.047C559.251 834.215 562.391 834.997 566.06 833.41C569.917 831.825 574.007 830.959 577.816 829.254C587.45 824.94 598.546 815.436 603.231 805.776C608.152 795.628 600.884 776.867 599.632 765.73C599.377 763.464 596.381 757.566 595.81 754.748C594.62 756.29 597.129 759.219 596.152 761.629C594.508 759.278 593.75 752.603 596.728 750.358C597.147 750.348 598.213 750.144 598.399 750.624C605.461 768.866 621.135 786.288 636.19 798.488L636.674 798.877L636.439 799.815L636.638 800.645C637.377 803.78 657.458 822.613 660.855 826.892C661.49 827.692 667.775 834.158 668.777 834.78C662.56 837.312 636.047 850.872 632.167 851.315C617.585 857.469 594.502 865.013 578.872 867.944C571.698 869.669 565.401 870.69 558.096 871.591C503.728 877.611 463.095 874.458 411.045 856.487C409.613 855.728 406.873 854.853 405.228 854.25C390.582 848.877 376.342 842.906 363.009 834.672Z"/><defs><linearGradient id="gradient_0" gradientUnits="userSpaceOnUse" x1="549.76947" y1="869.38611" x2="542.43915" y2="831.5224"><stop offset="0" stop-color="#757475"/><stop offset="1" stop-color="#A7A7A5"/></linearGradient></defs><path fill="url(#gradient_0)" d="M636.439 799.815L636.638 800.645C637.377 803.78 657.458 822.613 660.855 826.892C661.49 827.692 667.775 834.158 668.777 834.78C662.56 837.312 636.047 850.872 632.167 851.315C617.585 857.469 594.502 865.013 578.872 867.944C571.698 869.669 565.401 870.69 558.096 871.591C503.728 877.611 463.095 874.458 411.045 856.487L410.79 855.297C413.907 855.579 415.519 856.808 418.893 856.596L419.244 856.1C417.341 855.11 415.616 854.392 414.093 852.904L414.259 852.285C416.869 852.235 422.611 853.727 424.417 855.582C424.983 855.117 431.004 853.366 432.276 852.93C446.232 856.354 457.348 856.471 471.278 857.788C525.001 862.865 579.531 857.039 629.182 835.088C636.003 832.072 640.744 827.913 646.46 823.252C649.32 820.924 650.574 821.475 653.834 821.104C652.05 817.492 637.191 804.874 635.794 801.28L636.439 799.815Z"/><path fill="#595858" d="M424.417 855.582L424.328 856.048C425.933 856.577 431.522 857.644 432.931 857.107C432.362 856.512 431.762 855.994 431.111 855.489C433.284 855.427 438.096 855.141 440.008 855.786C449.547 859.005 459.66 858.895 469.494 860.348C470.412 859.641 469.935 859.914 470.905 859.497C472.248 862.617 473.162 861.517 476.057 862.12C482.94 863.552 488.681 862.472 495.394 861.969C498.822 861.712 506.526 863.867 510.405 864.232C522.554 865.415 535.205 866.692 547.399 865.703C560.158 864.668 573.065 859.868 585.694 857.959C592.797 856.884 600.919 859.297 608.707 858.205C614.977 857.325 627.34 850.983 632.167 851.315C617.585 857.469 594.502 865.013 578.872 867.944C571.698 869.669 565.401 870.69 558.096 871.591C503.728 877.611 463.095 874.458 411.045 856.487L410.79 855.297C413.907 855.579 415.519 856.808 418.893 856.596L419.244 856.1C417.341 855.11 415.616 854.392 414.093 852.904L414.259 852.285C416.869 852.235 422.611 853.727 424.417 855.582Z"/><path fill="#3F3F3F" d="M558.096 871.591C560.048 867.898 575.315 865.913 578.872 867.944C571.698 869.669 565.401 870.69 558.096 871.591Z"/><defs><linearGradient id="gradient_1" gradientUnits="userSpaceOnUse" x1="400.11499" y1="852.75665" x2="401.14828" y2="846.61932"><stop offset="0" stop-color="#777676"/><stop offset="1" stop-color="#989797"/></linearGradient></defs><path fill="url(#gradient_1)" d="M363.009 834.672C367.401 834.664 378.288 842.874 382.966 843.684C395.537 845.862 408.111 847.494 420.537 850.6C424.353 851.554 428.627 851.327 432.276 852.93C431.004 853.366 424.983 855.117 424.417 855.582C422.611 853.727 416.869 852.235 414.259 852.285L414.093 852.904C415.616 854.392 417.341 855.11 419.244 856.1L418.893 856.596C415.519 856.808 413.907 855.579 410.79 855.297L411.045 856.487C409.613 855.728 406.873 854.853 405.228 854.25C390.582 848.877 376.342 842.906 363.009 834.672Z"/><path fill="#BBBABA" d="M837.357 465.813C840.567 474.736 843.663 491.013 845.127 500.495C854.276 559.874 845.677 620.632 820.411 675.14C807.924 701.886 791.647 726.693 772.082 748.795C769.947 747.593 753.579 730.459 751.53 727.776L751.902 727.632C753.371 729.109 757.898 733.83 759.314 734.779C759.627 734.115 761.247 730.684 761.689 730.369C771.763 723.185 781.377 715.264 790.347 706.714C794.652 702.611 797.097 695.891 801.411 691.515C805.815 687.048 811.865 684.459 815.054 678.896C816.205 676.226 815.804 673.181 816.779 670.355C817.818 667.342 819.046 664.307 819.975 661.307C822.239 654.556 825.275 648.082 828.009 641.5C829.742 637.328 835.322 616.957 838.691 616.832L839.21 618.19C847.699 588.554 850.016 539.392 845.604 509.049C844.238 499.159 842.401 489.341 840.099 479.626C839.439 476.898 836.837 468.108 837.357 465.813Z"/><defs><linearGradient id="gradient_2" gradientUnits="userSpaceOnUse" x1="827.18555" y1="456.57202" x2="829.323" y2="412.54977"><stop offset="0" stop-color="#5E1B5A"/><stop offset="1" stop-color="#9C297D"/></linearGradient></defs><path fill="url(#gradient_2)" d="M815.461 410.531C823.128 412.459 824.035 414.541 830.404 417.741L830.176 418.392L833.68 423.502C835.74 427.04 838.993 432.235 840.309 436.016C842.028 445.272 840.262 452.123 835.959 460.341C834.886 453.27 819.023 417.946 815.461 410.531Z"/><path fill="#831A6A" d="M222.053 410.632C222.122 411.066 222.192 411.501 222.262 411.935C215.412 426.972 209.333 442.346 202.466 457.375C200.433 450.024 197.566 444.512 199.539 436.047C201.081 432.168 204.692 426.389 206.88 422.539C208.003 420.948 209.093 419.334 210.148 417.696C213.868 413.791 217.136 412.342 222.053 410.632Z"/><path fill="#BBBABA" d="M636.638 800.645L637.322 801.102C638.071 801.612 647.501 808.625 647.11 808.065L646.402 808.53C645.432 807.977 644.22 807.056 643.289 807.049C645.925 810.488 650.101 813.865 653.304 817.676C658.694 824.086 666.27 830.62 672.337 836.688C692.061 856.325 711.519 889.28 741.371 893.508C753.116 895.172 769.916 893.089 781.596 891.101C785.821 890.382 801.962 882.536 803.56 882.814C803.441 882.973 803.322 883.132 803.203 883.29C791.104 890.505 773.479 894.639 760.131 895.254C735.509 896.389 721.436 890.939 704.631 873.529C697.112 866.312 690.315 858.431 683.274 850.765C678.73 845.817 673.867 839.041 668.777 834.78C667.775 834.158 661.49 827.692 660.855 826.892C657.458 822.613 637.377 803.78 636.638 800.645Z"/><defs><linearGradient id="gradient_3" gradientUnits="userSpaceOnUse" x1="516.63208" y1="752.60907" x2="513.86157" y2="349.47171"><stop offset="0" stop-color="#8A0D70"/><stop offset="1" stop-color="#C136A8"/></linearGradient></defs><path fill="url(#gradient_3)" d="M363.786 378.081C371.562 372.959 382.576 365.465 391.023 361.623C393.345 360.567 394.064 360.693 396.665 359.015L397.829 359.474C396.014 362.262 393.882 362.955 390.604 363.472C383.568 364.581 386.669 366.061 380.181 370.609L381.196 371.014C390.205 366.315 399.034 363.179 405.801 355.485C406.88 354.257 419.364 349.34 421.541 348.021C422.345 347.678 429.252 346.977 430.307 346.883C437.522 346.218 444.749 341.58 451.575 339.976C457.601 338.559 465.562 339.023 471.736 338.292C489.661 336.169 507.656 334.547 525.723 335.127C529.212 335.239 533.218 334.808 536.602 335.641C541.129 336.877 546.056 335.279 550.502 336.338L550.485 336.656C548.591 336.895 547.746 336.636 546.611 337.673C548.808 338.555 552.317 338.622 554.484 338.435C559.694 337.986 598.287 345.15 599.998 347.816L598.261 348.077L598.704 349.144C595.601 350.112 592.958 345.485 591.2 348.483C596.418 353.022 606.138 349.421 611.5 350.429C617.132 351.487 642.784 361.975 644.82 364.973C643.519 364.579 643.675 364.609 642.459 363.979L642.528 364.707C646.897 366.677 654.764 369.796 658.519 372.239C666.07 377.153 673.903 384.161 680.853 389.847C684.342 392.703 690.301 401.413 692.941 401.819C692.461 400.639 692.161 399.922 691.57 398.772C692.489 399.585 692.626 399.952 693.118 401.058C694.674 404.545 698.929 405.359 700.763 408.748C702.166 411.339 705.116 413.313 706.934 415.607C711.983 422.415 727.945 445.026 729.152 452.502C736.263 462.573 743.27 486.989 746.246 499.199C745.141 497.599 745.446 497.417 744.036 497.111C743.572 498.21 743.706 497.45 743.966 498.562C748.481 517.894 751.368 538.774 749.871 558.642C749.629 561.853 749.682 566.935 748.018 569.658C746.597 608.017 724.234 648.23 700.552 677.2C683.752 667.547 667.644 665.354 648.511 669.242C616.357 675.774 587.19 709.009 595.218 743.201C563.325 753.162 525.323 755.27 492.227 753.218C431.872 749.402 372.86 726.201 332.455 679.971C294 635.971 278.98 588.321 282.511 530.588C281.154 521.189 285.714 510.095 285.63 503.521C284.128 504.675 283.097 507.592 282.185 509.52C281.874 507.447 284.247 504.828 284.997 502.173C287.018 495.016 287.116 488.101 289.635 480.99C289.438 485.737 286.864 492.669 287.347 496.822L287.833 496.499C288.348 489.678 294.661 474.407 297.521 467.575C299.411 463.061 301.074 460.87 302.058 455.583C301.199 455.966 301.587 455.744 300.882 456.228C299.676 460.545 298.373 461.464 296.52 465.336L296.298 465.807L296.118 465.212C298.462 459.688 314.028 428.439 317.968 426.57C324.288 413.286 350.976 386.426 363.786 378.081Z"/><path fill="#831A6A" d="M363.786 378.081C371.562 372.959 382.576 365.465 391.023 361.623C393.345 360.567 394.064 360.693 396.665 359.015L397.829 359.474C396.014 362.262 393.882 362.955 390.604 363.472C383.568 364.581 386.669 366.061 380.181 370.609L381.196 371.014C390.205 366.315 399.034 363.179 405.801 355.485C406.88 354.257 419.364 349.34 421.541 348.021C422.345 347.678 429.252 346.977 430.307 346.883C437.522 346.218 444.749 341.58 451.575 339.976C457.601 338.559 465.562 339.023 471.736 338.292C489.661 336.169 507.656 334.547 525.723 335.127C529.212 335.239 533.218 334.808 536.602 335.641C541.129 336.877 546.056 335.279 550.502 336.338L550.485 336.656C548.591 336.895 547.746 336.636 546.611 337.673C548.808 338.555 552.317 338.622 554.484 338.435C559.694 337.986 598.287 345.15 599.998 347.816L598.261 348.077L598.704 349.144C595.601 350.112 592.958 345.485 591.2 348.483C596.418 353.022 606.138 349.421 611.5 350.429C617.132 351.487 642.784 361.975 644.82 364.973C643.519 364.579 643.675 364.609 642.459 363.979L642.528 364.707C646.897 366.677 654.764 369.796 658.519 372.239C666.07 377.153 673.903 384.161 680.853 389.847C684.342 392.703 690.301 401.413 692.941 401.819C692.461 400.639 692.161 399.922 691.57 398.772C692.489 399.585 692.626 399.952 693.118 401.058C694.674 404.545 698.929 405.359 700.763 408.748C702.166 411.339 705.116 413.313 706.934 415.607C711.983 422.415 727.945 445.026 729.152 452.502C727.504 450.553 726.982 448.353 725.634 446.24C722.516 441.351 718.876 435.874 714.784 431.751C713.344 430.301 713.067 430.456 711.621 430.579C724.837 450.303 733.682 466.435 740.264 489.669L739.97 490.156L739.372 490.252C736.139 477.089 731.206 467.743 725.7 455.924L725.079 456.055C725.647 457.181 725.819 457.326 725.996 458.552L725.744 458.598C724.857 457.855 716.519 442.95 715.879 441.308C716.249 440.311 716.1 440.836 716.313 439.73C697.681 406.881 658.77 375.482 623.821 361.635C617.122 358.981 588.199 348.835 582.381 349.241L582.114 349.84C582.85 350.454 591.542 351.774 593.7 352.534C604.927 356.491 616.223 358.951 627.222 364.062C650.358 374.815 670.991 388.519 688.782 406.905C693.691 411.979 701.041 418.05 701.888 425.085C701.885 425.068 705.251 428.641 705.895 430.281L705.31 430.832C702.535 430.436 701.315 426.864 699.585 424.967C696.526 421.615 693.21 417.8 689.637 415.016L689.433 416.163C687.17 416.072 686.922 411.356 686.314 410.701C683.725 407.913 680.461 405.325 677.541 402.841L677.792 402.962C673.862 398.656 667.179 395.409 662.453 391.766C624.494 362.507 572.971 350.155 525.804 348.879C490.037 347.911 452.717 351.547 419.14 364.044C406.778 368.645 391.573 374.1 381.83 383.149C376.119 386.672 371.666 390.984 365.776 394.237L365.522 394.013L366.176 392.878C365.614 392.964 362.19 393.469 362.088 393.569C359.384 396.218 352.786 401.198 350.42 403.582L350.15 405.496C348.841 406.028 349.384 405.877 347.834 405.708C342.752 408.356 345.995 414.4 341.854 415.575C334.285 417.722 338.399 419.641 335.687 422.43L334.31 422.772C334.661 420.4 335.833 420.483 335.281 419.262C332.023 420.815 332.515 421.293 330.232 424.857L330.443 425.326L331.363 425.287C331.041 427.189 321.447 434.769 321.3 438.007C321.234 439.475 320.205 441.516 319.197 442.684C316.807 445.453 313.829 449.439 312.096 452.684C310.609 455.467 307.509 456.872 306.591 458.596C305.442 460.754 303.914 465.125 302.878 467.628C298.075 479.228 294.21 491.179 290.346 503.095C290.028 504.075 290.258 503.602 289.478 504.545L289.034 504.217C289.394 499.029 290.464 497.613 291.696 492.992C295.951 477.037 302.231 461.975 310.626 447.75C312.106 445.242 314.767 439.722 316.833 437.807L317.257 438.203C316.786 439.987 315.35 442.747 314.087 444.171L314.352 444.884C322.442 439.712 317.709 436.376 320.056 432.816C323.714 427.27 331.778 419.632 336.238 414.231C338.062 412.194 338.773 408.579 339.824 407.599C350.561 397.576 362.941 386.339 375.279 378.372C376.136 377.818 375.794 378.339 376.553 377.247L376.243 376.571C370.069 379.488 359.855 387.931 354.698 392.403C331.262 412.456 312.765 437.643 300.646 466.007C298.745 470.366 297.054 472.594 295.609 477.27C292.625 486.93 289.608 495.776 287.468 505.649C286.711 509.144 284.397 524.137 283.747 525.606L283.394 525.419C282.872 527.485 282.885 528.774 282.511 530.588C281.154 521.189 285.714 510.095 285.63 503.521C284.128 504.675 283.097 507.592 282.185 509.52C281.874 507.447 284.247 504.828 284.997 502.173C287.018 495.016 287.116 488.101 289.635 480.99C289.438 485.737 286.864 492.669 287.347 496.822L287.833 496.499C288.348 489.678 294.661 474.407 297.521 467.575C299.411 463.061 301.074 460.87 302.058 455.583C301.199 455.966 301.587 455.744 300.882 456.228C299.676 460.545 298.373 461.464 296.52 465.336L296.298 465.807L296.118 465.212C298.462 459.688 314.028 428.439 317.968 426.57C324.288 413.286 350.976 386.426 363.786 378.081Z"/><path fill="#BBBABA" d="M363.786 378.081C371.562 372.959 382.576 365.465 391.023 361.623C393.345 360.567 394.064 360.693 396.665 359.015L397.829 359.474C396.014 362.262 393.882 362.955 390.604 363.472C383.568 364.581 386.669 366.061 380.181 370.609L381.196 371.014C390.205 366.315 399.034 363.179 405.801 355.485C406.88 354.257 419.364 349.34 421.541 348.021C422.345 347.678 429.252 346.977 430.307 346.883C437.522 346.218 444.749 341.58 451.575 339.976C457.601 338.559 465.562 339.023 471.736 338.292C489.661 336.169 507.656 334.547 525.723 335.127C529.212 335.239 533.218 334.808 536.602 335.641C541.129 336.877 546.056 335.279 550.502 336.338L550.485 336.656C548.591 336.895 547.746 336.636 546.611 337.673C548.808 338.555 552.317 338.622 554.484 338.435C559.694 337.986 598.287 345.15 599.998 347.816L598.261 348.077L598.704 349.144C595.601 350.112 592.958 345.485 591.2 348.483C596.418 353.022 606.138 349.421 611.5 350.429C617.132 351.487 642.784 361.975 644.82 364.973C643.519 364.579 643.675 364.609 642.459 363.979L642.528 364.707C646.897 366.677 654.764 369.796 658.519 372.239C666.07 377.153 673.903 384.161 680.853 389.847C684.342 392.703 690.301 401.413 692.941 401.819C692.461 400.639 692.161 399.922 691.57 398.772C692.489 399.585 692.626 399.952 693.118 401.058C694.674 404.545 698.929 405.359 700.763 408.748C702.166 411.339 705.116 413.313 706.934 415.607C711.983 422.415 727.945 445.026 729.152 452.502C727.504 450.553 726.982 448.353 725.634 446.24C722.516 441.351 718.876 435.874 714.784 431.751C713.344 430.301 713.067 430.456 711.621 430.579C695.019 408.789 684.936 398.497 663.028 381.842L661.264 380.812C657.157 377.546 646.889 371.69 642.127 369.16C600.484 347.042 544.275 338.021 497.5 341.001C480.88 341.212 463.131 344.065 446.905 347.477C418.514 354.904 394.817 362.558 370.101 379.256C364.879 382.783 360.633 386.265 355.638 389.96C357.947 385.736 360.677 381.756 363.786 378.081Z"/><path fill="#D1C4CD" d="M661.264 380.812L661.578 378.713C665.511 376.365 670.288 382.713 672.466 385.106L672.4 385.399L668.507 383.155C666.9 382.21 664.884 381.965 663.028 381.842L661.264 380.812Z"/><path fill="#D6BECF" d="M317.968 426.57C324.288 413.286 350.976 386.426 363.786 378.081C360.677 381.756 357.947 385.736 355.638 389.96C354.53 391.043 348.233 396.895 347.055 397.648C340.535 404.403 334.262 410.788 328.334 418.103C308.879 442.229 295 470.358 287.691 500.477C286.165 506.936 283.632 519.031 283.394 525.419C282.872 527.485 282.885 528.774 282.511 530.588C281.154 521.189 285.714 510.095 285.63 503.521C284.128 504.675 283.097 507.592 282.185 509.52C281.874 507.447 284.247 504.828 284.997 502.173C287.018 495.016 287.116 488.101 289.635 480.99C289.438 485.737 286.864 492.669 287.347 496.822L287.833 496.499C288.348 489.678 294.661 474.407 297.521 467.575C299.411 463.061 301.074 460.87 302.058 455.583C301.199 455.966 301.587 455.744 300.882 456.228C299.676 460.545 298.373 461.464 296.52 465.336L296.298 465.807L296.118 465.212C298.462 459.688 314.028 428.439 317.968 426.57Z"/><path fill="#D1C4CD" d="M317.968 426.57C324.288 413.286 350.976 386.426 363.786 378.081C360.677 381.756 357.947 385.736 355.638 389.96C354.53 391.043 348.233 396.895 347.055 397.648C340.3 400.107 328.682 413.147 323.967 419.055C322.119 421.371 322.036 424.286 317.968 426.57Z"/><path fill="#6B1C62" d="M446.905 347.477C463.131 344.065 480.88 341.212 497.5 341.001C497.794 341.568 497.991 341.954 498.249 342.544C495.03 342.661 490.508 343.226 487.495 343.186C476.583 343.04 456.658 352.48 446.905 347.477Z"/><path fill="#951E78" d="M350.42 403.582C350.337 402.749 350.395 402.662 350.481 401.821C355.833 396.542 359.079 393.775 365.693 390.185L364.359 389.692C365.74 388.222 367.659 386.054 369.395 385.079C372.597 383.283 377.459 383.864 379.469 380.464C380.801 379.825 380.331 379.722 381.317 379.992L381.83 383.149C376.119 386.672 371.666 390.984 365.776 394.237L365.522 394.013L366.176 392.878C365.614 392.964 362.19 393.469 362.088 393.569C359.384 396.218 352.786 401.198 350.42 403.582Z"/><path fill="#D6BECF" d="M711.621 430.579C713.067 430.456 713.344 430.301 714.784 431.751C718.876 435.874 722.516 441.351 725.634 446.24C726.982 448.353 727.504 450.553 729.152 452.502C736.263 462.573 743.27 486.989 746.246 499.199C745.141 497.599 745.446 497.417 744.036 497.111C743.572 498.21 743.706 497.45 743.966 498.562C748.481 517.894 751.368 538.774 749.871 558.642C749.629 561.853 749.682 566.935 748.018 569.658C750.326 545.741 748.523 512.438 740.264 489.669C733.682 466.435 724.837 450.303 711.621 430.579Z"/><defs><linearGradient id="gradient_4" gradientUnits="userSpaceOnUse" x1="517.15955" y1="461.71182" x2="523.27496" y2="352.95316"><stop offset="0" stop-color="#BE48A9"/><stop offset="1" stop-color="#CD7ABA"/></linearGradient></defs><path fill="url(#gradient_4)" d="M495.316 351.784C524.099 350.079 557.019 352.371 585.094 359.397C613.112 367.276 643.797 378.252 663.136 401.151C667.056 405.792 664.708 411.613 663.8 417.707C661.505 433.098 648.387 435.593 638.168 442.164C611.998 458.993 584.242 459.934 554.091 459.764C552.156 459.755 536.291 460.172 535.463 459.823L534.892 460.245C532.32 460.264 504.243 460.983 504.305 461.01L504.224 459.598C499.784 460.037 484.983 454.436 479.601 453.478C468.819 451.264 458.985 451.229 448.068 449.208C432.003 446.235 411.575 440.218 396.836 432.983C391.571 430.398 383.46 422.304 378.804 418.885C375.197 416.237 374.537 406.701 376.32 403.065C377.311 396.084 380.446 390.513 386.07 386.242C386.868 385.635 391.532 380.422 390.565 380.989C397.817 376.739 406.504 372.792 414.575 370.319C423.362 367.626 431.061 363.948 439.598 360.81C455.397 356.856 479.291 352.827 495.316 351.784Z"/><path fill="#64DFD7" d="M600.345 499.745C614.697 496.217 626.183 496.742 639.287 504.61C650.038 511.106 657.761 521.615 660.747 533.816C667.044 559.371 652.455 586.495 626.415 592.499C620.363 593.894 615.866 593.985 609.702 593.703C606.821 595.727 605.998 592.511 602.484 594.313L602.774 594.745C604.18 594.858 605.587 594.956 606.995 595.039L606.767 595.519C600.767 597.092 587.781 589.616 584.152 584.832C584.879 585.349 585.67 586.047 586.367 586.625C585.322 584.643 584.09 584.601 583.114 582.096C578.222 577.134 575.775 573.956 572.202 567.996L571.434 568.119C569.669 565.792 568.748 562.908 568.147 560.094L567.99 559.339L567.397 560.63L567.711 559.055C566.754 563.435 569.035 569.005 570.974 572.959L570.701 573.575C568.566 571.946 564.903 562.761 564.621 559.966C563.2 545.894 563.555 532.489 571.728 520.808C573.407 516.506 583.226 503.091 588.914 503.035C593.794 502.986 596.39 498.702 600.345 499.745Z"/><path fill="#951E78" d="M571.728 520.808L573.02 520.881C572.388 522.209 572.088 522.545 572.326 524.063C567.023 536.981 565.244 546.489 569.349 560.181C570.079 562.617 571.696 566.127 572.202 567.996L571.434 568.119C569.669 565.792 568.748 562.908 568.147 560.094L567.99 559.339L567.397 560.63L567.711 559.055C566.754 563.435 569.035 569.005 570.974 572.959L570.701 573.575C568.566 571.946 564.903 562.761 564.621 559.966C563.2 545.894 563.555 532.489 571.728 520.808Z"/><path fill="#831A6A" d="M571.728 520.808C573.407 516.506 583.226 503.091 588.914 503.035C593.794 502.986 596.39 498.702 600.345 499.745C585.886 506.539 580.698 509.743 572.326 524.063C572.088 522.545 572.388 522.209 573.02 520.881L571.728 520.808Z"/><path fill="#6B1C62" d="M583.114 582.096C591.755 588.713 598.73 592.329 609.702 593.703C606.821 595.727 605.998 592.511 602.484 594.313L602.774 594.745C604.18 594.858 605.587 594.956 606.995 595.039L606.767 595.519C600.767 597.092 587.781 589.616 584.152 584.832C584.879 585.349 585.67 586.047 586.367 586.625C585.322 584.643 584.09 584.601 583.114 582.096Z"/><path fill="#831A6A" d="M588.093 532.825C588.99 530.06 592.333 525.735 594.43 523.801C600.626 518.124 608.861 515.205 617.249 515.715C625.089 516.201 632.421 519.76 637.653 525.62C643.467 532.887 644.918 537.966 645.614 547.213C647.319 553.2 643.854 565.985 638.052 569.807C637.235 570.345 637.558 570.169 637.167 571.097C637.56 571.077 641.778 571.049 641.903 571.07C641.352 576.226 639.629 582.611 635.87 586.013C630.676 590.713 613.043 588.232 606.264 587.818C598.27 587.33 590.765 577.41 590.771 570.239C591.396 569.564 591.972 568.987 592.629 568.343C588.003 560.334 581.917 553.737 584.884 543.361C585.972 539.047 586.212 536.906 588.093 532.825Z"/><defs><linearGradient id="gradient_5" gradientUnits="userSpaceOnUse" x1="615.22241" y1="547.24164" x2="611.12396" y2="517.09491"><stop offset="0" stop-color="#A00C77"/><stop offset="1" stop-color="#C26AB0"/></linearGradient></defs><path fill="url(#gradient_5)" d="M588.093 532.825C588.99 530.06 592.333 525.735 594.43 523.801C600.626 518.124 608.861 515.205 617.249 515.715C625.089 516.201 632.421 519.76 637.653 525.62C637.325 526.823 636.722 528.856 636.763 530.059C636.921 534.682 639.768 536.546 635.576 539.698L634.64 540.07C630.46 541.765 626.859 544.479 622.169 546.175C616.118 548.364 608.165 547.134 603.205 548.168C600.193 547.119 596.693 545.587 593.84 544.198C590.546 542.593 589.738 536.584 588.326 533.348L588.093 532.825Z"/><path fill="#4FCFC9" d="M584.884 543.361C585.372 553.392 587.01 561.292 594.823 568.427C600.846 573.929 608.831 576.776 616.976 576.324C624.939 575.823 632.366 572.139 637.583 566.102C642.906 560.025 644.374 554.869 645.614 547.213C647.319 553.2 643.854 565.985 638.052 569.807C637.235 570.345 637.558 570.169 637.167 571.097C637.56 571.077 641.778 571.049 641.903 571.07C641.352 576.226 639.629 582.611 635.87 586.013C630.676 590.713 613.043 588.232 606.264 587.818C598.27 587.33 590.765 577.41 590.771 570.239C591.396 569.564 591.972 568.987 592.629 568.343C588.003 560.334 581.917 553.737 584.884 543.361Z"/><path fill="#951E78" d="M603.205 548.168C608.165 547.134 616.118 548.364 622.169 546.175C626.859 544.479 630.46 541.765 634.64 540.07L635.576 539.698C631.117 547.92 610.75 550.82 603.205 548.168Z"/><defs><linearGradient id="gradient_6" gradientUnits="userSpaceOnUse" x1="402.95209" y1="591.99054" x2="421.31461" y2="499.16113"><stop offset="0" stop-color="#49CFCB"/><stop offset="1" stop-color="#7EF0E6"/></linearGradient></defs><path fill="url(#gradient_6)" d="M410.452 498.204C436.863 497.143 459.13 517.7 460.177 544.112C461.225 570.523 440.656 592.779 414.244 593.813C387.851 594.846 365.615 574.295 364.568 547.903C363.521 521.511 384.061 499.264 410.452 498.204Z"/><path fill="#831A6A" d="M404.818 516.849C412.187 514.055 427.623 516.925 432.122 523.614C434.539 525.881 437.046 528.799 438.279 531.92C444.218 542.464 442.968 551.41 438.198 561.97C438.061 565.882 432.298 569.111 432.932 569.955C435.976 574.002 435.028 577.839 430.41 582.551C426.876 586.157 415.275 585.562 410.519 584.813C405.517 584.204 398.753 583.536 395.141 579.812C391.896 576.467 392.683 571.485 391.087 568.066C383.702 558.657 377.959 545.353 384.769 533.827C388.001 525.212 396.03 519.023 404.818 516.849Z"/><defs><linearGradient id="gradient_7" gradientUnits="userSpaceOnUse" x1="411.64767" y1="544.52301" x2="419.7977" y2="518.84857"><stop offset="0" stop-color="#A6127F"/><stop offset="1" stop-color="#BF66AA"/></linearGradient></defs><path fill="url(#gradient_7)" d="M404.818 516.849C412.187 514.055 427.623 516.925 432.122 523.614C432.204 526.769 436.117 529.438 436.727 532.863C439.925 550.824 411.141 546.874 402.257 540.807C393.104 534.556 391.758 529.739 397.538 520.866C399.469 519.827 404.121 518.128 404.818 516.849Z"/><path fill="#6B1C62" d="M384.769 533.827L385.155 533.987C386.328 532.837 390.377 526.771 391.895 524.892C392.209 525.456 391.515 527.163 391.271 528.039C388.206 530.017 388.996 531.197 387.425 534.067C381.831 544.291 386.631 558.894 395.298 565.91C401.966 571.307 407.552 573.117 415.902 572.45C422.311 571.94 428.231 568.828 432.286 563.839C439.618 554.891 439.316 542.956 438.279 531.92C444.218 542.464 442.968 551.41 438.198 561.97C438.061 565.882 432.298 569.111 432.932 569.955C435.976 574.002 435.028 577.839 430.41 582.551C426.876 586.157 415.275 585.562 410.519 584.813C405.517 584.204 398.753 583.536 395.141 579.812C391.896 576.467 392.683 571.485 391.087 568.066C383.702 558.657 377.959 545.353 384.769 533.827Z"/><path fill="#4FCFC9" d="M391.087 568.066C402.998 578.971 421.091 579.897 432.885 568.104C434.676 566.313 436.347 563.484 438.198 561.97C438.061 565.882 432.298 569.111 432.932 569.955C435.976 574.002 435.028 577.839 430.41 582.551C426.876 586.157 415.275 585.562 410.519 584.813C405.517 584.204 398.753 583.536 395.141 579.812C391.896 576.467 392.683 571.485 391.087 568.066Z"/><path fill="#64DFD7" d="M457.976 612.565C467.468 611.989 467.772 620.335 473.476 626.068C495.778 648.608 540.222 646.838 557.638 619.166C560.964 613.881 568.381 607.289 572.201 617.072C573.758 621.06 571.55 624.679 569.42 628.053C565.474 633.397 560.743 638.114 555.387 642.044C525.335 664.17 479.081 658.785 456.627 628.355C452.157 622.297 451.113 616.864 457.976 612.565Z"/><path fill="#951E78" d="M712.485 439.575L713.587 439.876C714.74 440.953 717.106 446.632 718.009 448.306C723.14 457.811 727.613 464.811 729.618 475.702C730.033 477.952 730.872 478.465 731.202 481.723C727.212 479.352 726.995 468.211 724.215 463.767C723.407 463.422 721.551 462.71 721.216 462.015C718.028 455.394 715.869 445.894 712.485 439.575Z"/><defs><linearGradient id="gradient_8" gradientUnits="userSpaceOnUse" x1="921.71332" y1="405.64001" x2="911.8576" y2="350.25839"><stop offset="0" stop-color="#70145B"/><stop offset="1" stop-color="#B2258E"/></linearGradient></defs><path fill="url(#gradient_8)" d="M887.455 382.877C886.114 338.006 946.413 340.215 946.346 377.534C946.394 385.454 943.238 393.057 937.596 398.614C925.876 410.041 912.387 409.175 899.16 401.416C895.949 398.06 893.847 390.819 889.9 386.374C889.191 385.123 888.314 384.039 887.455 382.877Z"/><path fill="#C45EAB" d="M912.899 358.185C917.994 357.616 924.618 358.1 927.348 363.284C928.153 364.777 928.28 366.542 927.697 368.134C926.547 371.349 923.089 373.565 920.13 374.891C915.083 376.399 907.997 373.791 906.191 368.55C905.56 366.769 905.699 364.806 906.575 363.132C907.835 360.716 910.363 359.034 912.899 358.185Z"/><path fill="#951E78" d="M100.716 361.987C109.25 348.27 128.904 345.699 142.005 354.086C148.325 358.185 152.764 364.622 154.35 371.986C155.175 375.836 154.986 379.56 154.803 383.468C152.943 384.923 152.737 385.022 151.432 386.932C149.004 388.954 147.582 391.634 145.793 394.299C145.034 396.427 144.224 398.899 143.31 400.932C140.096 403.637 135.844 405.66 131.751 406.518C124.103 408.2 116.101 406.751 109.53 402.492C95.9252 393.524 91.7691 375.73 100.716 361.987Z"/><path fill="#6B1C62" d="M100.716 361.987C100.285 367.336 98.3691 367.078 99.747 373.481C100.634 371.246 99.3141 367.445 100.329 366.827C101.188 369.248 102.949 378.308 102.519 380.584C101.636 380.648 102.06 380.753 101.272 380.189C101.188 385.512 102.878 390.133 106.195 394.255C115.504 397.083 126.15 394.529 135.896 395.077C138.382 395.217 142.281 396.389 144.007 395.739C144.524 395.096 144.925 394.608 145.477 393.988L145.793 394.299C145.034 396.427 144.224 398.899 143.31 400.932C140.096 403.637 135.844 405.66 131.751 406.518C124.103 408.2 116.101 406.751 109.53 402.492C95.9252 393.524 91.7691 375.73 100.716 361.987Z"/><path fill="#C45EAB" d="M123.404 357.17C136.959 356.421 142.314 370.113 130.427 374.582L129.932 374.392L129.391 375.032C123.632 374.252 115.381 372.671 114.233 365.364C114.007 364.001 114.349 362.604 115.18 361.499C117.086 358.966 120.408 357.727 123.404 357.17Z"/><defs><linearGradient id="gradient_9" gradientUnits="userSpaceOnUse" x1="869.51361" y1="417.92438" x2="859.2428" y2="401.24393"><stop offset="0" stop-color="#D0CFCF"/><stop offset="1" stop-color="#FEFEFD"/></linearGradient></defs><path fill="url(#gradient_9)" d="M887.455 382.877C888.314 384.039 889.191 385.123 889.9 386.374C893.847 390.819 895.949 398.06 899.16 401.416C879.319 412.374 860.074 424.826 840.309 436.016C838.993 432.235 835.74 427.04 833.68 423.502L830.176 418.392L830.404 417.741C839.175 413.468 850.499 405.852 859.011 400.634C868.014 395.116 879.002 388.861 887.455 382.877Z"/><path fill="#E5E5E4" d="M887.455 382.877C888.314 384.039 889.191 385.123 889.9 386.374C889.047 385.982 888.235 385.57 887.442 385.065C886.273 385.237 884.086 385.55 883.645 386.547C881.274 391.912 881.619 393.737 878.052 398.742C874.949 399.853 869.777 401.557 867.197 403.34C858.351 409.452 849.48 414.861 839.873 419.713C838.016 420.651 835.52 423.08 833.68 423.502L830.176 418.392L830.404 417.741C839.175 413.468 850.499 405.852 859.011 400.634C868.014 395.116 879.002 388.861 887.455 382.877Z"/><defs><linearGradient id="gradient_10" gradientUnits="userSpaceOnUse" x1="170.86488" y1="417.18918" x2="181.22368" y2="400.72125"><stop offset="0" stop-color="#CCCACB"/><stop offset="1" stop-color="white"/></linearGradient></defs><path fill="url(#gradient_10)" d="M154.803 383.468C166.036 389.414 177.686 398.048 188.488 404.94C194.572 408.821 203.457 415.337 210.148 417.696C209.093 419.334 208.003 420.948 206.88 422.539C204.692 426.389 201.081 432.168 199.539 436.047C195.115 432.675 187.332 428.633 182.394 425.448C169.701 417.262 155.791 409.344 143.31 400.932C144.224 398.899 145.034 396.427 145.793 394.299C147.582 391.634 149.004 388.954 151.432 386.932C152.737 385.022 152.943 384.923 154.803 383.468Z"/><path fill="#E5E5E4" d="M154.803 383.468C166.036 389.414 177.686 398.048 188.488 404.94C194.572 408.821 203.457 415.337 210.148 417.696C209.093 419.334 208.003 420.948 206.88 422.539L204.834 423.547C199.965 423.154 187.661 415.481 183.413 412.279C180.417 410.253 176.113 405.264 173.12 403.73C164.396 399.26 160.731 400.874 158.95 389.895C160.852 390.162 161.8 390.298 163.705 390.306C162.113 388.115 157.145 385.313 154.257 385.557C153.302 386.232 153.106 386.483 152.493 387.48L151.432 386.932C152.737 385.022 152.943 384.923 154.803 383.468Z"/></svg>