<?xml version="1.0" encoding="utf-8" ?><svg xmlns="http://www.w3.org/2000/svg" xmlns:xlink="http://www.w3.org/1999/xlink" width="500" height="500" viewBox="0 0 500 500"><path fill="#D9D9D8" transform="scale(0.488281 0.488281)" d="M222.003 410.538C225.53 401.615 233.694 388.377 238.866 380.212C271.952 327.978 322.989 284.399 379.703 259.215C454.364 226.061 554.477 222.533 631.174 250.141C696.288 273.58 753.918 315.178 792.781 372.4C801.336 384.998 809.138 396.616 815.538 410.464C820.893 411.932 827.274 414.385 830.911 418.812C831.337 420.358 832.586 422.02 833.501 423.413C835.808 427.174 839.177 432.308 840.412 436.405C840.828 445.646 841.073 451.017 835.947 459.057C836.469 464.108 839.391 472.315 840.686 477.687C843.451 489.687 845.532 501.834 846.919 514.07C854.92 588.177 835.199 667.526 789.595 726.914C785.743 731.892 781.816 736.811 777.816 741.671C776.5 743.258 772.363 747.847 771.51 749.205C783.207 760.009 825.641 799.439 827.81 812.466C832.535 820.775 834.41 833.243 832.833 842.617C825.706 884.99 771.902 903.166 734.793 894.004C710.704 888.056 689.614 857.294 673.353 839.829C671.909 838.277 670.26 835.9 668.758 834.545C652.047 842.656 635.829 850.66 618.137 856.432C597.128 864.1 575.565 870.159 553.637 874.558C549.89 875.328 535.598 876.267 534.135 876.733C522.656 878.031 499.913 877.852 488.331 875.827C484.819 875.832 475.551 874.026 471.776 873.404C448.375 869.553 428.646 862.904 406.486 854.739C390.441 849.006 375.495 841.71 360.575 833.535C357.616 831.914 350.053 827.931 347.615 825.744C338.541 821.18 326.722 812.123 318.578 806.05C275.884 774.213 238.039 727.709 216.018 678.946C191.238 624.092 182.818 563.252 191.767 503.73C193.733 489.913 197.625 470.238 202.594 457.085C199.378 450.511 198.297 443.404 199.667 436.191C201.645 430.978 204.744 426.51 207.465 421.631C208.814 420.033 209.445 419.108 210.578 417.343C213.512 413.84 217.9 412.135 222.003 410.538Z"/><defs><linearGradient id="gradient_0" gradientUnits="userSpaceOnUse" x1="513.27234" y1="752.62329" x2="517.17194" y2="348.65326"><stop offset="0" stop-color="#82146E"/><stop offset="1" stop-color="#C02BA5"/></linearGradient></defs><path fill="url(#gradient_0)" transform="scale(0.488281 0.488281)" d="M302.469 449.477C304.247 445.793 306.537 440.629 308.262 436.799C308.35 436.603 309.652 435.896 309.861 435.845C312.881 435.107 313.654 428.868 314.726 427.227C317.073 425.157 320.447 423.666 321.654 420.634C321.916 419.977 322.65 416.065 322.62 416.101C331.579 405.233 341.932 393.321 354.359 386.385C355.533 385.73 355.385 383.127 356.693 381.829C356.818 382.455 356.961 383.04 357.162 383.648C362.853 379.05 362.427 376.394 369.431 372.88C370.353 371.356 371.281 369.028 372.438 368.323L374.685 368.855C372.46 369.3 373.333 368.792 371.813 370.125L371.607 371.628C375.609 369.891 379.648 367.556 383.726 365.67C384.382 363.924 384.573 362.361 386.393 361.737C388.82 360.905 396.996 357.148 398.792 357.377L399.354 358.22C402.447 354.646 424.478 346.901 430.338 345.313C432.256 344.793 435.183 344.941 437.195 344.727C448.336 338.264 461.196 338.57 473.912 337.152C512.128 332.891 551.612 332.885 588.986 343.027C589.63 343.325 594.805 343.657 595.036 343.908C597.906 347.021 604.563 346.086 607.257 347.488C612.994 350.474 621.372 351.594 626.688 353.946C632.23 356.398 644.105 361.602 648.605 365.176L648.789 365.869C646.185 365.62 646.121 364.139 643.453 364.439L643.469 364.737C646.066 365.316 645.532 367.696 649.173 366.988C652.205 366.399 652.817 369.756 654.344 370.729C656.298 371.974 656.267 371.613 658.112 373.491L658.951 373.712L659.386 373.092C656.712 370.781 655.862 369.934 653.624 367.207L653.699 367.011L654.275 367.551C657.611 370.651 659.047 371.013 663.234 372.873L661.393 373.125C662.223 374.377 669.042 379.275 670.427 379.729C669.958 378.054 669.419 377.803 668.2 376.391C675.279 379.528 683.816 393.688 683.794 393.684L683.826 391.342C686.163 393.29 689.62 399.58 691.171 400.684C697.907 405.477 703.975 410.194 709.535 416.479C711.43 418.62 710.195 423.265 715.529 425.358C715.887 425.499 718.607 430.746 719.282 431.219C725.695 439.414 731.121 445.542 732.803 456.242C733.49 460.611 738.179 468.362 739.42 472.201C741.893 479.847 748.535 495.694 748.549 503.122C751.236 524.936 751.936 535.628 751.455 557.204C750.404 560.994 751.213 562.842 750.665 566.706C750.227 565.824 750.479 564.608 750.524 563.45L750.248 563.501C749.798 565.453 749.697 567.072 748.363 568.464C746.966 575.314 746.415 583.077 744.992 589.98C743.342 597.99 740.604 605.729 738.233 613.524C735.578 619.197 733.573 625.418 730.905 631.258C725.531 643.025 718.968 652.868 711.656 663.478C708.051 668.209 704.301 672.829 700.412 677.33C693.5 671.825 681.734 669.025 673.193 667.806C672.614 673.149 666.316 679.096 662.405 682.674C646.83 691.8 630.246 714.412 612.967 692.685C612.559 692.171 611.874 690.065 611.637 689.356C610.036 691.36 605.755 696.536 604.828 698.558C601.845 702.565 598.504 709.263 597.115 714.064C594.29 722.717 593.01 734.319 595.339 743.107C591.543 744.317 574.601 748.11 573.118 748.738C558.263 751.294 547.374 752.673 532.161 753.497C510.882 754.453 489.56 753.515 468.447 750.697C462.783 749.906 456.903 748.291 451.171 747.59C441.14 744.434 432.751 743.285 422.011 739.232L419.452 738.801C415.465 741.67 407.069 745.893 402.22 745.706C386.193 745.087 363.472 725.974 357.31 712.178C356.275 708.307 356.992 704.102 355.379 701.561C345.236 694.314 334.709 682.674 326.585 673.146C298.94 637.182 283.43 601.219 281.828 555.361C281.693 538.778 282.854 519.095 287.213 503.145C290.493 486.953 295.87 473.923 302.508 458.99L302.469 449.477Z"/><path fill="#7A99C2" transform="scale(0.488281 0.488281)" d="M382.067 545.931L386.411 546.035L387.262 546.859C386.829 547.652 386.381 548.437 385.917 549.212L386.932 551.004C384.846 551.558 383.37 551.599 382.21 553.105C382.289 554.955 382.354 555.267 382.758 557.091C384.729 564.561 392.516 570.374 399.237 573.523L399.995 573.884L400.452 574.094C410.418 576.017 418.058 575.192 427.916 573.21C424.988 577.414 421.574 588.411 421.665 593.399L420.547 594.284C420.224 597.426 418.878 601.971 418.062 605.075C413.225 623.473 408.294 640.215 410.148 659.542C411.969 678.518 414.681 697.688 416.71 716.671C416.995 719.437 418.803 737.932 419.452 738.801C415.465 741.67 407.069 745.893 402.22 745.706C386.193 745.087 363.472 725.974 357.31 712.178C356.275 708.307 356.992 704.102 355.379 701.561C355.562 693.255 355.758 685.735 355.058 677.45C354.418 669.863 352.182 655.679 352.106 648.713C351.921 631.65 355.089 574.515 362.825 561.341C364.944 555.892 366.045 556.682 365.294 550.357L365.588 549.82L366.016 549.793C366.05 551.581 365.833 551.816 366.577 553.323L367.282 553.104C370.036 549.219 377.585 547.234 382.067 545.931Z"/><path fill="#67DADA" transform="scale(0.488281 0.488281)" d="M382.067 545.931L386.411 546.035L387.262 546.859C386.829 547.652 386.381 548.437 385.917 549.212L386.932 551.004C384.846 551.558 383.37 551.599 382.21 553.105C382.289 554.955 382.354 555.267 382.758 557.091C384.729 564.561 392.516 570.374 399.237 573.523L399.995 573.884L400.452 574.094C410.418 576.017 418.058 575.192 427.916 573.21C424.988 577.414 421.574 588.411 421.665 593.399L420.547 594.284C417.338 591.961 413.461 592.954 409.534 592.694C402.736 592.245 395.22 591.019 389.272 587.559C384.222 584.632 379.723 580.843 375.982 576.362C373.076 572.811 370.123 568.733 368.331 564.525C367.639 562.901 367.849 562.695 366.688 562.003L365.072 562.431C365.273 561.455 365.471 561.218 365.948 560.336L365.591 559.529L364.844 559.262L363.568 561.389L362.825 561.341C364.944 555.892 366.045 556.682 365.294 550.357L365.588 549.82L366.016 549.793C366.05 551.581 365.833 551.816 366.577 553.323L367.282 553.104C370.036 549.219 377.585 547.234 382.067 545.931Z"/><path fill="#67DADA" transform="scale(0.488281 0.488281)" d="M585.595 584.134C578.807 579.587 572.956 570.472 570.147 562.941C565.695 550.634 566.35 537.057 571.965 525.236C595.316 475.752 668.511 498.138 661.662 551.737C661.379 553.952 660.818 556.73 661.711 558.726C660.884 560.331 660.733 560.895 659.298 562.03C653.494 575.002 645.647 584.064 632.188 589.405C626.672 591.594 611.818 594.48 606.431 591.771C605.442 592.461 605.185 592.598 604.314 593.415C602.951 592.39 600.606 591.855 598.884 591.189C593.181 588.983 590.281 588.006 585.595 584.134Z"/><defs><linearGradient id="gradient_1" gradientUnits="userSpaceOnUse" x1="615.32593" y1="545.67743" x2="611.08398" y2="517.6095"><stop offset="0" stop-color="#A61080"/><stop offset="1" stop-color="#C270B6"/></linearGradient></defs><path fill="url(#gradient_1)" transform="scale(0.488281 0.488281)" d="M589.811 529.453C590.479 528.475 591.109 527.691 591.867 526.784C597.248 520.404 604.958 516.444 613.277 515.785C621.003 515.152 628.663 517.621 634.565 522.647L637.288 525.025C636.632 533.108 643.377 537.648 639.144 545.725L637.413 546.631C633.681 547.112 629.782 547.544 626.111 548.299C609.761 552.006 600.994 544.373 591.249 546.811L589.685 547.166C587.12 544.008 590.706 538.389 588.006 532.777L589.811 529.453Z"/><path fill="#861D6E" transform="scale(0.488281 0.488281)" d="M608.538 545.786C610.036 545.857 613.168 546.173 614.51 546.008C620.678 545.252 627.676 542.909 631.901 538.174C632.851 537.11 635.687 532.979 635.569 531.638C633.283 528.983 633.387 525.872 634.565 522.647L637.288 525.025C636.632 533.108 643.377 537.648 639.144 545.725L637.413 546.631C633.681 547.112 629.782 547.544 626.111 548.299C609.761 552.006 600.994 544.373 591.249 546.811L589.685 547.166C587.12 544.008 590.706 538.389 588.006 532.777L589.811 529.453C590.472 534.018 592.447 535.44 592.611 539.525L593.648 540.637C598.357 542.367 604.222 543.808 608.538 545.786Z"/><defs><linearGradient id="gradient_2" gradientUnits="userSpaceOnUse" x1="615.36737" y1="571.33942" x2="618.88892" y2="549.85132"><stop offset="0" stop-color="#8A8EBF"/><stop offset="1" stop-color="#C5C6E0"/></linearGradient></defs><path fill="url(#gradient_2)" transform="scale(0.488281 0.488281)" d="M591.249 546.811C600.994 544.373 609.761 552.006 626.111 548.299C630 549.212 629.6 550.852 632.224 551.316C635.025 552.173 640.311 553.273 641.646 555.624C643.07 558.128 642.099 559.15 642.289 561.478C639.056 566.818 631.471 572.172 625.652 574.195C619.094 571.674 602.103 566.314 597.891 561.995C592.555 558.017 592.274 550.651 589.782 548.668L591.249 546.811Z"/><path fill="#9991C8" transform="scale(0.488281 0.488281)" d="M591.249 546.811C600.994 544.373 609.761 552.006 626.111 548.299C630 549.212 629.6 550.852 632.224 551.316C625.351 552.067 622.992 552.97 615.706 552.886C609.677 552.817 597.516 548.277 594.231 550.176C594.276 553.566 597.012 558.718 597.891 561.995C592.555 558.017 592.274 550.651 589.782 548.668L591.249 546.811Z"/><path fill="#7A99C2" transform="scale(0.488281 0.488281)" d="M589.782 548.668C592.274 550.651 592.555 558.017 597.891 561.995C602.103 566.314 619.094 571.674 625.652 574.195C616.308 576.244 607.14 572.625 601.381 573.333C600.431 574.399 600.386 574.529 599.214 575.304C597.995 574.653 597.04 572.363 596.226 570.92C595.347 567.852 591.048 562.842 591.39 559.986L589.714 558.279L589.138 558.899C588.36 556.839 588.2 554.115 587.941 551.871C588.333 550.711 588.745 550.064 589.317 548.989L589.782 548.668Z"/><path fill="#7A99C2" transform="scale(0.488281 0.488281)" d="M637.413 546.631C639.619 546.404 641.829 546.219 644.042 546.077L643.587 547.314L644.369 548.489C642.349 549.39 641.756 548.845 639.656 550.038L639.906 550.766C641.893 551.713 643.529 552.231 644.866 553.921C645.757 556.681 644.018 559.358 642.289 561.478C642.099 559.15 643.07 558.128 641.646 555.624C640.311 553.273 635.025 552.173 632.224 551.316C629.6 550.852 630 549.212 626.111 548.299C629.782 547.544 633.681 547.112 637.413 546.631Z"/><path fill="#5CB9CB" transform="scale(0.488281 0.488281)" d="M595.738 573.834C598.963 577.238 602.474 586.101 603.245 590.782C603.889 590.141 604.088 586.619 604.253 585.296C604.668 587.041 606.437 590.701 606.431 591.771C605.442 592.461 605.185 592.598 604.314 593.415C602.951 592.39 600.606 591.855 598.884 591.189C593.181 588.983 590.281 588.006 585.595 584.134C587.408 584.262 592.121 587.209 594.187 588.325C600.682 581.762 599.965 582.054 595.738 573.834Z"/><path fill="#661560" transform="scale(0.488281 0.488281)" d="M637.288 525.025C641.08 529.525 646.76 539.544 645.257 545.391C644.915 545.598 644.39 545.955 644.042 546.077C641.829 546.219 639.619 546.404 637.413 546.631L639.144 545.725C643.377 537.648 636.632 533.108 637.288 525.025Z"/><path fill="#5CB9CB" transform="scale(0.488281 0.488281)" d="M585.136 551.042L587.941 551.871C588.2 554.115 588.36 556.839 589.138 558.899L589.714 558.279L591.39 559.986C591.048 562.842 595.347 567.852 596.226 570.92C595.304 572.735 595.468 571.798 595.738 573.834C592.127 570.211 586.247 560.438 584.932 555.31L585.594 554.668L585.136 551.042Z"/><path fill="#413478" transform="scale(0.488281 0.488281)" d="M585.136 551.042L587.941 551.871C588.2 554.115 588.36 556.839 589.138 558.899C589.761 561.134 590.322 560.576 589.627 562.284L590.233 563.248L589.8 563.265C587.634 559.761 587.206 558.528 585.594 554.668L585.136 551.042Z"/><path fill="#661560" transform="scale(0.488281 0.488281)" d="M585.136 551.042C584.644 543.649 585.05 539.506 588.006 532.777C590.706 538.389 587.12 544.008 589.685 547.166L591.249 546.811L589.782 548.668L589.317 548.989C588.745 550.064 588.333 550.711 587.941 551.871L585.136 551.042Z"/><path fill="#7A99C2" transform="scale(0.488281 0.488281)" d="M659.298 562.03C663.724 566.139 663.717 569.593 666.501 574.529L667.336 574.017C671.144 591.697 676.175 647.499 673.037 665.026L673.193 667.806C672.614 673.149 666.316 679.096 662.405 682.674C646.83 691.8 630.246 714.412 612.967 692.685C612.559 692.171 611.874 690.065 611.637 689.356C612.034 687.299 612.314 684.885 612.612 682.784C612.68 678.259 613.843 671.081 614.522 666.599C617.608 646.242 614.691 627.35 608.222 607.952C607.149 604.735 604.575 596.678 604.314 593.415C605.185 592.598 605.442 592.461 606.431 591.771C611.818 594.48 626.672 591.594 632.188 589.405C645.647 584.064 653.494 575.002 659.298 562.03Z"/><path fill="#67DADA" transform="scale(0.488281 0.488281)" d="M612.612 682.784C614.329 684.407 613.775 685.411 615.356 686.995C618.656 686.095 625.491 681.325 628.874 679.432C638.519 674.032 647.26 670.284 658.219 668.595C660.681 668.215 667.346 667.296 669.428 666.318C670.066 665.139 670.098 665.01 670.98 664.023C671.064 665.304 670.915 665.437 670.633 666.754L671.582 666.879C673.244 665.079 671.658 663.974 672.701 661.748L673.037 665.026L673.193 667.806C672.614 673.149 666.316 679.096 662.405 682.674C646.83 691.8 630.246 714.412 612.967 692.685C612.559 692.171 611.874 690.065 611.637 689.356C612.034 687.299 612.314 684.885 612.612 682.784Z"/><defs><linearGradient id="gradient_3" gradientUnits="userSpaceOnUse" x1="402.03229" y1="587.13147" x2="423.35098" y2="499.69513"><stop offset="0" stop-color="#41C9C8"/><stop offset="1" stop-color="#87EFE6"/></linearGradient></defs><path fill="url(#gradient_3)" transform="scale(0.488281 0.488281)" d="M365.294 550.357C363.879 544.758 366.136 533.624 368.293 528.168C373.015 516.248 382.297 506.705 394.081 501.653C403.739 497.501 415.853 495.786 425.818 499.81C430.972 501.154 442.341 506.348 445.065 511.041C463.287 526.655 464.239 559.454 448.658 577.203C446.635 579.507 444.505 581.379 442.437 583.566C435.698 588.612 429.956 591.415 421.665 593.399C421.574 588.411 424.988 577.414 427.916 573.21C418.058 575.192 410.418 576.017 400.452 574.094L399.995 573.884L399.237 573.523C392.516 570.374 384.729 564.561 382.758 557.091C382.354 555.267 382.289 554.955 382.21 553.105C383.37 551.599 384.846 551.558 386.932 551.004L385.917 549.212C386.381 548.437 386.829 547.652 387.262 546.859L386.411 546.035L382.067 545.931C377.585 547.234 370.036 549.219 367.282 553.104L366.577 553.323C365.833 551.816 366.05 551.581 366.016 549.793L365.588 549.82L365.294 550.357Z"/><path fill="#861D6E" transform="scale(0.488281 0.488281)" d="M395.233 521.042C407.15 512.046 426.367 514.845 435.357 526.801C435.717 527.281 436.473 528.295 436.718 528.84C445.862 543.335 443.701 556.072 432.796 568.686C434.129 565.631 435.571 562.457 436.822 559.383L436.222 558.467C433.589 561.33 430.488 569.894 427.916 573.21C418.058 575.192 410.418 576.017 400.452 574.094L399.995 573.884L399.237 573.523C392.516 570.374 384.729 564.561 382.758 557.091C382.354 555.267 382.289 554.955 382.21 553.105C383.37 551.599 384.846 551.558 386.932 551.004L385.917 549.212C386.381 548.437 386.829 547.652 387.262 546.859L386.411 546.035L382.067 545.931C381.733 535.404 386.877 527.018 395.233 521.042Z"/><defs><linearGradient id="gradient_4" gradientUnits="userSpaceOnUse" x1="409.83282" y1="571.34613" x2="407.22348" y2="550.24146"><stop offset="0" stop-color="#848ABB"/><stop offset="1" stop-color="#C9C7E2"/></linearGradient></defs><path fill="url(#gradient_4)" transform="scale(0.488281 0.488281)" d="M423.954 550.273C429.636 548.709 432.789 546.955 432.919 554.634C435.421 553.065 435.963 553.724 437.429 551.567C438.186 554.612 437.937 556.452 436.822 559.383L436.222 558.467C433.589 561.33 430.488 569.894 427.916 573.21C418.058 575.192 410.418 576.017 400.452 574.094L399.995 573.884L399.237 573.523C392.516 570.374 384.729 564.561 382.758 557.091C382.354 555.267 382.289 554.955 382.21 553.105C383.37 551.599 384.846 551.558 386.932 551.004C389.22 550.485 391.707 549.612 393.734 550.695L393.048 551.288C400.479 552.33 405.961 553.499 413.444 552.668C417.098 551.736 420.253 550.964 423.954 550.273Z"/><path fill="#7A99C2" transform="scale(0.488281 0.488281)" d="M437.429 551.567C438.186 554.612 437.937 556.452 436.822 559.383L436.222 558.467C433.589 561.33 430.488 569.894 427.916 573.21C418.058 575.192 410.418 576.017 400.452 574.094C410.945 568.67 428.867 567.677 432.919 554.634C435.421 553.065 435.963 553.724 437.429 551.567Z"/><path fill="#7A99C2" transform="scale(0.488281 0.488281)" d="M386.932 551.004C389.22 550.485 391.707 549.612 393.734 550.695L393.048 551.288C388.03 552.967 386.346 553.148 382.758 557.091C382.354 555.267 382.289 554.955 382.21 553.105C383.37 551.599 384.846 551.558 386.932 551.004Z"/><path fill="#D4C0CD" transform="scale(0.488281 0.488281)" d="M413.444 552.668C417.098 551.736 420.253 550.964 423.954 550.273L424.1 551.162C422.034 553.718 416.648 556.453 413.296 555.495L413.318 555.158L416.169 554.612L416.292 554.179C415.032 553.324 414.587 553.452 413.444 552.668Z"/><defs><linearGradient id="gradient_5" gradientUnits="userSpaceOnUse" x1="411.76859" y1="542.13788" x2="418.79813" y2="518.23499"><stop offset="0" stop-color="#AA1A87"/><stop offset="1" stop-color="#BE6BAF"/></linearGradient></defs><path fill="url(#gradient_5)" transform="scale(0.488281 0.488281)" d="M395.233 521.042C407.15 512.046 426.367 514.845 435.357 526.801C435.717 527.281 436.473 528.295 436.718 528.84C436.614 529.825 434.894 538.525 434.417 538.746C418.502 546.137 409.695 543.987 397.384 531.9C393.807 528.389 395.034 525.816 395.233 521.042Z"/><defs><linearGradient id="gradient_6" gradientUnits="userSpaceOnUse" x1="411.78897" y1="542.65631" x2="415.10806" y2="556.90167"><stop offset="0" stop-color="#9488C9"/><stop offset="1" stop-color="#A5A5D1"/></linearGradient></defs><path fill="url(#gradient_6)" transform="scale(0.488281 0.488281)" d="M386.411 546.035C394.812 546.932 401.962 549.031 410.485 549.173C420.638 549.344 431.381 540.575 437.429 551.567C435.963 553.724 435.421 553.065 432.919 554.634C432.789 546.955 429.636 548.709 423.954 550.273C420.253 550.964 417.098 551.736 413.444 552.668C405.961 553.499 400.479 552.33 393.048 551.288L393.734 550.695C391.707 549.612 389.22 550.485 386.932 551.004L385.917 549.212C386.381 548.437 386.829 547.652 387.262 546.859L386.411 546.035Z"/><path fill="#67DADA" transform="scale(0.488281 0.488281)" d="M425.818 499.81C430.972 501.154 442.341 506.348 445.065 511.041L444.447 511.263C442.795 510.825 442.466 509.464 440.259 507.995L440.836 509.648C437.062 509.342 429.63 502.546 426.621 500.382L425.818 499.81Z"/><path fill="#D9D9D8" transform="scale(0.488281 0.488281)" d="M302.469 449.477C304.247 445.793 306.537 440.629 308.262 436.799C308.35 436.603 309.652 435.896 309.861 435.845C312.881 435.107 313.654 428.868 314.726 427.227C317.073 425.157 320.447 423.666 321.654 420.634C321.916 419.977 322.65 416.065 322.62 416.101C331.579 405.233 341.932 393.321 354.359 386.385C355.533 385.73 355.385 383.127 356.693 381.829C356.818 382.455 356.961 383.04 357.162 383.648C362.853 379.05 362.427 376.394 369.431 372.88C370.353 371.356 371.281 369.028 372.438 368.323L374.685 368.855C372.46 369.3 373.333 368.792 371.813 370.125L371.607 371.628C375.609 369.891 379.648 367.556 383.726 365.67C384.382 363.924 384.573 362.361 386.393 361.737C388.82 360.905 396.996 357.148 398.792 357.377L399.354 358.22C402.447 354.646 424.478 346.901 430.338 345.313C432.256 344.793 435.183 344.941 437.195 344.727C448.336 338.264 461.196 338.57 473.912 337.152C512.128 332.891 551.612 332.885 588.986 343.027C589.63 343.325 594.805 343.657 595.036 343.908C597.906 347.021 604.563 346.086 607.257 347.488C612.994 350.474 621.372 351.594 626.688 353.946C632.23 356.398 644.105 361.602 648.605 365.176L648.789 365.869C646.185 365.62 646.121 364.139 643.453 364.439L643.469 364.737C646.066 365.316 645.532 367.696 649.173 366.988C652.205 366.399 652.817 369.756 654.344 370.729C656.298 371.974 656.267 371.613 658.112 373.491L658.951 373.712L659.386 373.092C656.712 370.781 655.862 369.934 653.624 367.207L653.699 367.011L654.275 367.551C657.611 370.651 659.047 371.013 663.234 372.873L661.393 373.125C662.223 374.377 669.042 379.275 670.427 379.729C669.958 378.054 669.419 377.803 668.2 376.391C675.279 379.528 683.816 393.688 683.794 393.684L683.826 391.342C686.163 393.29 689.62 399.58 691.171 400.684C697.907 405.477 703.975 410.194 709.535 416.479C711.43 418.62 710.195 423.265 715.529 425.358C715.887 425.499 718.607 430.746 719.282 431.219C725.695 439.414 731.121 445.542 732.803 456.242C733.49 460.611 738.179 468.362 739.42 472.201C741.893 479.847 748.535 495.694 748.549 503.122C746.907 500.791 747.731 499.512 746.295 496.834C743.342 491.326 742.726 484.23 740.76 478.53C736.963 467.515 732.071 459.003 726.671 448.958C727.725 453.272 729.03 455.689 729.215 460.098C733.001 468.796 738.709 481.642 740.611 490.754C738.304 488.717 736.173 477.828 734.566 474.218C726.011 455.006 716.795 437.158 702.921 420.958L702 421.083C693.417 411.61 683.458 400.863 673.276 393.149C662.393 385.582 650.985 376.702 639.278 370.539C630.747 366.048 619.703 363.21 610.618 359.176C592.057 350.934 571.432 350.211 552.116 345.611L552.086 345.366C554.226 345.506 555.029 345.665 557.088 345.236L557.221 344.403L555.968 343.153C451.566 330.884 352.063 359.855 302.508 458.99L302.469 449.477Z"/><path fill="#661560" transform="scale(0.488281 0.488281)" d="M555.968 343.153C618.793 352.204 668.879 374.12 708.205 426.007C711.88 430.856 715.185 435.949 718.708 440.895C721.376 442.549 726.004 445.923 726.671 448.958C727.725 453.272 729.03 455.689 729.215 460.098C733.001 468.796 738.709 481.642 740.611 490.754C738.304 488.717 736.173 477.828 734.566 474.218C726.011 455.006 716.795 437.158 702.921 420.958L702 421.083C693.417 411.61 683.458 400.863 673.276 393.149C662.393 385.582 650.985 376.702 639.278 370.539C630.747 366.048 619.703 363.21 610.618 359.176C592.057 350.934 571.432 350.211 552.116 345.611L552.086 345.366C554.226 345.506 555.029 345.665 557.088 345.236L557.221 344.403L555.968 343.153Z"/><path fill="#E3C6DC" transform="scale(0.488281 0.488281)" d="M718.708 440.895C721.376 442.549 726.004 445.923 726.671 448.958C727.725 453.272 729.03 455.689 729.215 460.098C726.026 453.748 722.245 447.07 718.708 440.895Z"/><path fill="#861D6E" transform="scale(0.488281 0.488281)" d="M302.508 458.99C352.063 359.855 451.566 330.884 555.968 343.153L557.221 344.403L557.088 345.236C555.029 345.665 554.226 345.506 552.086 345.366L552.116 345.611C571.432 350.211 592.057 350.934 610.618 359.176C619.703 363.21 630.747 366.048 639.278 370.539C650.985 376.702 662.393 385.582 673.276 393.149C683.458 400.863 693.417 411.61 702 421.083L701.202 421.622L700.17 421.222C700.372 423.605 703.957 425.96 705.557 427.927C707.429 430.229 710.365 437.139 712.467 438.428C712.704 437.434 712.754 437.207 712.819 436.192C714.178 437.119 715.524 442.195 716.294 444.117C717.881 448.079 719.508 452.273 722.285 455.604C724.363 458.096 725.9 458.62 727.485 461.603L727.392 462.53L726.791 462.66C724.566 460.563 723.756 459.133 721.311 457.298L721.018 457.617C722.751 461.22 725.786 464.778 728.105 468.132C728.077 468.799 728.048 469.465 728.02 470.131C723.176 467.147 717.919 450.151 714.866 444.934C713.387 442.406 705.604 430.296 704.11 429.38L704.45 430.324C704.981 431.826 705.256 433.172 705.593 434.721L705.323 435.182C700.862 426.584 699.923 425.889 693.804 418.242C693.951 420.165 694.069 420.239 694.762 421.971L694.545 422.198C693.19 421.262 685.248 413.411 684.332 412.154L685.546 411.907L685.59 410.42C683.508 408.404 680.312 408.347 677.994 406.434C675.537 404.503 672.781 400.568 670.287 398.819C662.639 393.458 654.46 386.038 646.459 381.405C609.14 359.794 564.239 349.37 521.346 348.848C481.309 348.362 441.525 354.204 404.88 370.608C394.632 375.237 385.695 380.074 376.722 386.903C373.624 389.261 370.234 391.551 367.038 393.79C365.682 394.74 365.822 394.474 364.763 393.589C362.84 394.541 359.684 398.345 359.116 398.487C354.12 399.734 353.317 399.709 350.835 404.573C350.617 404.999 347.185 406.179 346.722 406.608C344.534 408.197 344.024 411.163 342.23 412.976C340.995 414.224 338.511 415.844 337.139 416.896C334.621 418.828 324.115 431.512 323.786 434.385L325.817 433.517C325.685 434.79 325.862 434.207 325.329 435.276L324.079 434.778C318.765 438.56 308.831 461.906 307.067 463.05C307.765 459.56 310.927 455.479 310.43 453.339C302.586 460.844 294.053 490.515 292.611 501.4L291.651 500.433C289.892 502.606 286.548 520.557 285.828 524.535C284.784 514.233 294.08 484.271 298.006 474.029C300.638 467.162 312.084 442.686 316.956 437.527L317.494 437.56C316.98 439.493 316.426 441.416 315.833 443.326L315.866 443.117L316.877 443.003C320.432 438.796 318.316 436.265 319.791 433.178C320.634 433.276 320.166 433.14 321.118 433.789C322.85 432.267 322.527 429.434 323.929 427.568C326.873 423.648 337.321 415.572 337.884 411.415C338.508 406.806 363.815 386.827 368.175 383.533C386.36 369.794 408.558 360.918 430.14 354.165C436.029 352.323 442.548 350.19 448.662 349.354C449.776 349.201 449.235 349.344 450.369 348.827C447.962 347.252 432.943 352.601 429.44 353.545C370.264 369.495 323.549 412.124 299.547 468.184C296.225 475.819 293.393 483.659 291.069 491.655C290.452 493.703 288.247 503.188 287.798 503.982L287.213 503.145C290.493 486.953 295.87 473.923 302.508 458.99Z"/><path fill="#661560" transform="scale(0.488281 0.488281)" d="M442.437 583.566C441.81 586.956 438.706 586.388 440.821 588.365C438.64 595.321 425.88 595.368 423.833 597.694C423.46 600.901 421.578 608.315 419.804 610.808L419.365 610.51C419.608 608.317 421.603 596.106 422.617 595.05C425.131 595.314 435.898 591.887 436.34 589.276C435.526 589.368 422.506 594.622 421.516 595.236C420.5 597.549 420.181 600.53 419.482 602.901C417.397 609.97 415.493 622.838 412.753 629.273L412.896 629.555L414.792 627.878L415.329 628.075C415.434 632.774 413.704 638.84 413.691 643.751C413.684 646.54 412.705 650.603 412.918 653.21C413.878 665.004 415.958 676.708 416.893 688.508C417.296 693.59 418.018 697.731 416.321 702.699C416.204 703.058 417.106 709.871 417.185 711.015L417.06 706.899L417.466 706.657C419.249 709.185 418.12 714.492 420.437 715.714C421.838 712.565 421.723 712.181 422.111 708.905C422.464 717.296 421.997 725.188 421.665 733.548C421.59 735.454 422.318 737.956 422.011 739.232L419.452 738.801C418.803 737.932 416.995 719.437 416.71 716.671C414.681 697.688 411.969 678.518 410.148 659.542C408.294 640.215 413.225 623.473 418.062 605.075C418.878 601.971 420.224 597.426 420.547 594.284L421.665 593.399C429.956 591.415 435.698 588.612 442.437 583.566Z"/><path fill="#D4C0CD" transform="scale(0.488281 0.488281)" d="M726.671 448.958C732.071 459.003 736.963 467.515 740.76 478.53C742.726 484.23 743.342 491.326 746.295 496.834C747.731 499.512 746.907 500.791 748.549 503.122C751.236 524.936 751.936 535.628 751.455 557.204C750.404 560.994 751.213 562.842 750.665 566.706C750.227 565.824 750.479 564.608 750.524 563.45L750.248 563.501C749.798 565.453 749.697 567.072 748.363 568.464C749.589 546.334 749.476 526.461 744.467 504.652C743.5 500.442 742.302 494.591 740.611 490.754C738.709 481.642 733.001 468.796 729.215 460.098C729.03 455.689 727.725 453.272 726.671 448.958Z"/><path fill="#5CB9CB" transform="scale(0.488281 0.488281)" d="M661.711 558.726C664.144 561.726 666.459 570.128 667.336 574.017L666.501 574.529C663.717 569.593 663.724 566.139 659.298 562.03C660.733 560.895 660.884 560.331 661.711 558.726Z"/><defs><linearGradient id="gradient_7" gradientUnits="userSpaceOnUse" x1="516.92322" y1="484.3302" x2="522.37494" y2="353.51553"><stop offset="0" stop-color="#BA35A1"/><stop offset="1" stop-color="#CC7BBB"/></linearGradient></defs><path fill="url(#gradient_7)" transform="scale(0.488281 0.488281)" d="M509.944 351.245C557.26 349.866 613.263 360.278 651.876 389.078C656.495 388.726 655.337 392.326 659.622 394.297L660.009 393.51C663.559 394.29 675.641 408.224 677.856 411.805C695.543 440.412 661.508 460.422 640.679 472.374C636.375 474.844 632.712 475.07 628.702 477.823C625.802 477.825 593.857 483.654 592.234 484.396C590.024 485.407 586.667 484.196 584.402 483.456C581.789 482.602 579.711 484.138 577.083 484.038C575.144 483.964 572.98 483.447 571.058 483.11C567.656 482.512 564.495 484.238 561.075 484.253C554.872 484.28 548.604 483.67 542.409 483.342C540.3 483.23 538.192 483.476 536.103 483.315C529.739 482.586 511.367 486.672 506.848 483.515C506.094 482.988 505.581 482.555 504.688 482.266C503.873 482.004 502.923 482.858 502.207 483.269C494.549 481.778 486.333 478.206 479.034 477.092C472.462 476.089 464.953 475.784 458.225 473.993C455.712 473.324 449.833 474.067 447.361 473.257C440.01 470.849 434.246 470.053 426.508 470.031C416.125 467.741 403.669 464.983 394.15 460.035C387.287 456.468 379.077 448.574 372.548 444.086C369.587 442.611 366.283 435.374 364.681 433.863C344.908 415.202 364.556 399.604 379.497 387.333C382.52 384.85 390.495 381.599 394.529 379.478C410.563 371.049 428.148 364.269 445.541 359.192C464.499 354.531 490.32 351.45 509.944 351.245Z"/><path fill="#67DADA" transform="scale(0.488281 0.488281)" d="M506.551 617.705C528.337 616.85 550.206 621.633 567.368 635.912C574.808 642.101 592.555 659.675 584.125 670.735C582.707 672.686 576.554 674.091 574.549 673.549C569.346 672.142 565.253 662.02 562.123 658.02C551.181 644.039 536.488 638.894 519.589 636.548C497.716 635.738 476.438 640.12 462.23 658.551C460.356 661.569 458.099 664.832 456.461 667.979C451.659 677.212 439.862 674.784 438.513 664.852C437.647 658.475 443.594 650.552 447.77 645.583C463.016 627.44 483.589 619.473 506.551 617.705Z"/><path fill="#EEEEED" transform="scale(0.488281 0.488281)" d="M348.002 700C345.064 696.116 334.195 687.378 330.532 682.775C328.139 680.1 326.192 676.757 323.881 674.052C300.756 646.981 285.306 610.819 280.608 575.582C280.276 573.093 280.205 563.752 279.671 562.41C278.93 564.471 279.349 568.71 279.514 571.127C280.978 592.604 287.044 608.925 294.644 628.685L293.68 627.625L293.539 631.257L294.627 632.229C294.807 633.776 294.857 633.676 294.231 635.089L293.296 635.192C291.375 634.112 289.757 632.057 288.225 630.383C287.204 630.665 287.479 630.644 286.421 630.675C286.342 629.74 286.27 629.154 285.815 628.333C283.673 624.474 286.098 617.845 284.402 614.709C283.702 613.416 284.213 614.694 283.795 613.625C281.142 606.838 277.395 606.931 274.937 602.472C273.45 599.778 272.943 593.923 271.448 591.875C269.521 589.236 266.14 587.661 264.228 584.743C256.889 573.541 253.299 534.403 251.53 519.685C249.948 519.678 250.323 519.965 249.261 519.318C250.095 516.149 250.714 513.555 250.914 510.272C251.113 507.006 250.5 507.015 248.805 504.485C249.948 503.393 250.157 503.426 250.554 501.952C248.231 495.952 247.334 482.397 247.359 475.868C247.407 463.331 248.916 450.024 251.676 437.793C252.404 434.571 252.75 429.036 253.726 426.036C260.708 404.592 270.788 381.045 282.79 361.994C286.452 356.815 290.839 351.92 294.811 346.995C309.105 329.239 325.065 313.017 342.128 297.923C343.927 296.591 345.984 294.859 347.869 293.712C371.791 279.169 394.78 262.11 422.406 255.214C428.773 252.567 434.822 249.75 441.433 247.701C447.327 245.873 454.074 246.253 459.82 244.955C469.924 242.673 480.056 240.863 490.36 239.741C492.926 239.677 495.469 240.337 498.041 240.241C513.771 239.653 531.023 237.132 546.267 241.675C548.557 242.437 552.226 241.415 554.36 241.793C564.042 243.506 574.517 243.937 584.055 246.26C589.763 247.65 596.162 250.664 601.952 252.352C627.621 259.832 652.714 270.654 675.734 284.244C681.511 287.656 687.554 290.465 692.975 294.48C707.54 304.151 716.445 316.212 727.644 328.769C737.12 339.394 746.129 343.391 753.654 357.716C758.778 367.469 769.191 378.011 773.529 388.785C776.049 395.043 777.42 400.99 779.208 407.44C789.693 435.699 794.179 464.918 789.12 494.804C788.532 498.287 787.6 501.952 790.208 504.537L789.794 505.32C788.694 505.617 788.954 505.375 788.213 506.059C787.062 514.212 786.375 512.451 788.954 519.44C787.842 520.548 787.912 520.188 785.915 520.38C783.306 523.458 776.85 539.577 775.363 543.87C775.021 544.858 766.619 552.943 766.474 552.99C764.509 550.746 765.437 543.421 762.741 542.708C752.254 547.668 759.104 554.178 759.598 561.644C759.965 567.182 757.223 576.935 753.411 581.017C752.315 580.623 751.994 579.277 751.266 577.889C749.452 578.694 749.851 589.515 749.07 592.163C748.068 595.562 748.266 595.705 746.264 598.884C746.007 597.614 748.364 593.128 748.624 590.738C749.841 579.572 752.071 568.458 751.455 557.204C751.936 535.628 751.236 524.936 748.549 503.122C748.535 495.694 741.893 479.847 739.42 472.201C738.179 468.362 733.49 460.611 732.803 456.242C731.121 445.542 725.695 439.414 719.282 431.219C718.607 430.746 715.887 425.499 715.529 425.358C710.195 423.265 711.43 418.62 709.535 416.479C703.975 410.194 697.907 405.477 691.171 400.684C689.62 399.58 686.163 393.29 683.826 391.342L683.794 393.684C683.816 393.688 675.279 379.528 668.2 376.391C669.419 377.803 669.958 378.054 670.427 379.729C669.042 379.275 662.223 374.377 661.393 373.125L663.234 372.873C659.047 371.013 657.611 370.651 654.275 367.551L653.699 367.011L653.624 367.207C655.862 369.934 656.712 370.781 659.386 373.092L658.951 373.712L658.112 373.491C656.267 371.613 656.298 371.974 654.344 370.729C652.817 369.756 652.205 366.399 649.173 366.988C645.532 367.696 646.066 365.316 643.469 364.737L643.453 364.439C646.121 364.139 646.185 365.62 648.789 365.869L648.605 365.176C644.105 361.602 632.23 356.398 626.688 353.946C621.372 351.594 612.994 350.474 607.257 347.488C604.563 346.086 597.906 347.021 595.036 343.908C594.805 343.657 589.63 343.325 588.986 343.027C551.612 332.885 512.128 332.891 473.912 337.152C461.196 338.57 448.336 338.264 437.195 344.727C435.183 344.941 432.256 344.793 430.338 345.313C424.478 346.901 402.447 354.646 399.354 358.22L398.792 357.377C396.996 357.148 388.82 360.905 386.393 361.737C384.573 362.361 384.382 363.924 383.726 365.67C379.648 367.556 375.609 369.891 371.607 371.628L371.813 370.125C373.333 368.792 372.46 369.3 374.685 368.855L372.438 368.323C371.281 369.028 370.353 371.356 369.431 372.88C362.427 376.394 362.853 379.05 357.162 383.648C356.961 383.04 356.818 382.455 356.693 381.829C355.385 383.127 355.533 385.73 354.359 386.385C341.932 393.321 331.579 405.233 322.62 416.101C322.65 416.065 321.916 419.977 321.654 420.634C320.447 423.666 317.073 425.157 314.726 427.227C313.654 428.868 312.881 435.107 309.861 435.845C309.652 435.896 308.35 436.603 308.262 436.799C306.537 440.629 304.247 445.793 302.469 449.477L302.508 458.99C295.87 473.923 290.493 486.953 287.213 503.145C282.854 519.095 281.693 538.778 281.828 555.361C283.43 601.219 298.94 637.182 326.585 673.146C328.229 680.013 347.611 696.619 353.838 701.776C354.362 702.21 354.381 702.714 354.263 703.237C351.469 702.419 350.101 700.829 348.002 700Z"/><path fill="#D4C0CD" transform="scale(0.488281 0.488281)" d="M281.828 555.361L281.523 555.015C278.725 541.998 283.401 517.635 285.701 504.3C285.925 503.002 287.494 501.827 286.374 499.663C285.733 502.354 283.62 504.54 282.72 508.553C280.435 518.648 279.565 529.099 279.672 539.441C279.682 540.396 279.294 547.541 279.174 547.834C278.312 523.272 282.274 498.78 290.836 475.743C293.641 468.023 297.4 461.971 299.629 453.684C300.803 452.848 301.718 450.831 302.469 449.477L302.508 458.99C295.87 473.923 290.493 486.953 287.213 503.145C282.854 519.095 281.693 538.778 281.828 555.361Z"/><path fill="#EEEEED" transform="scale(0.488281 0.488281)" d="M673.193 667.806C681.734 669.025 693.5 671.825 700.412 677.33C704.379 682.302 710.54 686.135 714.658 690.387C728.547 704.726 742.706 718.877 756.44 733.351C758.59 735.616 770.405 747.244 771.51 749.205C783.207 760.009 825.641 799.439 827.81 812.466L827.574 813.045L827.22 813.181L826.023 810.512C825.669 811.34 825.477 812.402 824.787 813.018C819.709 817.55 818.495 823.726 813.827 828.658C810.11 832.665 803.003 838.568 797.506 839.102C793.971 839.446 794.952 840.195 792.95 840.749C778.978 844.618 768.913 827.221 758.477 821.597C757.911 821.292 756.935 821.098 755.982 820.55L755.017 818.885C751.375 812.575 746.452 814.03 740.672 809.801C738.206 807.996 736.559 803.216 734.491 801.416C733.817 801.504 733.143 801.588 732.468 801.666C725.303 802.482 719.831 792.89 713.41 788.942C707.894 785.549 700.458 787.641 697.465 784.052C696.796 779.946 695.631 781.089 692.148 778.726C691.031 775.423 692.828 778.975 693.25 775.683L689.18 774.569C686.794 770.113 688.36 769.133 682.8 766.512C679.278 764.852 677.962 762.697 677.189 758.965C675.751 759.071 676.255 759.15 674.897 758.771C673.759 755.791 673.469 753.016 672.741 749.952C672.317 748.166 669.926 748.332 669.224 746.808C664.875 737.352 674.429 731.774 677.133 723.678C679.02 720.17 674.604 719.866 674.392 716.827C673.628 705.895 676.91 694.169 671.961 683.819C671.166 682.157 669.833 679.609 667.956 678.968C666.341 679.292 664.627 681.784 663.097 683.06L662.405 682.674C666.316 679.096 672.614 673.149 673.193 667.806Z"/><path fill="#575656" transform="scale(0.488281 0.488281)" d="M416.428 851.087C419.215 850.244 435.252 852.059 437.641 853.953C440.308 856.389 458.067 858.063 462.189 858.315C463.78 857.625 467.399 858.52 468.692 857.939C471.711 859.358 490.445 860.047 494.872 860.203C497.692 860.303 505.192 859.317 508.492 859.33C511.613 859.342 509.84 859.459 510.723 860.33C511.058 860.659 515.724 859.966 516.469 859.855L514.624 858.862C516.049 857.561 528.219 859.123 530.854 859.351C533.352 860.816 535.7 860.15 538.535 860.781L538.126 860.864L541.224 861.184L541.396 861.761C538.666 863.355 538.147 863.077 535.794 864.13C545.146 867.092 561.327 865.211 570.161 861.031C571.86 860.226 579.82 859.028 582.281 858.57C585.016 858.482 600.517 856.743 601.736 857.426C608.893 861.43 612.028 855.529 618.137 856.432C597.128 864.1 575.565 870.159 553.637 874.558C549.89 875.328 535.598 876.267 534.135 876.733C522.656 878.031 499.913 877.852 488.331 875.827C484.819 875.832 475.551 874.026 471.776 873.404C448.375 869.553 428.646 862.904 406.486 854.739C411.78 853.195 410.966 853.142 415.365 854.94L416.197 854.549C415.171 853.159 414.747 852.794 413.52 851.652C415.003 851.515 414.995 851.459 416.428 851.087Z"/><path fill="#8E8E8D" transform="scale(0.488281 0.488281)" d="M468.692 857.939C471.711 859.358 490.445 860.047 494.872 860.203C497.692 860.303 505.192 859.317 508.492 859.33C511.613 859.342 509.84 859.459 510.723 860.33C511.058 860.659 515.724 859.966 516.469 859.855L514.624 858.862C516.049 857.561 528.219 859.123 530.854 859.351C533.352 860.816 535.7 860.15 538.535 860.781L538.126 860.864L541.224 861.184L541.396 861.761C538.666 863.355 538.147 863.077 535.794 864.13C531.288 864.492 527.122 863.728 522.935 863.921C512.979 864.38 503.605 863.766 493.699 863.604C493.016 863.997 491.536 862.306 491.523 862.305C485.87 861.866 480.147 862.158 474.526 861.303C471.852 860.896 469.686 861.254 467.8 859.151L468.692 857.939Z"/><path fill="#11100F" transform="scale(0.488281 0.488281)" d="M488.331 875.827C490.267 874.242 506.982 874.589 510.293 874.757C517.078 875.102 527.165 873.97 533.552 874.918L534.135 876.733C522.656 878.031 499.913 877.852 488.331 875.827Z"/><path fill="#8E8E8D" transform="scale(0.488281 0.488281)" d="M437.641 853.953C440.308 856.389 458.067 858.063 462.189 858.315C462.546 858.741 462.322 858.431 462.68 859.352C458.881 861.131 437.368 857.911 434.711 854.899C435.501 853.953 436.019 854.203 437.641 853.953Z"/><defs><linearGradient id="gradient_8" gradientUnits="userSpaceOnUse" x1="602.51758" y1="860.0788" x2="597.12415" y2="839.64203"><stop offset="0" stop-color="#656464"/><stop offset="1" stop-color="#9FA09D"/></linearGradient></defs><path fill="url(#gradient_8)" transform="scale(0.488281 0.488281)" d="M530.854 859.351C546.969 859.364 558.465 856.374 573.966 853.312C582.964 851.535 592.145 849.961 600.914 847.209C606.196 845.552 611.184 842.407 616.25 840.579C620.999 838.865 627.436 838.446 632.483 836.315C640.052 833.119 647.244 828.05 654.525 824.139C655.561 824.118 656.421 824.101 657.105 824.087C655.521 821.742 643.371 809.674 640.695 806.897L641.095 806.459C646.721 810.357 662.01 828.321 668.308 834.136L668.758 834.545C652.047 842.656 635.829 850.66 618.137 856.432C612.028 855.529 608.893 861.43 601.736 857.426C600.517 856.743 585.016 858.482 582.281 858.57C579.82 859.028 571.86 860.226 570.161 861.031C561.327 865.211 545.146 867.092 535.794 864.13C538.147 863.077 538.666 863.355 541.396 861.761L541.224 861.184L538.126 860.864L538.535 860.781C535.7 860.15 533.352 860.816 530.854 859.351Z"/><defs><linearGradient id="gradient_9" gradientUnits="userSpaceOnUse" x1="825.0567" y1="455.05371" x2="830.52795" y2="413.65573"><stop offset="0" stop-color="#5C195A"/><stop offset="1" stop-color="#992A7D"/></linearGradient></defs><path fill="url(#gradient_9)" transform="scale(0.488281 0.488281)" d="M815.538 410.464C820.893 411.932 827.274 414.385 830.911 418.812C831.337 420.358 832.586 422.02 833.501 423.413C835.808 427.174 839.177 432.308 840.412 436.405C840.828 445.646 841.073 451.017 835.947 459.057C832.203 447.046 820.998 422.255 815.538 410.464Z"/><defs><linearGradient id="gradient_10" gradientUnits="userSpaceOnUse" x1="502.18884" y1="752.07996" x2="501.37952" y2="761.38037"><stop offset="0" stop-color="#EEE3E9"/><stop offset="1" stop-color="#E9ECE9"/></linearGradient></defs><path fill="url(#gradient_10)" transform="scale(0.488281 0.488281)" d="M468.447 750.697C489.56 753.515 510.882 754.453 532.161 753.497L532.077 754.09C531.032 754.391 531.471 754.105 530.769 754.962C532.799 756.015 534.237 755.421 535.557 756.619C531.716 763.568 496.236 764.316 490.006 758.756C487.353 756.388 479.721 759.132 476.991 756.609C474.845 754.627 475.202 753.999 471.791 754.028L470.803 754.041C469.098 753.144 469.155 752.92 468.211 751.269L468.447 750.697Z"/><path fill="#861D6E" transform="scale(0.488281 0.488281)" d="M210.578 417.343C213.512 413.84 217.9 412.135 222.003 410.538C222.081 411.013 222.158 411.487 222.236 411.961C216.883 422.07 207.645 448.365 202.594 457.085C199.378 450.511 198.297 443.404 199.667 436.191C201.645 430.978 204.744 426.51 207.465 421.631C208.814 420.033 209.445 419.108 210.578 417.343Z"/><defs><linearGradient id="gradient_11" gradientUnits="userSpaceOnUse" x1="400.84778" y1="852.69989" x2="401.66858" y2="847.41443"><stop offset="0" stop-color="#777677"/><stop offset="1" stop-color="#929292"/></linearGradient></defs><path fill="url(#gradient_11)" transform="scale(0.488281 0.488281)" d="M347.615 825.744C349.433 825.371 380.801 844.263 386.744 845.298C395.064 846.747 409.218 847.784 416.428 851.087C414.995 851.459 415.003 851.515 413.52 851.652C414.747 852.794 415.171 853.159 416.197 854.549L415.365 854.94C410.966 853.142 411.78 853.195 406.486 854.739C390.441 849.006 375.495 841.71 360.575 833.535C357.616 831.914 350.053 827.931 347.615 825.744Z"/><path fill="#E3C6DC" transform="scale(0.488281 0.488281)" d="M738.233 613.524C739.6 616.494 735.031 620.2 735.502 623.793C736.904 634.473 728.602 641.067 722.694 648.977C720.599 651.782 714.626 661.945 711.656 663.478C718.968 652.868 725.531 643.025 730.905 631.258C733.573 625.418 735.578 619.197 738.233 613.524Z"/><path fill="#EEEEED" transform="scale(0.488281 0.488281)" d="M532.161 753.497C547.374 752.673 558.263 751.294 573.118 748.738L573.817 749.334C565.666 751.739 554.743 751.88 546.282 753.687C545.53 753.848 544.269 756.145 541.892 756.755L541.264 756.264L541.134 754.017C540.24 753.631 533.827 754.088 532.077 754.09L532.161 753.497Z"/><path fill="#E3C6DC" transform="scale(0.488281 0.488281)" d="M604.828 698.558C604.625 702.718 602.721 710.386 599.032 712.774L598.87 712.612L597.115 714.064C598.504 709.263 601.845 702.565 604.828 698.558Z"/><path fill="#EEEEED" transform="scale(0.488281 0.488281)" d="M451.171 747.59C456.903 748.291 462.783 749.906 468.447 750.697L468.211 751.269C467.427 751.648 467.367 752.23 465.916 752.946C462.448 752.969 461.596 752.458 458.604 750.448C456.132 748.788 454.251 748.78 451.329 748.419L451.171 747.59Z"/><path fill="#EEEEED" transform="scale(0.488281 0.488281)" d="M621.125 731.048C625.538 732.069 625.951 734.847 624.545 738.796L623.469 739.189C619.709 737.779 619.727 734.199 621.125 731.048Z"/><path fill="#861D6E" transform="scale(0.488281 0.488281)" d="M143.049 401.294C131.623 409.996 116.467 409.197 105.838 399.637C99.8549 394.355 96.311 386.843 96.0395 378.867C95.3462 361.761 108.199 349.569 124.926 349.283C133.128 349.127 141.047 352.286 146.889 358.045C154.226 365.416 155.144 373.857 155.196 383.541C148.435 386.922 146.011 395.531 143.049 401.294Z"/><defs><linearGradient id="gradient_12" gradientUnits="userSpaceOnUse" x1="125.49218" y1="372.80252" x2="126.86613" y2="361.48376"><stop offset="0" stop-color="#BD4DA2"/><stop offset="1" stop-color="#D06FBA"/></linearGradient></defs><path fill="url(#gradient_12)" transform="scale(0.488281 0.488281)" d="M121.266 358.186C137.592 356.409 140.83 371.634 134.903 373.988L134.447 372.317C132.713 372.606 133.752 374.124 131.158 374.157L131.646 372.902L131.367 372.276L129.403 372.54L129.315 373.017L129.587 373.559L129.191 374.484C125.42 372.615 119.791 375.728 118.518 374.777C110.119 368.505 114.282 360.833 121.266 358.186Z"/><defs><linearGradient id="gradient_13" gradientUnits="userSpaceOnUse" x1="921.24152" y1="405.62009" x2="912.50238" y2="350.42047"><stop offset="0" stop-color="#70155C"/><stop offset="1" stop-color="#B3258F"/></linearGradient></defs><path fill="url(#gradient_13)" transform="scale(0.488281 0.488281)" d="M887.896 383.036C886.783 375.34 888.769 367.516 893.417 361.282C898.063 355 905.064 350.878 912.812 349.862C920.709 348.753 929.104 350.336 935.548 355.201C941.5 359.664 945.354 366.379 946.206 373.77C948.044 389.87 936.428 405.607 919.746 406.934C911.512 407.589 905.589 405.047 898.695 400.958C895.69 396.662 893.465 391.085 889.861 385.993L887.896 383.036Z"/><path fill="#C762B0" transform="scale(0.488281 0.488281)" d="M915.223 357.605C929.348 357.64 932.625 370.145 919.041 374.924C913.997 375.283 907.616 372.916 906.434 367.473C906.035 365.657 906.393 363.756 907.426 362.21C909.279 359.403 912.106 358.28 915.223 357.605Z"/><defs><linearGradient id="gradient_14" gradientUnits="userSpaceOnUse" x1="170.55917" y1="417.60416" x2="181.26025" y2="400.95255"><stop offset="0" stop-color="#CCCACB"/><stop offset="1" stop-color="white"/></linearGradient></defs><path fill="url(#gradient_14)" transform="scale(0.488281 0.488281)" d="M143.049 401.294C146.011 395.531 148.435 386.922 155.196 383.541C159.185 386.992 165.8 389.89 169.976 393.312C173.236 394.446 177.805 397.756 180.902 399.606C189.955 405.015 201.084 413.251 210.578 417.343C209.445 419.108 208.814 420.033 207.465 421.631C204.744 426.51 201.645 430.978 199.667 436.191C196.416 433.288 190.341 430.028 186.435 427.776C171.849 419.366 157.803 409.284 143.049 401.294Z"/><path fill="#EEEEED" transform="scale(0.488281 0.488281)" d="M169.976 393.312C173.236 394.446 177.805 397.756 180.902 399.606C189.955 405.015 201.084 413.251 210.578 417.343C209.445 419.108 208.814 420.033 207.465 421.631C207.291 421.541 207.118 421.45 206.944 421.36C201.166 421.105 180.206 409.296 179.668 404.114C180.37 403.156 180.721 402.653 181.309 401.625C180.457 400.294 172.083 395.513 170.015 394.229L169.976 393.312Z"/><defs><linearGradient id="gradient_15" gradientUnits="userSpaceOnUse" x1="869.46875" y1="417.88806" x2="859.35791" y2="401.87915"><stop offset="0" stop-color="#D0CECF"/><stop offset="1" stop-color="#FCFDFB"/></linearGradient></defs><path fill="url(#gradient_15)" transform="scale(0.488281 0.488281)" d="M887.896 383.036L889.861 385.993C893.465 391.085 895.69 396.662 898.695 400.958C878.77 412.474 860.038 424.473 840.412 436.405C839.177 432.308 835.808 427.174 833.501 423.413C832.586 422.02 831.337 420.358 830.911 418.812L887.896 383.036Z"/><path fill="#EEEEED" transform="scale(0.488281 0.488281)" d="M887.896 383.036L889.861 385.993C881.824 382.146 881.233 393.384 876.907 396.14C865.947 403.122 855.158 410.377 843.793 416.704C840.154 418.722 836.952 421.483 833.501 423.413C832.586 422.02 831.337 420.358 830.911 418.812L887.896 383.036Z"/></svg>