<?xml version="1.0" encoding="utf-8" ?><svg xmlns="http://www.w3.org/2000/svg" xmlns:xlink="http://www.w3.org/1999/xlink" width="1024" height="1024" viewBox="0 0 1024 1024"><path fill="#DADAD9" d="M222.911 411.096C223.32 408.324 229.301 397.343 231 394.387C250.126 361.294 274.84 331.764 304.047 307.108C338.933 277.281 387.063 252.312 431.62 241.521C465.164 233.396 508.085 229.875 542.34 232.492C569.299 234.578 595.948 239.613 621.811 247.504C694.312 270.36 761.717 320.686 801.302 385.941C803.885 390.215 806.382 394.54 808.79 398.915C810.74 402.537 812.798 407.728 815.47 410.67C821.477 412.264 826.296 414.404 830.717 418.967C832.828 422.423 836.057 427.357 837.866 430.826L840.255 435.159C840.496 445.193 842.283 449.437 835.654 458.64C835.188 463.005 841.656 487.146 842.942 493.636C844.962 503.757 846.431 513.98 847.342 524.261C848.186 533.106 847.935 542.331 847.864 551.244C847.299 624.234 820.125 694.511 771.439 748.894C775.42 754.262 780.243 758.236 784.778 762.774C796.092 774.095 822.471 797.964 827.841 812.053C842.435 838.937 825.138 872.092 799.615 884.596C779.255 894.57 756.331 899.473 733.912 893.031C712.175 886.509 694.256 863.296 679.603 847.026C677.009 844.146 670.634 836.166 667.973 834.497C664.591 835.757 659.423 838.584 655.984 840.284C647.433 844.51 639.624 848.426 630.632 851.757C624.545 854.582 615.699 857.491 609.251 859.661C559.347 876.183 505.945 879.125 454.528 868.186C423.55 861.998 393.651 851.286 365.791 836.394C360.009 833.339 351.773 828.963 346.51 825.172C344.725 824.636 334.541 817.668 332.723 816.451C303.839 797.112 272.05 767.265 251.474 739.176C220.924 697.949 200.7 650 192.498 599.347C186.522 560.483 187.548 520.508 196.311 482.353C198.203 474.118 201.666 464.574 202.75 456.356C198.877 449.07 198.929 443.352 199.755 435.378C201.739 431.149 206.16 424.168 208.715 419.895L210.798 417.359C214.628 413.795 217.626 411.874 222.911 411.096Z"/><defs><linearGradient id="gradient_0" gradientUnits="userSpaceOnUse" x1="517.94342" y1="752.68103" x2="512.91211" y2="375.93866"><stop offset="0" stop-color="#8A0C70"/><stop offset="1" stop-color="#BE34A6"/></linearGradient></defs><path fill="url(#gradient_0)" d="M451.719 346.312C483.314 340.524 513.625 338.661 545.701 342.104C552.845 342.201 576.309 345.987 583.146 348.185C576.175 348.834 569.512 348.677 563.148 345.561L562.339 346.392C563.391 347.983 566.903 349.125 568.671 349.262C585.921 350.598 600.832 355.206 616.737 361.799C626.931 366.024 638.058 368.95 647.583 375.166C655.46 379.935 658.267 385.31 667.013 389.687C678.559 394.13 694.678 413.045 702.205 423.709C702.248 423.837 702.292 423.965 702.335 424.094L703.718 424.268L704.075 423.775L704.983 423.708C716.025 435.643 732.311 466.555 737.177 482.482C737.681 484.133 738.353 487.744 739.635 488.716L739.961 488.673C740.733 490.71 741.429 492.565 742.113 494.637C743.498 501.518 745.512 508.873 746.595 515.687C748.717 529.702 749.467 543.89 748.834 558.05C748.553 563.703 747.803 568.982 747.484 574.405C741.067 615.764 727.772 645.291 700.547 677.251C684.595 667.579 665.406 664.78 647.356 669.491C628.223 674.448 606.255 689.109 599.329 708.392C593.615 718.545 593.763 731.975 595.005 743.166C591.377 744.3 580.011 746.616 577.656 747.77C575.543 748.081 573.347 748.633 571.217 749.005C494.581 762.396 407.77 750.221 348.612 696.25C308.64 659.781 284.477 611.072 281.906 557.286C281.855 549.551 281.641 537.61 282.988 530.324C283.551 496.546 302.576 452.927 322.211 426.119C332.452 412.135 344.202 400.371 357.063 388.821C387.574 365.705 412.375 355.51 449.61 346.873L451.719 346.312Z"/><path fill="#831F6D" d="M451.719 346.312C483.314 340.524 513.625 338.661 545.701 342.104C552.845 342.201 576.309 345.987 583.146 348.185C576.175 348.834 569.512 348.677 563.148 345.561L562.339 346.392C563.391 347.983 566.903 349.125 568.671 349.262C585.921 350.598 600.832 355.206 616.737 361.799C626.931 366.024 638.058 368.95 647.583 375.166C655.46 379.935 658.267 385.31 667.013 389.687C669.273 391.981 671.586 394.04 673.087 396.875C672.336 396.989 657.674 388.819 655.665 387.918C644.377 377.535 627.452 370.964 613.055 365.392C563.484 346.207 506.666 344.755 454.812 354.09C444.649 355.919 435.096 358.037 425.63 362.24C404.911 368.242 387.395 377.554 370.402 390.811C368.179 392.522 364.716 391.68 362.229 392.78C359.529 394.882 355.643 398.665 353.089 401.042C353.568 401.65 353.234 401.364 354.23 401.706L353.626 402.03C346.685 405.829 344.053 410.74 338.749 416.237C336.488 418.58 333.401 419.37 331.825 422.44C331.135 423.787 326.789 427.543 326.075 428.794C323.961 432.494 321.906 436.663 319.862 440.407C316.477 446.61 310.916 452.49 309.077 459.291C308.671 460.794 308.205 462.365 307.339 463.611C307.677 461.575 308.059 459.546 308.482 457.525L307.944 457.396C304.068 462.645 302.202 469.404 299.85 475.297C293.711 490.675 289.376 506.516 286.365 522.779C286.164 523.863 285.767 525.917 284.826 526.38L285.127 526.463L284.807 525.802L285.007 525.017C286.057 520.803 286.451 513.459 287.086 511.131C290.627 498.148 295.932 473.662 303.343 462.774C303.394 458.606 310.472 450.368 311.221 445.731L310.732 445.54C307.891 449.435 302.642 461.371 300.431 465.988C297.42 472.277 287.396 499.361 288.629 504.431C286.383 508.004 283.717 526.53 283.172 531.665L282.988 530.324C283.551 496.546 302.576 452.927 322.211 426.119C332.452 412.135 344.202 400.371 357.063 388.821C387.574 365.705 412.375 355.51 449.61 346.873L451.719 346.312Z"/><path fill="#75175E" d="M357.063 388.821C387.574 365.705 412.375 355.51 449.61 346.873L447.942 348.456L448.118 348.896C450.608 348.985 451.917 348.977 454.392 348.749L454.408 349.058C449.624 350.302 443.755 349.701 438.973 351.289C436.884 351.982 434.038 353.555 431.794 354.42C425.34 356.908 419.017 359.289 412.543 361.781C409.298 363.03 402.342 363.972 399.676 365.336C381.653 374.558 362.653 388.033 347.223 401.062C345.717 402.333 337.162 413.753 334.613 416.508C328.099 423.549 320.755 433.106 315.346 441.065C312.434 445.35 308.706 454.08 305.525 458.657C304.93 459.513 303.693 462.328 303.343 462.774C303.394 458.606 310.472 450.368 311.221 445.731L310.732 445.54C307.891 449.435 302.642 461.371 300.431 465.988C297.42 472.277 287.396 499.361 288.629 504.431C286.383 508.004 283.717 526.53 283.172 531.665L282.988 530.324C283.551 496.546 302.576 452.927 322.211 426.119C332.452 412.135 344.202 400.371 357.063 388.821Z"/><path fill="#75175E" d="M451.719 346.312C483.314 340.524 513.625 338.661 545.701 342.104C545.327 342.454 544.952 342.803 544.578 343.153C515.034 344.044 486.11 341.473 456.941 347.81C455.113 348.207 453.297 347.266 451.719 346.312Z"/><defs><linearGradient id="gradient_1" gradientUnits="userSpaceOnUse" x1="681.61938" y1="401.47662" x2="676.78564" y2="406.11447"><stop offset="0" stop-color="#951C71"/><stop offset="1" stop-color="#B73090"/></linearGradient></defs><path fill="url(#gradient_1)" d="M655.665 387.918C657.674 388.819 672.336 396.989 673.087 396.875C671.586 394.04 669.273 391.981 667.013 389.687C678.559 394.13 694.678 413.045 702.205 423.709C702.248 423.837 702.292 423.965 702.335 424.094L701.824 424.199C702.012 425.058 704.432 427.098 705.269 427.9C705.64 429.288 705.629 428.603 705.241 430.032C700.54 428.278 698.355 422.636 696.598 421.982C694.828 423.307 697.169 422.708 695.295 424.196C692.606 422.351 692.163 419.846 689.331 417.72C687.12 416.058 683.834 412.805 682.293 410.481L682.776 410.233L682.257 410.468L684.154 409.723L683.537 410.467C684.202 410.698 683.838 410.65 684.636 410.54C680.192 405.007 678.003 407.872 673.965 404.679C669.189 400.901 658.817 392.722 655.665 387.918Z"/><defs><linearGradient id="gradient_2" gradientUnits="userSpaceOnUse" x1="517.0965" y1="458.41849" x2="522.88141" y2="353.40662"><stop offset="0" stop-color="#BF47A9"/><stop offset="1" stop-color="#CD7ABA"/></linearGradient></defs><path fill="url(#gradient_2)" d="M504.868 351.241C530.389 350.527 562.839 353.91 587.788 359.954C608.403 364.948 631.515 375.642 649.06 387.465C651.84 389.339 662.991 400.287 664.694 403.956C667.644 425.836 651.501 432.508 635.198 441.638C628.285 445.511 621.441 449.847 613.722 452.127C612.256 452.501 596.092 455.679 595.647 455.536L592.245 454.454C579.139 457.711 561.328 458.305 547.742 457.643C543.642 457.444 537.242 458.722 533.47 458.125L530.74 457.701C524.314 457.887 517.855 457.759 511.375 458.255C506.513 458.627 501.194 456.741 496.333 455.931C483.347 453.768 469.377 450.027 456.224 449.525C430.755 448.622 406.756 443.35 386.705 426.446C384.554 424.633 374.672 413.035 375.045 410.788C376.224 403.685 374.725 397.606 379.808 391.945C392.85 377.42 410.195 371.757 427.954 365.348C433.968 363.165 439.835 360.478 446.111 359.104C465.163 355.564 485.61 352.597 504.868 351.241Z"/><path fill="#5DD7D1" d="M362.371 539.379C361.653 526.395 380.192 522.049 390.167 517.48C396.805 514.371 403.337 511.042 409.754 507.499C418.532 502.642 426.09 496.293 434.205 490.489C439.996 486.348 446.036 486.3 450.576 492.165L452.211 496.138C453.39 498.877 454.296 508.232 454.031 510.734C462.884 521.945 466.859 536.244 465.062 550.416C463.557 563.808 456.808 576.059 446.293 584.489C435.341 593.014 421.423 596.783 407.665 594.949C394.176 593.291 381.909 586.309 373.595 575.558C366.059 565.654 363.739 555.65 362.871 543.568L362.371 539.379Z"/><defs><linearGradient id="gradient_3" gradientUnits="userSpaceOnUse" x1="413.72897" y1="571.77478" x2="417.40472" y2="520.87378"><stop offset="0" stop-color="#7A075C"/><stop offset="1" stop-color="#AD3695"/></linearGradient></defs><path fill="url(#gradient_3)" d="M433.644 517.86C437.477 521.755 439.458 523.641 442.072 528.522C446.387 536.878 447.691 544.894 444.818 554.03C442.192 562.375 436.361 569.337 428.606 573.385C407.6 584.331 385.368 570.68 381.555 547.829C381.407 545.813 381.321 545.411 381.685 543.464C384.097 541.053 396.859 536.858 401.053 535.296C403.261 534.289 404.943 533.431 407.07 532.26C409.575 531.694 418.033 526.826 420.438 525.375C424.832 522.963 429.426 520.54 433.644 517.86Z"/><defs><linearGradient id="gradient_4" gradientUnits="userSpaceOnUse" x1="407.18301" y1="575.25629" x2="415.01288" y2="539.11224"><stop offset="0" stop-color="#462357"/><stop offset="1" stop-color="#762075"/></linearGradient></defs><path fill="url(#gradient_4)" d="M442.072 528.522C446.387 536.878 447.691 544.894 444.818 554.03C442.192 562.375 436.361 569.337 428.606 573.385C407.6 584.331 385.368 570.68 381.555 547.829C381.407 545.813 381.321 545.411 381.685 543.464C384.097 541.053 396.859 536.858 401.053 535.296C397.574 539.612 387.971 539.162 387.092 543.263C384.749 546.931 384.644 548.858 385.616 553.188C390.638 575.565 424.725 581.725 436.826 562.466C437.311 561.807 439.995 558.146 440.14 557.618C441.205 553.729 441.173 549.051 443.217 545.291L445.176 545.723C447.282 541.324 441.807 533 442.072 528.522Z"/><path fill="#75175E" d="M387.092 543.263C389.571 542.322 393.427 541.099 395.494 539.861L396.08 540.204C394.387 542.672 390.886 542.407 386.816 545.147L386.454 549.078C385.757 556.84 395.219 569.327 403.465 570.862C406.25 571.38 411.091 566.226 414.192 565.887C425.875 562.269 425.724 571.553 434.044 564.587C434.739 564.004 436.044 562.963 436.826 562.466C424.725 581.725 390.638 575.565 385.616 553.188C384.644 548.858 384.749 546.931 387.092 543.263Z"/><defs><linearGradient id="gradient_5" gradientUnits="userSpaceOnUse" x1="410.23654" y1="530.73706" x2="401.30881" y2="499.15454"><stop offset="0" stop-color="#55D6D0"/><stop offset="1" stop-color="#AEF7F5"/></linearGradient></defs><path fill="url(#gradient_5)" d="M362.371 539.379C361.653 526.395 380.192 522.049 390.167 517.48C396.805 514.371 403.337 511.042 409.754 507.499C418.532 502.642 426.09 496.293 434.205 490.489C439.996 486.348 446.036 486.3 450.576 492.165L452.211 496.138C453.39 498.877 454.296 508.232 454.031 510.734C452.251 508.635 450.453 506.829 448.536 504.867L447.081 504.124L446.476 504.626C440.358 509.775 433.48 517.613 424.765 519.186C421.924 519.698 422.227 518.01 419.614 521.673L420.69 522.272L419.093 524.069C419.513 525.22 419.161 524.726 420.438 525.375C418.033 526.826 409.575 531.694 407.07 532.26C404.943 533.431 403.261 534.289 401.053 535.296C396.859 536.858 384.097 541.053 381.685 543.464C381.321 545.411 381.407 545.813 381.555 547.829C378.182 544.854 368.064 544.524 362.871 543.568L362.371 539.379Z"/><path fill="#5ACDCE" d="M362.371 539.379C363.155 540.133 363.949 540.874 364.755 541.603C374.107 536.925 384.232 533.987 394.635 532.933C398.475 532.534 403.145 532.408 407.07 532.26C404.943 533.431 403.261 534.289 401.053 535.296C396.859 536.858 384.097 541.053 381.685 543.464C381.321 545.411 381.407 545.813 381.555 547.829C378.182 544.854 368.064 544.524 362.871 543.568L362.371 539.379Z"/><path fill="#5ACDCE" d="M450.576 492.165L452.211 496.138C453.39 498.877 454.296 508.232 454.031 510.734C452.251 508.635 450.453 506.829 448.536 504.867L447.081 504.124L446.618 502.676C445.246 503.24 444.794 503.422 443.312 503.807C443.234 503.412 443.156 503.017 443.078 502.623C441.149 504.09 439.702 505.348 437.495 506.366L437.397 505.91C440.444 502.696 442.755 501.561 446.475 499.362C447.612 497.059 449.293 494.568 450.576 492.165Z"/><path fill="#831F6D" d="M452.211 496.138C453.39 498.877 454.296 508.232 454.031 510.734C452.251 508.635 450.453 506.829 448.536 504.867C450.843 503.27 451.23 501.747 451.979 499.131L452.211 496.138Z"/><defs><linearGradient id="gradient_6" gradientUnits="userSpaceOnUse" x1="618.19196" y1="593.92151" x2="605.93671" y2="485.89783"><stop offset="0" stop-color="#49D3CB"/><stop offset="1" stop-color="#95F1EB"/></linearGradient></defs><path fill="url(#gradient_6)" d="M576.096 493.04C579.133 488.909 580.448 488.404 585.526 487.226C594.246 490.151 602.669 499.464 611.619 504.735C622.452 511.115 633.066 516.204 644.774 520.89C651.356 523.526 659.812 526.014 663.049 532.862C666.264 539.665 662.393 555.891 659.81 562.649C655.117 575.309 645.509 585.538 633.168 591.015C620.428 596.645 605.97 596.968 592.991 591.913C580.369 586.988 570.292 577.144 565.074 564.642C557.548 546.672 560.683 524.733 573.103 509.92C574.392 508.383 576.458 506.032 577.532 504.431C576.208 503.096 575.789 501.766 575.02 500.044L579.748 498.958C579.268 496.806 578.847 496.621 578.607 494.053C578.14 493.413 577.072 493.324 576.096 493.04Z"/><defs><linearGradient id="gradient_7" gradientUnits="userSpaceOnUse" x1="614.71875" y1="573.48541" x2="611.13123" y2="519.75598"><stop offset="0" stop-color="#780A5D"/><stop offset="1" stop-color="#B03696"/></linearGradient></defs><path fill="url(#gradient_7)" d="M589.497 520.51C590.659 519.524 591.98 517.924 592.993 518.42C599.528 521.617 610.29 527.616 616.342 531.036C622.585 534.565 642.493 540.502 644.971 543.327C645.393 544.894 645.324 544.887 645.225 546.536C644.875 549.168 644.231 554.034 643.059 556.401C642.5 557.692 640.409 561.986 640.135 562.897C634.34 568.647 633.106 571.343 625.034 574.763C614.872 579.068 597.847 577.652 590.573 568.482L589.888 568.466C588.781 566.74 586.848 564.822 585.415 562.466C580.051 553.651 578.856 546.088 581.247 536.09C582.88 529.526 585.504 525.821 589.497 520.51Z"/><path fill="#54245F" d="M640.255 557.923L640.988 558.172C641.669 557.571 642.359 556.981 643.059 556.401C642.5 557.692 640.409 561.986 640.135 562.897C634.34 568.647 633.106 571.343 625.034 574.763C614.872 579.068 597.847 577.652 590.573 568.482L590.974 567.908C591.58 568.314 592.132 568.746 592.672 569.238L592.876 568.422L592.26 567.515L592.61 567.147L592.548 567.617L592.893 567.094L593.613 567.088C606.002 577.033 621.382 576.651 633.674 566.495C636.692 564.001 638.244 561.196 640.255 557.923Z"/><path fill="#831F6D" d="M581.247 536.09C582.441 538.034 581.438 541.379 581.883 544.254C582.103 543.161 582.806 539.107 583.23 538.393C585.601 547.154 581.665 557.842 591.546 565.139L593.613 567.088L592.893 567.094L592.548 567.617L592.61 567.147L592.26 567.515L592.876 568.422L592.672 569.238C592.132 568.746 591.58 568.314 590.974 567.908L590.573 568.482L589.888 568.466C588.781 566.74 586.848 564.822 585.415 562.466C580.051 553.651 578.856 546.088 581.247 536.09Z"/><path fill="#75175E" d="M591.546 565.139C592.691 565.505 593.405 565.924 594.682 566.583C600.306 569.355 608.439 571.012 613.927 573.807C617.271 575.511 633.616 566.344 635.52 563.255C636.706 561.329 639.87 556.418 641.127 554.358C641.368 555.657 640.784 556.456 640.255 557.923C638.244 561.196 636.692 564.001 633.674 566.495C621.382 576.651 606.002 577.033 593.613 567.088L591.546 565.139Z"/><path fill="#5DD7D1" d="M590.573 568.482C597.847 577.652 614.872 579.068 625.034 574.763C633.106 571.343 634.34 568.647 640.135 562.897C639.135 567.039 633.789 569.756 634.617 572.052L635.581 571.928C636.703 571.789 637.36 571.77 638.508 571.772L639.164 572.502C638.867 575.926 638.084 578.957 637.706 582.506C632.872 586.386 627.295 590.169 620.34 588.868C609.755 586.888 598.491 585.412 591.292 576.285C590.271 574.99 591.437 573.012 591.502 571.654C591.508 571.516 590.105 569.118 589.888 568.466L590.573 568.482Z"/><defs><linearGradient id="gradient_8" gradientUnits="userSpaceOnUse" x1="614.5246" y1="528.81439" x2="619.01227" y2="519.69232"><stop offset="0" stop-color="#5AC1CC"/><stop offset="1" stop-color="#53E0D0"/></linearGradient></defs><path fill="url(#gradient_8)" d="M579.748 498.958C582.283 501.791 588.983 509.818 591.834 511.437C600.155 516.161 607.643 518.405 615.352 524.797C617.795 526.6 619.773 527.365 622.725 527.87C627.444 533.11 638.087 533.672 644.865 536.57C648.552 538.147 657.07 543.28 660.106 543.882C656.912 546.05 649.033 544.634 645.225 546.536C645.324 544.887 645.393 544.894 644.971 543.327C642.493 540.502 622.585 534.565 616.342 531.036C610.29 527.616 599.528 521.617 592.993 518.42C591.98 517.924 590.659 519.524 589.497 520.51C589.278 519.612 589.721 518.437 589.46 517.559C588.062 512.865 584.839 507.918 580.95 504.934C579.485 503.811 579.089 504.12 577.532 504.431C576.208 503.096 575.789 501.766 575.02 500.044L579.748 498.958Z"/><path fill="#5DD7D1" d="M578.607 494.053C589.66 507.22 596.321 511.367 611.434 518.759C613.61 519.823 617.185 523.069 619.18 523.941C621.708 525.046 633.6 528.184 634.57 530.614L634.839 530.367L634.954 530.756L634.431 530.202L634.616 530.716L635.047 530.7L634.328 530.157L633.703 530.485C629.166 528.932 624.9 527.234 620.437 525.515C619.508 525.157 616.85 525.124 615.352 524.797C607.643 518.405 600.155 516.161 591.834 511.437C588.983 509.818 582.283 501.791 579.748 498.958C579.268 496.806 578.847 496.621 578.607 494.053Z"/><path fill="#5DD7D1" d="M505.225 616.196C525.255 613.287 548.949 621.154 562.687 635.907C566.48 639.98 565.535 644.492 561.283 647.689C555.639 651.933 549.511 643.354 545.575 640.308C538.762 634.665 531.629 632.15 522.957 630.604C509.953 627.861 492.143 631.006 481.427 639.621C477.682 642.633 465.235 655.94 461.915 643.039C460.408 637.181 466.657 632.618 470.917 629.426C481.378 621.589 492.266 617.779 505.225 616.196Z"/><path fill="#5ACDCE" d="M575.02 500.044C574.903 496.929 575.065 495.957 576.096 493.04C577.072 493.324 578.14 493.413 578.607 494.053C578.847 496.621 579.268 496.806 579.748 498.958L575.02 500.044Z"/><path fill="#ECEBEB" d="M577.656 747.77L578.342 748.267C575.031 749.251 570.486 749.604 567.294 751.431C566.832 751.695 565.538 750.247 563.489 751.201C563.317 752.457 563.44 753.48 562.732 754.165C561.461 753.786 560.638 753.52 559.381 753.034L558.626 753.271C557.994 754.517 557.601 755.692 556.183 756.239C548.933 758.927 541.712 759.394 534.277 760.556C518.183 763.073 499.432 763.56 483.298 761.214C472.543 759.65 459.372 757.581 448.734 755.602C437.971 753.6 427.341 750.559 416.318 749.267C413.952 748.84 408.731 745.033 406.418 744.497C395.739 742.02 386.218 736.558 376.3 731.909C369.916 728.916 362.947 721.841 356.898 718.05C341.114 708.701 331.452 698.403 319.649 684.648C315.132 679.384 302.876 672.656 298.159 666.699C295.361 662.9 284.294 640.386 281.725 634.759C279.94 630.852 278.504 620.969 275.227 613.808C271.621 605.93 263.296 591.243 261.591 584.567C258.26 571.519 257.612 553.917 256.213 540.247C256.05 538.664 254.734 524.671 254.735 523.493C254.741 522.427 254.764 521.361 254.802 520.295L252.964 519.859C251.659 516.857 256.366 508.146 250.838 505.046L250.707 504.249C251.767 503.655 251.383 503.79 252.687 503.696C252.564 498.698 252.023 493.751 251.661 488.753C251.368 484.702 251.816 480.452 252.014 476.404C252.407 468.374 253.341 460.397 254.152 452.404C255.003 444.449 255.481 436.368 257.276 428.555C259.227 420.667 262.747 412.976 265.774 405.417C271.527 391.222 278.274 377.329 286.301 364.272C288.125 361.305 291.477 357.67 293.744 354.912C311.837 332.916 329.781 310.326 353.66 294.253C355.96 292.705 358.556 290.159 360.919 288.845C379.331 278.61 398.009 266.939 418.067 260.327C427.011 257.379 435.306 253.727 444.186 250.714C452.735 248.876 461.442 247.276 470.096 245.994C476.564 245.035 483.345 243.609 489.839 243.143C493.734 242.863 498.661 244.124 502.645 243.544C508.199 242.734 513.805 242.043 519.253 240.659C519.283 240.651 520.337 241.676 520.479 241.818C533.902 240.515 550.706 242.702 563.727 246.024C568.946 247.355 577.234 247.272 581.786 248.775C594.611 253.009 610.384 256.653 622.809 261.474C654.676 273.839 686.518 289.265 711.082 313.537C716.189 317.238 720.231 324.716 724.484 328.696C735.994 339.467 748.002 349.921 754.695 364.64C758.622 373.275 766.036 380.731 769.668 388.585C776.015 402.62 780.523 417.415 783.083 432.604C784.169 439.456 785.782 449.282 786.585 456.098C788.484 472.206 786.919 500.879 782.436 516.224C783.043 517.791 783.198 517.838 784.261 519.082L784.058 520.075C782.852 520.599 782.818 520.468 781.477 520.308C778.883 524.275 774.112 543.762 771.445 546.006C763.893 552.362 770.043 558.536 766.96 561.714C763.1 558.813 764.534 546.298 761.682 543.644L760.872 543.984C759.887 549.668 767.065 563.279 764.483 567.349L762.854 567.966C762.66 568.712 759.419 581.191 759.437 580.771C758.991 591.338 754.637 598.706 750.879 608.385C749.056 613.042 748.039 618.79 745.958 623.465C738.669 638.497 728.37 656.394 714.87 666.602C714.145 667.15 710.808 667.518 709.888 667.622C706.522 670.623 705.185 673.993 701.676 677.271C702.562 683.541 707.461 683.441 711.105 686.973C731.608 706.842 751.053 729.107 771.439 748.894C775.42 754.262 780.243 758.236 784.778 762.774C796.092 774.095 822.471 797.964 827.841 812.053L827.472 812.988C826.705 811.366 826.41 810.261 824.92 809.301L824.039 809.67C821.741 815.183 813.763 823.051 808.26 825.683C804.969 827.257 791.26 827.907 789.075 826.44C786.607 824.782 779.294 819.854 777.044 817.909C774.644 811.248 774.449 815.358 771.702 812.077L772.197 810.606C770.862 808.416 760.65 806.583 757.849 805.254C756.25 804.495 755.601 803.94 754.176 803.144L752.716 804.154C751.051 803.672 750.781 803.649 749.221 802.794C749.015 802.091 748.819 801.392 748.636 800.682L748.028 802.541L747.361 802.73L746.392 801.819C746.234 799.393 747.82 796.342 748.199 793.283C745.154 789.087 747.499 793.524 744.058 790.471C744.386 789.097 744.397 789.605 744.207 788.252C742.155 788.25 741.951 788.866 739.853 790.142L739.301 789.81C739.842 788.751 740.216 787.977 740.674 786.882C738.121 785.482 735.857 784.254 733.414 782.658L732.991 781.745C732.199 780.068 732.008 779.626 730.459 779.078L730.057 780.356C726.784 780.579 721.491 778.063 720.198 774.765C720.049 775.806 720.24 775.32 719.59 776.21C717.946 775.544 719.255 774.257 717.662 772.677C705.835 771.194 696.09 763.836 697.749 753.181C697.836 752.618 694.238 748.299 693.727 744.819C693.058 745.347 693.456 745.107 692.496 745.471L691.814 744.743L692.764 741.757L691.837 741.24L692.264 742.493L691.787 743.196C688.915 744.258 686.413 745.308 685.925 748.676L687.438 750.088L687.469 751.23C685.261 754.501 682.232 749.934 680.06 749.347C675.497 748.116 667.019 747.134 666.16 741.293C665.736 738.414 664.516 735.99 664.301 733.259C665.098 731.935 664.924 732.509 665.175 731.245C666.018 726.996 674.573 724.689 676.848 720.96L676.626 720.155C674.586 719.394 673.095 720.163 670.578 720.622C669.533 720.273 669.176 720.146 668.096 719.91L666.797 721.733C663.885 720.955 663.919 719.632 664.628 717.382C663.031 716.17 660.955 717.802 656.691 714.212C654.263 714.773 652.685 717.564 649.52 717.533C646.389 717.489 645.315 720.107 643.245 721.214C633.623 726.355 633.136 750.412 618.119 738.236C607.477 729.607 616.146 715.106 608.575 705.292C606.591 702.72 607.039 701.122 606.688 697.868C603.174 700.044 601.981 707.12 599.329 708.392C606.255 689.109 628.223 674.448 647.356 669.491C665.406 664.78 684.595 667.579 700.547 677.251C727.772 645.291 741.067 615.764 747.484 574.405C747.803 568.982 748.553 563.703 748.834 558.05C749.467 543.89 748.717 529.702 746.595 515.687C745.512 508.873 743.498 501.518 742.113 494.637C741.429 492.565 740.733 490.71 739.961 488.673L739.635 488.716C738.353 487.744 737.681 484.133 737.177 482.482C732.311 466.555 716.025 435.643 704.983 423.708L704.075 423.775L703.718 424.268L702.335 424.094C702.292 423.965 702.248 423.837 702.205 423.709C694.678 413.045 678.559 394.13 667.013 389.687C658.267 385.31 655.46 379.935 647.583 375.166C638.058 368.95 626.931 366.024 616.737 361.799C600.832 355.206 585.921 350.598 568.671 349.262C566.903 349.125 563.391 347.983 562.339 346.392L563.148 345.561C569.512 348.677 576.175 348.834 583.146 348.185C576.309 345.987 552.845 342.201 545.701 342.104C513.625 338.661 483.314 340.524 451.719 346.312L449.61 346.873C412.375 355.51 387.574 365.705 357.063 388.821C344.202 400.371 332.452 412.135 322.211 426.119C302.576 452.927 283.551 496.546 282.988 530.324C281.641 537.61 281.855 549.551 281.906 557.286C284.477 611.072 308.64 659.781 348.612 696.25C407.77 750.221 494.581 762.396 571.217 749.005C573.347 748.633 575.543 748.081 577.656 747.77Z"/><path fill="#DADAD9" d="M328.418 406.42L328.308 404.237C330.312 404.909 330.09 405.184 331.831 404.788C336.359 400.756 341.131 396.848 345.359 392.671C348.66 389.411 353.389 386.576 356.609 383.644C364.48 376.476 372.476 369.696 382.805 366.593C383.724 366.317 385.924 361.943 387.272 361.562C394.779 358.363 402.275 355.299 410.2 353.275C411.455 352.954 414.206 350.563 415.873 350.241C420.437 348.273 425.128 346.896 429.657 345.063L430.51 345.302C434.183 346.319 437.56 343.707 441.413 342.455C447.433 340.564 453.632 339.298 459.912 338.679C478.996 336.645 500.486 334.544 519.71 334.852C529.356 335.034 538.998 335.361 548.635 335.833C551.539 335.965 554.185 336.808 556.946 336.764C554.614 337.364 552.618 336.655 551.852 337.538C553.85 338.936 555.004 338.425 557.267 338.259C568.665 337.422 582.101 342.135 593.779 344.243L594.127 344.605L593.241 345.359C597.025 347.016 597.945 345.355 601.179 346.269C605.828 347.582 611.435 350.018 616.068 350.974C625.538 352.927 632.492 356.757 640.865 361.417C643.031 362.622 646.451 363.608 648.269 365.323C645.421 365.372 645.456 363.317 641.759 363.083C641.933 363.936 642.186 364.79 643.12 365.039C650.078 366.894 653.077 368.1 658.293 373.295L659.341 372.882C658.892 372.186 658.604 371.78 658.12 371.124C660.274 371.613 662.597 375.098 664.852 376.828C667.17 378.607 674.142 382.381 675.696 383.891C681.292 389.333 686.991 395.601 692.307 401.347C695.404 404.695 699.099 406.122 701.39 408.73C708.443 416.759 715.84 427.472 721.828 436.277C722.995 437.993 731.679 454.57 732.041 455.886L731.857 455.724C726.505 451.077 726.101 445.096 718.226 440.402C724.927 452.016 737.629 475.257 739.961 488.673L739.635 488.716C738.353 487.744 737.681 484.133 737.177 482.482C732.311 466.555 716.025 435.643 704.983 423.708L704.075 423.775L703.718 424.268L702.335 424.094C702.292 423.965 702.248 423.837 702.205 423.709C694.678 413.045 678.559 394.13 667.013 389.687C658.267 385.31 655.46 379.935 647.583 375.166C638.058 368.95 626.931 366.024 616.737 361.799C600.832 355.206 585.921 350.598 568.671 349.262C566.903 349.125 563.391 347.983 562.339 346.392L563.148 345.561C569.512 348.677 576.175 348.834 583.146 348.185C576.309 345.987 552.845 342.201 545.701 342.104C513.625 338.661 483.314 340.524 451.719 346.312L449.61 346.873C412.375 355.51 387.574 365.705 357.063 388.821C357.973 385.56 358.628 387.207 360.066 384.402L359.867 383.814C355.511 383.48 337.855 403.498 332.897 406.695C332.254 407.087 330.185 408.501 329.588 408.437L328.418 406.42Z"/><path fill="#75175E" d="M667.013 389.687C658.267 385.31 655.46 379.935 647.583 375.166C638.058 368.95 626.931 366.024 616.737 361.799C600.832 355.206 585.921 350.598 568.671 349.262C566.903 349.125 563.391 347.983 562.339 346.392L563.148 345.561C569.512 348.677 576.175 348.834 583.146 348.185C627.968 356.73 668.652 380.002 698.738 414.308C706.36 423.04 711.552 431.113 718.226 440.402C724.927 452.016 737.629 475.257 739.961 488.673L739.635 488.716C738.353 487.744 737.681 484.133 737.177 482.482C732.311 466.555 716.025 435.643 704.983 423.708L704.075 423.775L703.718 424.268L702.335 424.094C702.292 423.965 702.248 423.837 702.205 423.709C694.678 413.045 678.559 394.13 667.013 389.687Z"/><path fill="#D6C4CF" d="M332.897 406.695C337.855 403.498 355.511 383.48 359.867 383.814L360.066 384.402C358.628 387.207 357.973 385.56 357.063 388.821C344.202 400.371 332.452 412.135 322.211 426.119C302.576 452.927 283.551 496.546 282.988 530.324C281.641 537.61 281.855 549.551 281.906 557.286C281.236 554.981 281.198 547.423 281.195 544.688C281.162 515.736 289.017 484.193 301.757 458.312L301.612 457.901C296.523 461.179 296.968 464.598 295.398 470.429C294.921 473.727 291.662 475.24 290.803 478.564C287.959 489.564 285.504 500.519 282.239 511.418C280.346 517.739 280.415 526.145 279.686 532.761C279.361 535.714 279.837 539.398 279.323 542.27C278.585 528.222 281.205 510.71 283.412 496.566C283.708 497.798 283.798 498.904 283.952 500.16C285.888 496.529 286.993 485.239 289.25 480.638C290.76 477.56 290.646 471.945 291.82 468.34C292.449 469.232 291.634 471.214 291.574 473.208C293.498 471.559 295.788 464.057 296.687 461.316C299.509 452.705 306.68 444.585 307.749 435.768C312.196 435.711 311.148 434.003 314.061 430.652C314.999 429.633 314.765 428.98 314.894 428.858C321.845 422.255 326.841 414.233 332.897 406.695Z"/><path fill="#D6C4CF" d="M718.226 440.402C726.101 445.096 726.505 451.077 731.857 455.724L732.041 455.886C732.867 460.402 735.744 464.74 737.126 469.075C738.599 470.012 747.557 495.451 747.926 498.29C749.636 511.464 754.664 554.965 750.235 566.702L750.426 561.074C749.822 564.069 748.776 572.567 747.484 574.405C747.803 568.982 748.553 563.703 748.834 558.05C749.467 543.89 748.717 529.702 746.595 515.687C745.512 508.873 743.498 501.518 742.113 494.637C741.429 492.565 740.733 490.71 739.961 488.673C737.629 475.257 724.927 452.016 718.226 440.402Z"/><path fill="#DADAD9" d="M328.418 406.42L329.588 408.437C330.185 408.501 332.254 407.087 332.897 406.695C326.841 414.233 321.845 422.255 314.894 428.858C314.765 428.98 314.999 429.633 314.061 430.652C313.613 428.991 314.531 423.596 315.683 422.336C316.008 423.026 315.333 425.255 315.125 426.262L315.638 426.768C321.201 423.821 317.901 420.364 319.66 418.34C321.234 418.688 320.886 418.837 322.299 418.543L321.979 417.227L322.317 416.419C321.802 411.844 323.356 409.012 328.181 407.936L328.418 406.42Z"/><path fill="#7F7E7F" d="M346.51 825.172C348.773 825.008 356.719 830.23 359.282 831.605C367.599 836.063 375.926 840.734 384.706 844.243C389.498 846.208 409.512 847.94 411.933 849.771C412.343 849.665 428.067 851.095 428.89 851.364C429.431 851.923 430.094 852.609 430.879 853.421C446.096 857.553 471.924 858.655 486.665 860.006C491.369 861.012 492.297 860.254 495.706 862.755L498.722 862.736C497.277 862.344 496.599 862.355 495.487 861.483C500.69 860.896 504.424 863.158 507.53 863.188C519.372 863.151 531.606 863.67 543.401 863.061C556.939 862.362 570.382 858.692 583.947 858.095C586.335 857.99 588.348 858.463 590.79 858.442C592.944 857.833 602.831 857.136 606.03 856.626C610.955 855.84 627.356 850.188 630.632 851.757C624.545 854.582 615.699 857.491 609.251 859.661C559.347 876.183 505.945 879.125 454.528 868.186C423.55 861.998 393.651 851.286 365.791 836.394C360.009 833.339 351.773 828.963 346.51 825.172Z"/><defs><linearGradient id="gradient_9" gradientUnits="userSpaceOnUse" x1="595.19116" y1="867.67133" x2="594.31293" y2="853.89215"><stop offset="0" stop-color="#3F3F40"/><stop offset="1" stop-color="#6D6C6B"/></linearGradient></defs><path fill="url(#gradient_9)" d="M590.79 858.442C592.944 857.833 602.831 857.136 606.03 856.626C610.955 855.84 627.356 850.188 630.632 851.757C624.545 854.582 615.699 857.491 609.251 859.661C559.347 876.183 505.945 879.125 454.528 868.186C463.397 865.386 483.573 868.983 493.336 869.18C505.55 869.426 518.048 869.362 530.264 869.006C534.198 868.891 540.753 869.215 544.334 868.458C548.67 867.542 551.136 868.228 555.438 867.749C556.821 867.594 558.697 866.594 560.861 866.247C572.217 864.425 583.48 861.461 594.843 859.736C595.019 859.506 595.195 859.275 595.372 859.045C593.971 858.113 592.549 858.4 590.79 858.442Z"/><path fill="#8D8C8C" d="M411.933 849.771C412.343 849.665 428.067 851.095 428.89 851.364C429.431 851.923 430.094 852.609 430.879 853.421C446.096 857.553 471.924 858.655 486.665 860.006C491.369 861.012 492.297 860.254 495.706 862.755C474.822 863.012 451.027 858.839 430.148 856.581C428.945 856.451 412.122 851.283 411.366 850.768L411.933 849.771Z"/><defs><linearGradient id="gradient_10" gradientUnits="userSpaceOnUse" x1="579.95764" y1="862.81055" x2="574.46136" y2="839.37274"><stop offset="0" stop-color="#706F70"/><stop offset="1" stop-color="#A2A2A1"/></linearGradient></defs><path fill="url(#gradient_10)" d="M486.665 860.006C487.234 859.608 487.617 859.509 488.269 859.235C491.182 859.751 499.467 859.441 503.543 859.704L502.482 859.822C506.165 860.236 519.723 860.009 523.629 859.75L523.327 859.152C521.482 858.823 520.21 858.671 518.342 858.5C523.853 857.883 529.153 859.301 534.799 859.022C548.904 858.324 562.724 855.333 576.577 852.51C583.849 849.687 595.493 849.099 602.286 845.969C613.673 840.723 625.286 838.388 636.903 834.145C640.835 832.71 648.077 824.324 653.331 824.248C654.912 824.226 654.604 824.281 656.119 823.64C653.843 819.611 637.805 804.74 633.754 799.463L633.812 799.415L634.681 800.551L635.278 800.405C644.79 808.93 659.258 824.803 667.973 834.497C664.591 835.757 659.423 838.584 655.984 840.284C647.433 844.51 639.624 848.426 630.632 851.757C627.356 850.188 610.955 855.84 606.03 856.626C602.831 857.136 592.944 857.833 590.79 858.442C588.348 858.463 586.335 857.99 583.947 858.095C570.382 858.692 556.939 862.362 543.401 863.061C531.606 863.67 519.372 863.151 507.53 863.188C504.424 863.158 500.69 860.896 495.487 861.483C496.599 862.355 497.277 862.344 498.722 862.736L495.706 862.755C492.297 860.254 491.369 861.012 486.665 860.006Z"/><path fill="#831F6D" d="M210.798 417.359C214.628 413.795 217.626 411.874 222.911 411.096C218.193 420.601 214.318 430.429 210.112 440.148C208.318 444.296 205.084 452.612 202.75 456.356C198.877 449.07 198.929 443.352 199.755 435.378C201.739 431.149 206.16 424.168 208.715 419.895L210.798 417.359Z"/><path fill="#831F6D" d="M815.47 410.67C821.477 412.264 826.296 414.404 830.717 418.967C832.828 422.423 836.057 427.357 837.866 430.826C834.331 437.341 833.099 435.261 828.383 439.789C824.417 429.937 820.11 420.225 815.47 410.67Z"/><path fill="#75175E" d="M837.866 430.826L840.255 435.159C840.496 445.193 842.283 449.437 835.654 458.64C835.147 455.254 830.035 443.684 828.383 439.789C833.099 435.261 834.331 437.341 837.866 430.826Z"/><path fill="#ECEBEB" d="M745.205 797.308C745.834 797.452 745.467 797.305 746.174 797.998C745.966 799.825 745.333 801.545 743.679 802.499C743.079 801.364 742.41 800.561 741.693 799.152C742.453 797.858 743.347 797.964 745.205 797.308Z"/><path fill="#ECEBEB" d="M739.479 800.795C740.843 801.077 740.91 801.137 742.183 801.737C742.994 803.496 742.732 802.974 742.369 805.247C741.297 803.929 740.261 803.459 739.071 802.228L739.479 800.795Z"/><defs><linearGradient id="gradient_11" gradientUnits="userSpaceOnUse" x1="921.30591" y1="405.53351" x2="911.78387" y2="350.38263"><stop offset="0" stop-color="#6F155B"/><stop offset="1" stop-color="#B42792"/></linearGradient></defs><path fill="url(#gradient_11)" d="M887.387 382.755C887.268 363.9 898.88 349.572 918.334 349.252C943.336 348.84 954.921 380.897 937.785 398.14C926.675 409.472 910.281 409.215 898.293 400.483C894.461 394.959 892.935 390.061 887.387 382.755Z"/><path fill="#B53191" d="M916.589 355.696C925.668 355.23 927.327 359.188 930.313 366.756C925.566 376.536 924.963 371.719 919.136 376.849C913.846 377.501 905.012 373.586 903.917 367.626C903.515 365.317 904.053 362.943 905.409 361.032C908.255 356.972 912.177 356.431 916.589 355.696Z"/><defs><linearGradient id="gradient_12" gradientUnits="userSpaceOnUse" x1="920.07251" y1="372.1806" x2="915.20001" y2="360.64798"><stop offset="0" stop-color="#BE4EA4"/><stop offset="1" stop-color="#D071BB"/></linearGradient></defs><path fill="url(#gradient_12)" d="M914.025 359.72C915.105 359.613 916.191 359.564 917.277 359.574C928.877 359.656 928.823 367.558 920.21 373.865C909.498 376.464 901.921 362.861 914.025 359.72Z"/><path fill="#831F6D" d="M143.459 400.891C133.472 407.473 121.699 409.393 110.969 403.12C104.228 399.24 99.3186 392.826 97.3342 385.306C88.4443 351.176 135.841 335.61 151.602 365.511C154.219 370.476 154.383 377.387 155.575 382.923C147.244 388.98 147.251 393.163 143.459 400.891Z"/><defs><linearGradient id="gradient_13" gradientUnits="userSpaceOnUse" x1="125.5057" y1="376.707" x2="126.8047" y2="360.98386"><stop offset="0" stop-color="#B03493"/><stop offset="1" stop-color="#D371BD"/></linearGradient></defs><path fill="url(#gradient_13)" d="M116.856 372.917C108.041 363.157 115.252 354.411 126.685 354.88C136.174 355.269 142.809 367.691 134.278 375.19C128.299 379.118 121.856 377.476 116.856 372.917Z"/><path fill="#B53191" d="M116.856 372.917C108.041 363.157 115.252 354.411 126.685 354.88C136.174 355.269 142.809 367.691 134.278 375.19C132.219 371.73 136.582 369.127 134.455 364.53C131.468 358.076 117.207 356.68 116.793 365.497C116.658 368.374 118.774 370.341 119.575 373.079L118.965 373.558L116.856 372.917Z"/><defs><linearGradient id="gradient_14" gradientUnits="userSpaceOnUse" x1="869.30347" y1="417.12961" x2="859.35504" y2="401.22278"><stop offset="0" stop-color="#D3D2D2"/><stop offset="1" stop-color="#FBFAF9"/></linearGradient></defs><path fill="url(#gradient_14)" d="M887.387 382.755C892.935 390.061 894.461 394.959 898.293 400.483L865.098 420.896C857.206 425.702 848.515 431.212 840.255 435.159L837.866 430.826C836.057 427.357 832.828 422.423 830.717 418.967C834.193 416.227 839.837 413.264 843.641 410.633C857.243 401.229 874.211 392.322 887.387 382.755Z"/><defs><linearGradient id="gradient_15" gradientUnits="userSpaceOnUse" x1="170.69763" y1="417.03369" x2="181.66365" y2="399.95139"><stop offset="0" stop-color="#CECCCC"/><stop offset="1" stop-color="white"/></linearGradient></defs><path fill="url(#gradient_15)" d="M143.459 400.891C147.251 393.163 147.244 388.98 155.575 382.923C158.505 386.602 193.994 408.637 199.408 411.246C202.573 413.131 207.473 415.997 210.798 417.359L208.715 419.895C206.16 424.168 201.739 431.149 199.755 435.378C199.242 434.759 198.312 433.792 197.596 433.416C182.74 425.606 168.78 416.39 154.664 407.355C151.148 405.105 147.114 403.002 143.459 400.891Z"/><path fill="#ECEBEB" d="M199.408 411.246C202.573 413.131 207.473 415.997 210.798 417.359L208.715 419.895C208.865 419.295 208.972 418.68 209.092 418.071L208.154 417.011C203.993 417.004 208.447 418.284 204.188 418.42C201.998 417.036 200.537 413.615 199.408 411.246Z"/></svg>