<?xml version="1.0" encoding="utf-8" ?><svg xmlns="http://www.w3.org/2000/svg" xmlns:xlink="http://www.w3.org/1999/xlink" width="4096" height="4096" viewBox="228 607 3640 3640"><path fill="#E5E5E4" d="M889.112 1641.81C899.008 1617.13 931.157 1564.16 945.368 1540.89C1061.75 1350.7 1225.64 1194.08 1420.93 1086.46C1739.21 915.793 2112.03 877.754 2458.22 980.625C2735.1 1060.74 2978 1229.56 3149.61 1461.13C3191.48 1517.99 3226.8 1577.72 3260.59 1639.56C3286.16 1654.63 3289.67 1649.53 3319.91 1671.24L3323.49 1672.7L3322.01 1675.93C3323.45 1678.13 3324.8 1680.69 3326.63 1682.26C3327.84 1684.47 3332.26 1692.14 3332.85 1694.03L3349.04 1720.12C3353.77 1729.2 3356.04 1733.99 3362.53 1742.17C3357.59 1751.66 3363.59 1772.06 3360.68 1789.56C3357.17 1810.69 3346.53 1824.04 3342.63 1839.61C3360.58 1889.54 3369.91 1945.7 3377.74 1998.2C3415.33 2236.63 3381.31 2480.85 3279.98 2699.93C3238.97 2786.9 3193.43 2862.85 3132.83 2937.25C3122.96 2949.36 3088.43 2985.65 3084.17 2996.9C3116.13 3028.2 3148.2 3061.47 3179.93 3093.8C3245.29 3160.42 3332.28 3231.44 3331.19 3333.36C3326.16 3500.59 3162.57 3583.24 3012.71 3583.12C2918.74 3583.05 2861.82 3544.88 2799.22 3478.67C2773.32 3451.24 2746.5 3421.7 2721.44 3393.31C2716.11 3387.28 2691.46 3359.57 2687.8 3353.75C2681.77 3347.89 2676.67 3342.73 2671 3336.54C2631.33 3357.24 2595 3376.25 2553.78 3394.01C2482.91 3423.34 2409.77 3446.86 2335.08 3464.34C2095.65 3518.64 1845.51 3501.15 1615.97 3414.03C1556.27 3391.98 1487.87 3362.31 1433.59 3328.48C1359.38 3296.55 1195.32 3166.04 1139.61 3107.76C1043.99 3024.84 916.873 2835.48 865.787 2721.23C765.911 2497.87 729.367 2246.75 769.897 2005.09C778.734 1952.4 790.924 1878.76 809.905 1829.04C796.657 1797.65 793.186 1778.41 796.146 1744.47L801.312 1740.45C801.274 1732.9 803.825 1730.43 808.241 1724.79L808.911 1723.48C817.977 1709.4 822.713 1698.53 833.494 1684.21L837.503 1678.23L837.365 1677.45C834.122 1674.54 836.016 1675.9 831.535 1673.59L836.158 1672.86C852.883 1658.76 867.759 1646.46 889.112 1641.81Z"/><path fill="#B3B3B0" d="M1099.86 3055.54L1105.18 3053.68C1112.41 3063.18 1121.57 3064.27 1132.26 3067.66C1157.08 3075.71 1173.21 3096.83 1196.53 3108.85C1201.59 3111.45 1216.93 3132.02 1222.48 3134.11C1258.53 3147.67 1277.57 3173.53 1306.09 3195.78C1321.37 3200.16 1338.68 3208.02 1352.87 3213.24C1384.83 3225 1416.06 3253.52 1445.65 3265.06C1485.59 3280.65 1530.14 3293.71 1569.98 3311.19C1588.29 3319.21 1605.13 3328.66 1624.73 3333.05C1688.4 3342.19 1750.93 3354.93 1813.77 3368.68C1837.38 3373.85 1865.46 3373.51 1889.72 3375.84C1957.81 3382.41 2026.31 3389.91 2094.57 3381.31C2106.59 3379.79 2113.15 3383.24 2128.42 3380.09C2170.04 3371.49 2213.42 3368.99 2254.53 3356.41C2263.44 3353.99 2274.85 3346.24 2283.31 3343.96C2308.82 3337.08 2333.04 3327.28 2354.78 3312.09C2367.36 3303.31 2381.67 3303.29 2386 3287.61C2398.33 3276.94 2431.15 3250.75 2433.6 3236.55C2435.69 3224.45 2447.97 3184.62 2445.16 3174.8C2435.74 3141.9 2417.59 3107.23 2403.35 3075.82C2399.84 3068.06 2403.69 3056.37 2395.2 3044.8C2390.41 3038.26 2385.6 3023.11 2384.99 3014.85L2382.32 3015.12L2381.16 3032.65C2379.75 3017.99 2377.29 3013.49 2385.91 3002.11L2388.75 3001.94C2392.32 3005.64 2405.53 3034.68 2410.42 3043.28C2452.1 3116.5 2517.8 3169.16 2573.57 3230.88C2589.53 3248.54 2630.3 3279.66 2637.64 3301.87C2651.93 3318.55 2682.18 3340.96 2687.8 3353.75C2681.77 3347.89 2676.67 3342.73 2671 3336.54C2631.33 3357.24 2595 3376.25 2553.78 3394.01C2482.91 3423.34 2409.77 3446.86 2335.08 3464.34C2095.65 3518.64 1845.51 3501.15 1615.97 3414.03C1556.27 3391.98 1487.87 3362.31 1433.59 3328.48C1359.38 3296.55 1195.32 3166.04 1139.61 3107.76C1141.13 3107.3 1142.95 3106.16 1144.44 3105.36C1135.67 3089.82 1105.35 3069.39 1099.86 3055.54Z"/><path fill="#777775" d="M1433.59 3328.48C1438.05 3328.98 1451.85 3330.53 1455.4 3332.03C1490.19 3346.67 1557.87 3397.59 1597.72 3386.36L1596.46 3386.62C1603.73 3383.77 1608.25 3380.11 1613.86 3383.76C1624.07 3390.41 1634.19 3390.67 1646.57 3391.45L1645.99 3392.91L1634.33 3395.34C1646.28 3395.01 1673.23 3404.25 1686.43 3406.78C1705.99 3410.52 1724.14 3413.59 1744.19 3414.3L1747.11 3417.06C1751.99 3417.71 1791.12 3428.19 1795.76 3430.07C1820.44 3431.15 1866 3428.02 1886.21 3433.72L1873.18 3432.34C1895.99 3437.31 1971.84 3444.2 1993.39 3439.36L1993.28 3437.74C1981.96 3436.41 1959.55 3436.58 1951.99 3432.14L1954.71 3434.13L1951.99 3432.16C1956.79 3429.6 2015.89 3432.67 2027.84 3431.33C2030.22 3433.29 2035.65 3437.61 2038.46 3437.92C2068.43 3441.15 2104.84 3440.79 2134.86 3441.12C2103.19 3447.9 2071.54 3438.87 2043.32 3442.75L2042.73 3444.66C2051.12 3449.39 2065.28 3449.39 2074.63 3448.43L2075.3 3447.74C2084.28 3444.98 2140.79 3446.02 2152.69 3446.49C2181.54 3447.63 2234.52 3439.31 2260.1 3441.54C2274.26 3440.91 2325.84 3431.99 2332.08 3432.4C2370.18 3434.89 2370.26 3440.83 2409.96 3435.19C2450.61 3429.41 2518.85 3393.59 2553.78 3394.01C2482.91 3423.34 2409.77 3446.86 2335.08 3464.34C2095.65 3518.64 1845.51 3501.15 1615.97 3414.03C1556.27 3391.98 1487.87 3362.31 1433.59 3328.48Z"/><path fill="#858583" d="M1634.33 3395.34C1646.28 3395.01 1673.23 3404.25 1686.43 3406.78C1705.99 3410.52 1724.14 3413.59 1744.19 3414.3L1747.11 3417.06C1751.99 3417.71 1791.12 3428.19 1795.76 3430.07L1782.17 3433.8C1801.36 3435.16 1926.98 3442.06 1931.32 3446.91L1929.43 3449.55C1851.3 3447.88 1769.26 3442.98 1692.5 3428.73C1689.38 3428.15 1626.14 3406.01 1623.79 3404.79C1634.11 3405.49 1641.18 3405.84 1651.64 3405.63C1646.71 3402.7 1645.35 3401.75 1639.83 3399.99L1636.06 3398.82L1634.33 3395.34Z"/><path fill="#858583" d="M2074.63 3448.43L2075.3 3447.74C2084.28 3444.98 2140.79 3446.02 2152.69 3446.49C2181.54 3447.63 2234.52 3439.31 2260.1 3441.54C2224.87 3449.89 2181.11 3450.62 2143.38 3457.75L2145.77 3457.97C2093.58 3463.76 2025.51 3461.59 1972.53 3457.09C1960.17 3456.04 1949.57 3458.89 1936.93 3455.74L1936.23 3454.09C1969.03 3438.08 2037.63 3457.03 2074.63 3448.43Z"/><path fill="#636461" d="M1779.61 3456.35C1793.7 3453.56 1833.85 3460 1851.06 3461.5C1841.65 3466.23 1788.61 3463.76 1779.61 3456.35Z"/><defs><linearGradient id="gradient_0" gradientUnits="userSpaceOnUse" x1="2369.1709" y1="3448.1917" x2="2333.8176" y2="3322.2039"><stop offset="0" stop-color="#6F6F6D"/><stop offset="1" stop-color="#B1B2AF"/></linearGradient></defs><path fill="url(#gradient_0)" d="M2027.84 3431.33C2036.29 3428.2 2037.67 3430.35 2046.52 3431.13L2045.2 3430.44C2053.26 3431.34 2063.74 3433.66 2071.53 3431.26C2099.37 3422.71 2160.66 3438.14 2184.41 3426.13C2185.11 3425.78 2185.79 3425.4 2186.49 3425.03C2189.74 3426.73 2192.11 3428.04 2195.27 3429.97L2197.98 3431.65L2201.83 3430.08L2199.66 3426.85L2202.79 3424.58C2211.06 3423.52 2212.78 3428.56 2223.83 3430.48C2271.02 3415.94 2322.88 3409.49 2371.02 3399.01C2380.17 3396.88 2389.41 3393.95 2398.01 3390.19C2448.15 3368.29 2500.14 3352.41 2551.57 3334.28C2571.4 3327.29 2585.23 3302.48 2603.68 3293.13C2608.1 3290.88 2608.78 3292.01 2611.09 3287.03C2605.89 3276.11 2584.46 3261.34 2585.32 3253.2C2597.76 3258.56 2623.84 3289.44 2636.34 3300.72L2637.64 3301.87C2651.93 3318.55 2682.18 3340.96 2687.8 3353.75C2681.77 3347.89 2676.67 3342.73 2671 3336.54C2631.33 3357.24 2595 3376.25 2553.78 3394.01C2518.85 3393.59 2450.61 3429.41 2409.96 3435.19C2370.26 3440.83 2370.18 3434.89 2332.08 3432.4C2325.84 3431.99 2274.26 3440.91 2260.1 3441.54C2234.52 3439.31 2181.54 3447.63 2152.69 3446.49C2140.79 3446.02 2084.28 3444.98 2075.3 3447.74L2074.63 3448.43C2065.28 3449.39 2051.12 3449.39 2042.73 3444.66L2043.32 3442.75C2071.54 3438.87 2103.19 3447.9 2134.86 3441.12C2104.84 3440.79 2068.43 3441.15 2038.46 3437.92C2035.65 3437.61 2030.22 3433.29 2027.84 3431.33Z"/><path fill="#B3B3B0" d="M820.838 1805.48C820.127 1824.88 805.178 1869.47 799.779 1891.04C790.657 1928.33 782.781 1965.91 776.163 2003.72C771.309 2030.18 770.561 2076.01 769.411 2102.8C764.962 2206.51 772.846 2319.86 802.989 2419.58C805.681 2444.79 804.78 2473.72 809.083 2498.49C812.154 2516.17 824.993 2512.82 823.44 2537.89C823.344 2539.44 849.381 2609.28 850.736 2612.14C849.517 2616.35 849.636 2616.1 847.99 2619.82L849.743 2624.42C853.754 2625.54 851.726 2625.57 855.824 2624.17C857.568 2629.82 851.944 2634.35 852.406 2636.03C859.339 2661.25 872.961 2672.11 873.114 2699.06L878.967 2699.15L881.159 2701.86C880.138 2706.97 879.489 2709.58 879.208 2714.82L882.852 2718.34L887.122 2713.28C890.952 2720.52 890.191 2722.61 887.43 2730.71C894.937 2736.78 904.374 2743.24 906.238 2752.98C902.95 2756.89 904.768 2755.14 897.05 2755.82C901.479 2763.94 903.511 2764.08 912.194 2767.28C916.85 2772.67 917.004 2772.16 917.835 2779.12C913.516 2789.5 909.708 2791.82 915.726 2802.19L921.528 2803.57L920.198 2805.99C922.169 2802.93 922.565 2797.62 923.27 2793.65C926.082 2794.94 936.224 2813.77 954.092 2823.34C960.254 2837.05 966.353 2856.27 960.231 2870.79L961.49 2872.67C969.684 2871.84 966.209 2870.86 972.54 2874.47C976.523 2881.46 976.242 2881.21 977.186 2889.33L980.154 2884.35C985.848 2886.58 984.433 2885.3 988.597 2889.17C988.49 2900.09 987.082 2893.6 990.322 2899.44C995.675 2909.1 1000.2 2924.74 1004.29 2935.57L1005.55 2932.06L1007.83 2933.21L1008.28 2935.6C1008.9 2938.71 1008.54 2937.49 1009.5 2940.03L1008.59 2943.2L1012.71 2945.44C1017.55 2943.83 1015.84 2944.71 1019.69 2941.19L1023.52 2943.97C1024.46 2951.27 1024.86 2954.09 1026.87 2961.11L1031.81 2957.19C1037.78 2958.28 1035.07 2957 1039.67 2962.11C1040.98 2968.26 1041.41 2968.76 1040.72 2975.19L1039.4 2975.55L1034.75 2967.28L1032.58 2966.9C1029.34 2972.38 1029.93 2969.5 1030.73 2975.82L1038.45 2986.19C1047.32 2986.22 1046.87 2986.36 1054.89 2982.65C1068.9 2995.85 1087.32 3010.03 1090.7 3028.89C1090.1 3025.53 1106.41 3039.38 1101.98 3054.01L1099.86 3055.54C1105.35 3069.39 1135.67 3089.82 1144.44 3105.36C1142.95 3106.16 1141.13 3107.3 1139.61 3107.76C1043.99 3024.84 916.873 2835.48 865.787 2721.23C765.911 2497.87 729.367 2246.75 769.897 2005.09C778.734 1952.4 790.924 1878.76 809.905 1829.04C814.387 1820.91 817.221 1813.97 820.838 1805.48Z"/><path fill="#B3B3B0" d="M3341.48 1827.85C3341.85 1830.98 3342.72 1836.7 3342.63 1839.61C3360.58 1889.54 3369.91 1945.7 3377.74 1998.2C3415.33 2236.63 3381.31 2480.85 3279.98 2699.93C3238.97 2786.9 3193.43 2862.85 3132.83 2937.25C3122.96 2949.36 3088.43 2985.65 3084.17 2996.9C3086.35 2998.41 3010.53 2916.62 3007.54 2913.13C3013.52 2913.29 3039.4 2946.33 3053.03 2950.61C3069.77 2955.87 3093 2954.02 3100.24 2935.91L3103.29 2934.85C3104.3 2937.82 3104.37 2938.33 3105.83 2941.12L3116.76 2937.9L3115.9 2920.78L3118.81 2917.75L3121.41 2918.31L3122.23 2924.84C3127.35 2920.22 3127.2 2912.08 3132.56 2905.31L3138.14 2910.08C3144.89 2907.71 3150.49 2897.39 3155.1 2891.76C3175.05 2867.37 3185.22 2856.33 3199.81 2826.97C3202.57 2821.42 3204.44 2817.58 3209.15 2813.43C3224.4 2799.97 3270.41 2704.58 3281.4 2680.74C3330.61 2573.99 3363.47 2443.17 3379.16 2326.63C3380.56 2316.23 3378.56 2305.57 3379.56 2295.15C3388.57 2201.42 3385.25 2093.4 3371.01 2000.37C3365.66 1965.49 3362.23 1923.59 3349.7 1890.68C3344.53 1877.09 3344.75 1860.2 3338.06 1847.61C3336.75 1845.13 3335.5 1842.79 3334.33 1840.25C3336.22 1833.17 3335.75 1832.67 3341.48 1827.85Z"/><path fill="#85166D" d="M3260.59 1639.56C3286.16 1654.63 3289.67 1649.53 3319.91 1671.24L3323.49 1672.7L3322.01 1675.93C3323.45 1678.13 3324.8 1680.69 3326.63 1682.26C3327.84 1684.47 3332.26 1692.14 3332.85 1694.03L3349.04 1720.12C3353.77 1729.2 3356.04 1733.99 3362.53 1742.17C3357.59 1751.66 3363.59 1772.06 3360.68 1789.56C3357.17 1810.69 3346.53 1824.04 3342.63 1839.61C3342.72 1836.7 3341.85 1830.98 3341.48 1827.85C3331.33 1801.69 3319.34 1774.45 3308.37 1748.48C3301.09 1731.13 3293.93 1713.73 3286.89 1696.28C3278.35 1679.79 3268.31 1656.71 3260.59 1639.56Z"/><path fill="#730E59" d="M3332.85 1694.03L3349.04 1720.12C3353.77 1729.2 3356.04 1733.99 3362.53 1742.17C3357.59 1751.66 3363.59 1772.06 3360.68 1789.56C3357.17 1810.69 3346.53 1824.04 3342.63 1839.61C3342.72 1836.7 3341.85 1830.98 3341.48 1827.85C3331.33 1801.69 3319.34 1774.45 3308.37 1748.48C3318.18 1747.42 3329.49 1745.05 3336.4 1737.81C3343.49 1722.53 3332.58 1710.32 3332.85 1694.03Z"/><path fill="#730E59" d="M3260.59 1639.56C3286.16 1654.63 3289.67 1649.53 3319.91 1671.24C3312.28 1675.72 3312.2 1675.35 3305.06 1668.81C3302.41 1673.14 3301.56 1674.64 3299.55 1679.28L3294.87 1676.77C3294.15 1678.98 3293.45 1681.2 3292.79 1683.43L3285.42 1676.43C3287.2 1682.04 3287.86 1690.45 3286.89 1696.28C3278.35 1679.79 3268.31 1656.71 3260.59 1639.56Z"/><path fill="#85166D" d="M831.535 1673.59L836.158 1672.86C852.883 1658.76 867.759 1646.46 889.112 1641.81C890.08 1647.35 857.996 1720.44 853.498 1728.11C851.15 1734.29 848.9 1741.29 845.266 1746.71C841.582 1748.75 838.032 1750.87 834.574 1753.27C817.066 1752.95 812.678 1738.52 808.241 1724.79L808.911 1723.48C817.977 1709.4 822.713 1698.53 833.494 1684.21L837.503 1678.23L837.365 1677.45C834.122 1674.54 836.016 1675.9 831.535 1673.59Z"/><path fill="#730E59" d="M833.494 1684.21C833.055 1700.35 823.837 1713.77 822.027 1730.66L815.727 1732.14L814.245 1735.35C816.597 1739.47 823.471 1737.17 827.136 1736.36C835.082 1742.75 826.798 1741.56 833.612 1743.66C840.616 1735.23 843.435 1729.25 853.498 1728.11C851.15 1734.29 848.9 1741.29 845.266 1746.71C841.582 1748.75 838.032 1750.87 834.574 1753.27C817.066 1752.95 812.678 1738.52 808.241 1724.79L808.911 1723.48C817.977 1709.4 822.713 1698.53 833.494 1684.21Z"/><path fill="#730E59" d="M801.312 1740.45C801.274 1732.9 803.825 1730.43 808.241 1724.79C812.678 1738.52 817.066 1752.95 834.574 1753.27C838.032 1750.87 841.582 1748.75 845.266 1746.71C841.964 1756.07 828.625 1791.77 823.074 1798.54L820.838 1805.48C817.221 1813.97 814.387 1820.91 809.905 1829.04C796.657 1797.65 793.186 1778.41 796.146 1744.47L801.312 1740.45Z"/><path fill="#460B41" d="M801.312 1740.45C811.859 1760.52 798.048 1794.1 813.891 1801.48L819.679 1797.36L823.074 1798.54L820.838 1805.48C817.221 1813.97 814.387 1820.91 809.905 1829.04C796.657 1797.65 793.186 1778.41 796.146 1744.47L801.312 1740.45Z"/><defs><linearGradient id="gradient_1" gradientUnits="userSpaceOnUse" x1="2031.7585" y1="3004.6802" x2="2077.8647" y2="1529.3717"><stop offset="0" stop-color="#800D6E"/><stop offset="1" stop-color="#BC33A3"/></linearGradient></defs><path fill="url(#gradient_1)" d="M1186.86 1850.02C1186.19 1820.33 1212.87 1792.61 1225.34 1767.89C1229.09 1760.46 1228.19 1739.49 1235.26 1731.79C1256.21 1726.68 1247.66 1701.01 1263.87 1698.66C1294.39 1695.66 1286.41 1669.8 1294.15 1661.58C1337.87 1615.14 1385.19 1568.89 1432.27 1526.06C1440.76 1518.34 1479.71 1489.98 1487.74 1486.51C1511.09 1476.41 1536.2 1494.53 1556.79 1460.93L1556.75 1458.34C1550.72 1459.24 1546.79 1460.01 1540.84 1461.38C1543.6 1458.33 1588.09 1432.44 1594.28 1429.68C1608.56 1423.3 1635.96 1415.07 1651.93 1409.83C1655.35 1410.57 1657.9 1411 1661.22 1412.11L1665.46 1410.86L1665.28 1407.91L1658.74 1404.76C1666.16 1400 1678.64 1400.21 1686.3 1397.15C1722.89 1382.55 1792.53 1383.33 1824.41 1370.15C1818.17 1361.57 1784.42 1367.99 1771.16 1368.23C1797.51 1360.05 1809.29 1356.79 1837.48 1355.71C1944.69 1351.61 2052.2 1351.13 2159.07 1348.91C2159.54 1348.9 2165.86 1353.1 2166.4 1353.47C2168.48 1352.09 2170.56 1350.72 2172.64 1349.34C2206.47 1350.71 2239.63 1353.21 2272.5 1361.37C2342.81 1378.85 2415.82 1387.15 2483.13 1415.08C2487.73 1416.99 2498.16 1416.29 2503.09 1417.83C2514.72 1422.79 2537.47 1431.85 2546.68 1439.25C2543.03 1439.17 2540.47 1439.08 2536.85 1439.69C2542.61 1446.69 2558.53 1446.56 2567.51 1452.34C2595.21 1470.16 2623.84 1486.15 2652.42 1502.3C2666.76 1510.39 2682.62 1526.95 2695.99 1536.79C2714.61 1551.57 2732.97 1577.9 2754.27 1586.04C2764.07 1589.78 2771.14 1611.39 2783.87 1621.71C2791.94 1628.23 2817.49 1652.26 2822.25 1658.99C2833.25 1674.5 2845.31 1696.61 2857 1712.04C2897.14 1765.07 2926.83 1824.12 2952.08 1885.47C2961.2 1907.66 2968.95 1946.07 2976.35 1970.59C2985.09 1999.54 2991.65 2035.74 2994.65 2066.04C2995.94 2079.08 2992.92 2098.4 2991.94 2112.37C2995.04 2164 2996.99 2203.2 2993.38 2254.77C2982.33 2412.75 2916.13 2579.3 2810.08 2698.29C2807.27 2701.44 2804.38 2704.51 2801.41 2707.51C2781.84 2697.74 2760.29 2686.29 2739.28 2680.33C2609.49 2643.52 2462.96 2702.04 2400.88 2823.45C2374.46 2875.12 2374.75 2915.65 2379.76 2971.71C2216.59 3030.31 1933.87 3028.39 1767.78 2980.71C1726.27 2972.97 1640.71 2940.27 1602.57 2922.08L1575.74 2909.09C1446.18 2841.92 1340.97 2753.24 1261.14 2629.77C1171.91 2504.8 1133.94 2360.78 1127.25 2209.46C1122.02 2199.15 1126.89 2103.37 1128.22 2086.3C1128.91 2077.37 1125.59 2034.62 1127.28 2027.79C1136.95 1988.73 1147.89 1949.01 1158.45 1910.1C1159.06 1899.8 1169.01 1882.15 1171.4 1871.64C1175.69 1852.68 1178.88 1862.63 1186.86 1850.02Z"/><defs><linearGradient id="gradient_2" gradientUnits="userSpaceOnUse" x1="2069.074" y1="1788.7175" x2="2098.771" y2="1414.444"><stop offset="0" stop-color="#BD4AA5"/><stop offset="1" stop-color="#C775AC"/></linearGradient></defs><path fill="url(#gradient_2)" d="M1662.09 1471.05C1688.86 1472.97 1734.96 1453.66 1763.6 1452.02C1772.16 1451.53 1780.62 1442.43 1787.46 1437.86C1792.17 1436.72 1843.85 1438.01 1846.9 1434.7L1843.08 1430.83C1849.53 1429.47 1857.57 1431.83 1864.15 1430.98C2047.12 1407.39 2246.49 1406.13 2421.25 1471.51C2437.62 1477.63 2453.82 1489.86 2471.73 1490.69C2483.56 1491.69 2487.8 1491.51 2491.76 1502.06C2500.81 1506.1 2507.55 1496.41 2510.59 1501.47C2514.46 1507.91 2512.44 1508.89 2521.84 1514.13C2543.42 1526.18 2567.9 1533.28 2586.97 1549.49C2589.34 1551.5 2591.17 1552.34 2594 1553.56L2596.1 1559.28C2606.1 1569.13 2608.68 1568.42 2614.23 1582.03L2617.7 1590.36L2621.76 1592.26L2627.44 1589.26C2631.01 1593.63 2630.23 1591.1 2630.57 1596.69C2620.42 1604.36 2619.28 1597.05 2613.45 1606C2617.77 1620.53 2618.18 1598.58 2620.77 1624.22C2617.58 1627.07 2619.51 1625.97 2614.75 1627.13C2620.56 1632.74 2625.19 1635.22 2626.21 1641.79C2624.66 1643.65 2604.57 1664.51 2603.74 1664.98L2602.24 1667.76L2596.5 1671.52C2594.49 1687.84 2585.07 1675.69 2573.23 1684.63L2574.9 1687.07C2573.5 1694.75 2571.59 1697.06 2567.7 1703.69C2562.49 1704 2561.97 1701.57 2556.54 1696.75L2552.74 1697C2551.18 1700.24 2550.75 1701.09 2548.82 1704.25L2543.84 1700.54L2541.55 1702.28C2547.14 1706.09 2546.01 1703.73 2547.55 1708.68C2539.77 1716.86 2529 1719.45 2518.4 1716.02C2511.56 1724.4 2508.17 1724.49 2499.17 1728.98C2498.69 1729.22 2496.09 1737.13 2491.01 1740.64C2489.99 1738.82 2488.97 1737 2487.95 1735.19C2485.13 1740.98 2484.16 1744.25 2480.01 1749.08C2476.11 1744.32 2477.48 1743.31 2477.15 1735.58C2472.27 1737.96 2472.51 1751.52 2463.1 1758.93C2452.8 1758.45 2458.73 1750.21 2447.84 1748.67C2440.2 1755.36 2442.45 1763.81 2435.02 1770.52C2432.88 1766.76 2432.46 1766.15 2430.01 1762.75C2410.38 1774.71 2402.66 1774.38 2380.78 1775.33L2380.38 1781.86L2377.8 1782.14C2360.79 1771.68 2368.94 1780.55 2357.96 1783.65L2354.58 1774.5L2352.82 1775.22L2353.95 1779.42C2351.14 1784.39 2344.26 1787.67 2338.63 1786.88C2335.73 1780.06 2337.47 1781.8 2332.49 1777.23C2327.29 1780.79 2315.67 1788.58 2309.88 1789.86C2299.89 1774.66 2298.83 1789.38 2284.09 1787.81L2281.51 1782.37L2276.33 1782.52C2270.28 1786.44 2269.97 1787.01 2262.84 1789.13C2257.82 1785.02 2257.77 1784.48 2251.36 1782.61C2250.98 1785.02 2250.57 1787.43 2250.14 1789.83L2248.22 1789.8C2246.93 1786.91 2246.12 1785.24 2244.63 1782.32C2242.49 1786.61 2243.06 1785.67 2240.01 1789.69L2236.64 1787.66C2233.99 1790.01 2235.14 1789.24 2234.11 1794.07L2230.78 1794.41C2219.52 1789.36 2230.62 1793.58 2224.09 1784.78C2220.91 1786.44 2217.68 1788.02 2214.41 1789.52C2213.85 1785.14 2214.19 1787.32 2213.42 1782.99C2210.56 1784.67 2211.81 1783.97 2209.99 1788.02L2207.01 1787.11C2205.35 1789.4 2204 1791.6 2202.67 1794.08C2200.56 1788.26 2202.47 1790.17 2198 1787.18C2195.98 1789.88 2194.02 1792.62 2192.12 1795.41L2189.26 1794.8L2189.18 1789.11C2178.07 1787.71 2188.83 1791.79 2178.12 1794.02C2176 1788.72 2175.85 1786.9 2171.65 1783.09C2167.97 1783.75 2160.16 1790.49 2155.96 1793.1L2152.14 1792.13L2152.98 1787.29L2151.27 1785.34C2146.2 1789.31 2146.06 1788.05 2138.5 1788.8C2136.51 1793.25 2137.71 1791.32 2135.07 1794.7C2130.73 1791.26 2127.16 1787.41 2121.92 1786.88L2120.15 1791.6C2114.29 1791.73 2113.63 1789.79 2108.33 1787.11C2089.7 1777.68 2080.44 1797.34 2063.3 1780.93C2054.04 1785.58 2064.43 1785.46 2054.15 1788.08L2051.11 1783.09C2046.51 1783.99 2042.52 1784.96 2037.99 1786.07C2036.73 1781.23 2037.38 1782.73 2034.82 1778.31C2028.94 1781.85 2030.09 1782.17 2023.93 1782.43L2020.1 1777.69C2004.28 1775.58 2019.2 1779.83 2007.4 1782.74C2004.74 1779.46 2002.75 1776.53 2000.34 1773.07L1996.19 1772.43C1975.42 1784.95 1986.66 1776.2 1977.38 1769.5C1969.35 1772.39 1965.46 1774.39 1957.81 1778.33C1955.41 1776.09 1953.37 1773.67 1951.33 1771.11C1947.5 1775.63 1939.91 1779.34 1934.03 1779.74L1931.7 1771.79L1928.15 1769.89C1917.6 1774.24 1929.76 1774.69 1918.77 1778.69L1916.91 1776.97C1920.86 1771.39 1922.55 1771.21 1922.35 1765.82L1919.65 1765.21L1915.89 1773.81L1913.39 1773.03L1913.13 1765.07C1909.74 1768.71 1907.3 1770.46 1903.42 1773.55C1901.75 1771.39 1900.87 1769.59 1899.74 1767.13L1895.18 1766.79L1893.91 1768.62C1893.74 1771.91 1894.29 1770.4 1892.09 1773.09L1889.27 1771.08L1889.1 1763.27L1886.93 1763.18L1883.95 1764.87C1877.52 1762.62 1871.29 1759.27 1865.81 1755.23C1861.78 1760.2 1857.3 1766.75 1851.91 1769.64C1847.88 1764.86 1849.28 1765.55 1849.32 1757.5L1847.52 1757.09L1845.55 1765.9C1842.03 1762.81 1840.59 1760.55 1837.72 1756.89C1834.51 1757.23 1832.23 1757.68 1829.06 1758.25L1827.06 1756.78L1830.9 1751.64L1830.49 1749.04L1825.13 1749.59C1823.44 1754.18 1823.78 1754.09 1819.99 1757.09L1817.79 1756.08L1816.75 1749.44L1814.41 1748.37C1810.44 1753.21 1811.81 1750.5 1810.61 1757.02L1807.29 1757.98L1799.01 1752.45L1796.8 1756.73L1793.72 1756.2C1792.21 1741.82 1778.66 1754.96 1768.85 1740.97C1766.48 1741.6 1764.03 1745.78 1762.07 1748.27L1758.97 1747.87L1753.02 1737.78C1742.03 1737.48 1739.68 1736.42 1729.86 1731.43L1720.79 1734.74L1714.87 1729.12L1711.71 1736.05L1710.08 1736.12C1708.78 1733.19 1707.93 1731.41 1706.43 1728.46L1704.48 1732.04L1700.79 1733.09L1697.67 1731.09C1700.44 1727.13 1699.31 1729.19 1701.13 1724.95C1696.67 1725.36 1695.96 1728.23 1689.64 1729.14C1675.11 1702.23 1677.88 1722.87 1665.97 1720.07C1659.37 1700.76 1654.06 1716.93 1640.95 1707.43C1637.63 1701.66 1639.34 1695.72 1636.86 1692.09C1634.5 1698.43 1633.62 1703.69 1628.14 1707.06L1626.18 1705.95C1627.75 1701.46 1628.25 1700.51 1628.8 1695.84L1626.09 1693.23C1621.68 1694.11 1617.46 1695.31 1613.18 1696.68L1608.84 1689.5L1606.49 1689.05L1608.07 1688.42L1606.58 1688.18C1606.44 1690.92 1606.73 1689.4 1605.28 1692.63C1601.23 1688.71 1602.44 1691.02 1601.47 1685.52C1605.7 1680.98 1605.21 1682.11 1608.08 1676.86C1601.24 1669.8 1608.44 1678.49 1599.26 1677.87C1598.32 1673.96 1599.29 1674.15 1600.95 1669.05L1599.74 1668.04C1596.47 1668.64 1596.19 1668.92 1593.45 1670.62L1589.99 1667.95C1588.05 1661.54 1588.09 1664.8 1590.86 1657.88L1589.43 1656.54L1585.42 1662.82L1582.1 1663.34C1578.17 1658.03 1576.47 1654.79 1573.36 1649.1C1572.97 1653.62 1573.02 1653.82 1571.55 1658.09L1569 1658.69L1566.97 1647.29C1559.57 1645.18 1554.94 1644.46 1550.92 1638.14C1552.81 1636.15 1553.26 1635.32 1555.75 1634.01L1554.06 1631.22C1550.57 1629.92 1551.02 1630.71 1546.28 1631.51L1544.72 1625.04C1550.12 1618 1554.87 1628.13 1563.35 1621.27L1563.79 1616.47C1558.83 1618.64 1560.76 1618.27 1555.34 1618.42C1549.87 1608.25 1553.89 1597.72 1547.05 1585.4C1542.94 1586.15 1544.93 1586.15 1541.1 1585.55C1542.99 1568.67 1557.3 1566.85 1562.96 1555.8C1559.36 1550.5 1559.85 1552.43 1558.48 1546.61L1566.47 1546.83C1566.76 1543.52 1566.64 1540.77 1566.38 1537.47C1574.94 1523.88 1604.57 1500.08 1621.2 1496.7C1641.81 1492.5 1645.87 1489.85 1662.57 1477L1662.09 1471.05Z"/><path fill="#730E59" d="M1186.86 1850.02C1186.19 1820.33 1212.87 1792.61 1225.34 1767.89C1229.09 1760.46 1228.19 1739.49 1235.26 1731.79C1256.21 1726.68 1247.66 1701.01 1263.87 1698.66C1294.39 1695.66 1286.41 1669.8 1294.15 1661.58C1337.87 1615.14 1385.19 1568.89 1432.27 1526.06C1440.76 1518.34 1479.71 1489.98 1487.74 1486.51C1511.09 1476.41 1536.2 1494.53 1556.79 1460.93L1556.75 1458.34C1550.72 1459.24 1546.79 1460.01 1540.84 1461.38C1543.6 1458.33 1588.09 1432.44 1594.28 1429.68C1608.56 1423.3 1635.96 1415.07 1651.93 1409.83C1655.35 1410.57 1657.9 1411 1661.22 1412.11L1665.46 1410.86L1665.28 1407.91L1658.74 1404.76C1666.16 1400 1678.64 1400.21 1686.3 1397.15C1722.89 1382.55 1792.53 1383.33 1824.41 1370.15C1818.17 1361.57 1784.42 1367.99 1771.16 1368.23C1797.51 1360.05 1809.29 1356.79 1837.48 1355.71C1944.69 1351.61 2052.2 1351.13 2159.07 1348.91C2159.54 1348.9 2165.86 1353.1 2166.4 1353.47C2168.48 1352.09 2170.56 1350.72 2172.64 1349.34C2206.47 1350.71 2239.63 1353.21 2272.5 1361.37C2342.81 1378.85 2415.82 1387.15 2483.13 1415.08C2487.73 1416.99 2498.16 1416.29 2503.09 1417.83C2514.72 1422.79 2537.47 1431.85 2546.68 1439.25C2543.03 1439.17 2540.47 1439.08 2536.85 1439.69C2542.61 1446.69 2558.53 1446.56 2567.51 1452.34C2595.21 1470.16 2623.84 1486.15 2652.42 1502.3C2666.76 1510.39 2682.62 1526.95 2695.99 1536.79C2714.61 1551.57 2732.97 1577.9 2754.27 1586.04C2764.07 1589.78 2771.14 1611.39 2783.87 1621.71C2791.94 1628.23 2817.49 1652.26 2822.25 1658.99C2833.25 1674.5 2845.31 1696.61 2857 1712.04C2897.14 1765.07 2926.83 1824.12 2952.08 1885.47C2961.2 1907.66 2968.95 1946.07 2976.35 1970.59C2985.09 1999.54 2991.65 2035.74 2994.65 2066.04C2995.94 2079.08 2992.92 2098.4 2991.94 2112.37C2975.93 2002.18 2957.64 1920.66 2904.75 1819.02C2807.63 1632.41 2640.14 1487.8 2440.32 1422.24C2162.68 1331.16 1818.65 1339 1555.96 1472.7C1364.18 1570.3 1228.42 1750.72 1163.74 1954.18C1166.45 1931.73 1164.05 1933.41 1160.21 1913.21L1159.55 1909.7L1158.45 1910.1C1159.06 1899.8 1169.01 1882.15 1171.4 1871.64C1175.69 1852.68 1178.88 1862.63 1186.86 1850.02Z"/><path fill="#DEC8D2" d="M1186.86 1850.02C1186.19 1820.33 1212.87 1792.61 1225.34 1767.89C1229.09 1760.46 1228.19 1739.49 1235.26 1731.79C1256.21 1726.68 1247.66 1701.01 1263.87 1698.66C1294.39 1695.66 1286.41 1669.8 1294.15 1661.58C1337.87 1615.14 1385.19 1568.89 1432.27 1526.06C1440.76 1518.34 1479.71 1489.98 1487.74 1486.51C1511.09 1476.41 1536.2 1494.53 1556.79 1460.93L1556.75 1458.34C1550.72 1459.24 1546.79 1460.01 1540.84 1461.38C1543.6 1458.33 1588.09 1432.44 1594.28 1429.68C1608.56 1423.3 1635.96 1415.07 1651.93 1409.83C1655.35 1410.57 1657.9 1411 1661.22 1412.11L1665.46 1410.86L1665.28 1407.91L1658.74 1404.76C1666.16 1400 1678.64 1400.21 1686.3 1397.15C1722.89 1382.55 1792.53 1383.33 1824.41 1370.15C1818.17 1361.57 1784.42 1367.99 1771.16 1368.23C1797.51 1360.05 1809.29 1356.79 1837.48 1355.71C1944.69 1351.61 2052.2 1351.13 2159.07 1348.91C2159.54 1348.9 2165.86 1353.1 2166.4 1353.47C2168.48 1352.09 2170.56 1350.72 2172.64 1349.34C2206.47 1350.71 2239.63 1353.21 2272.5 1361.37C2342.81 1378.85 2415.82 1387.15 2483.13 1415.08C2487.73 1416.99 2498.16 1416.29 2503.09 1417.83C2514.72 1422.79 2537.47 1431.85 2546.68 1439.25C2543.03 1439.17 2540.47 1439.08 2536.85 1439.69C2542.61 1446.69 2558.53 1446.56 2567.51 1452.34C2595.21 1470.16 2623.84 1486.15 2652.42 1502.3C2666.76 1510.39 2682.62 1526.95 2695.99 1536.79C2714.61 1551.57 2732.97 1577.9 2754.27 1586.04C2764.07 1589.78 2771.14 1611.39 2783.87 1621.71C2791.94 1628.23 2817.49 1652.26 2822.25 1658.99C2833.25 1674.5 2845.31 1696.61 2857 1712.04C2897.14 1765.07 2926.83 1824.12 2952.08 1885.47C2961.2 1907.66 2968.95 1946.07 2976.35 1970.59C2985.09 1999.54 2991.65 2035.74 2994.65 2066.04C2995.94 2079.08 2992.92 2098.4 2991.94 2112.37C2975.93 2002.18 2957.64 1920.66 2904.75 1819.02C2807.63 1632.41 2640.14 1487.8 2440.32 1422.24C2162.68 1331.16 1818.65 1339 1555.96 1472.7C1364.18 1570.3 1228.42 1750.72 1163.74 1954.18C1166.45 1931.73 1164.05 1933.41 1160.21 1913.21L1159.55 1909.7L1158.45 1910.1C1159.06 1899.8 1169.01 1882.15 1171.4 1871.64C1175.69 1852.68 1178.88 1862.63 1186.86 1850.02Z"/><path fill="#E6CDDA" d="M1158.45 1910.1L1159.55 1909.7L1160.21 1913.21C1164.05 1933.41 1166.45 1931.73 1163.74 1954.18L1157.99 1974.17C1153.3 1992.04 1147.5 2012.25 1144.02 2030.2C1132.25 2093.89 1128.21 2144.93 1127.25 2209.46C1122.02 2199.15 1126.89 2103.37 1128.22 2086.3C1128.91 2077.37 1125.59 2034.62 1127.28 2027.79C1136.95 1988.73 1147.89 1949.01 1158.45 1910.1Z"/><path fill="#DEC8D2" d="M1144.02 2030.2C1142.76 2018.63 1138.97 1994.06 1143.57 1984.32C1147.17 1976.69 1149.9 1977.15 1157.99 1974.17C1153.3 1992.04 1147.5 2012.25 1144.02 2030.2Z"/><path fill="#A42583" d="M1407.67 1595.18C1410.75 1580.07 1430.29 1583.03 1440.57 1585.94C1433.31 1597.63 1420.75 1619.06 1405.5 1611.42L1403.09 1609.75L1398.33 1615.67C1392.67 1612.86 1391.97 1612.34 1391 1606.83C1395.41 1599.52 1399.73 1598.72 1407.67 1595.18Z"/><path fill="#B34194" d="M2600 1551.67C2591.99 1545.02 2590.03 1539.81 2585.05 1530.71L2585.17 1526.95C2599.42 1528.9 2614.57 1549.74 2626.16 1557.26L2627.02 1558.94C2623.25 1558.98 2617.49 1557.95 2613.41 1557.58L2611.4 1557.42C2606.77 1553.99 2605.54 1553.17 2600 1551.67Z"/><defs><linearGradient id="gradient_3" gradientUnits="userSpaceOnUse" x1="1876.7147" y1="1383.964" x2="1892.3347" y2="1423.6227"><stop offset="0" stop-color="#95226E"/><stop offset="1" stop-color="#C33BA0"/></linearGradient></defs><path fill="url(#gradient_3)" d="M1835.09 1398.83C1852.55 1392.57 1933.68 1403.86 1961.75 1404L1961.06 1406.52L1961.18 1406.66C1951.94 1409.73 1938.49 1411.17 1931.6 1414C1911.96 1413.67 1885.83 1415 1866.21 1417.99C1858.81 1419.12 1866.04 1419.77 1859.37 1418.67C1851.35 1421.64 1838.44 1421.85 1829.97 1421.4L1830.81 1418.86L1841.06 1414.95C1834.18 1412.11 1831.75 1412.01 1824.37 1410.52L1823.5 1407.28C1828.08 1404.72 1831.7 1403.02 1835.09 1398.83Z"/><path fill="#85166D" d="M2325.48 1407.53C2338.2 1407.23 2340.72 1413.61 2356.7 1413.96C2404.69 1415.01 2438.08 1435.43 2481.82 1450.96L2484.8 1452C2452.53 1451.93 2427.5 1447.35 2397.6 1432.59C2379.37 1423.6 2346.92 1421.55 2324.22 1413.25L2325.48 1407.53Z"/><path fill="#85166D" d="M2625.28 1528.22L2627.68 1528.27C2643 1539.54 2698.85 1569.42 2707.67 1583.99L2700.04 1582.37L2701.46 1590.14L2700.11 1591.75C2682.39 1572.96 2650.55 1560.94 2633.4 1540.63C2630.15 1536.78 2632.27 1538.02 2627.1 1533.53L2624 1530.88L2625.28 1528.22Z"/><path fill="#85166D" d="M2777.7 1653.6C2788.02 1666.01 2835.42 1716.81 2840.06 1730.33L2833.54 1726.76C2832.65 1725.13 2833.36 1726.12 2830.63 1724.52L2826.12 1725.95C2819.35 1715.05 2799.24 1695.16 2790.76 1683.37C2787.06 1678.24 2774.07 1672.46 2770.68 1664.56L2777.7 1653.6Z"/><path fill="#85166D" d="M1503.69 1513.37C1505.77 1518.44 1505.02 1515.86 1503.48 1522.61C1486.73 1540.28 1478.02 1543.44 1457.46 1554.84C1452.57 1557.56 1440.23 1575.33 1432.6 1578.22C1427.74 1580.05 1423.97 1577.19 1419.25 1575.54L1419.08 1574.06L1421.59 1571.92C1429.54 1565.05 1438.41 1559.69 1447.25 1554.06C1464.83 1542.88 1482.24 1531.43 1500.16 1520.79C1500.48 1520.6 1503.28 1514.24 1503.69 1513.37Z"/><path fill="#A42583" d="M1515.21 1537.28C1524.56 1536.66 1526.29 1534.19 1533.79 1528.51C1534.9 1534.05 1532.4 1536.12 1529.35 1542.57C1525.31 1545.72 1521.82 1547.39 1516.32 1547.68C1498.29 1548.63 1488 1578.95 1470.91 1583.45C1467.93 1584.23 1455.12 1578.67 1451.6 1577.14C1473.71 1568.8 1493.31 1544.04 1515.21 1537.28Z"/><path fill="#85166D" d="M1575.74 2909.09C1585.16 2906.55 1585.74 2906.44 1595.07 2910.64C1603.4 2914.39 1608.85 2911.73 1617.41 2917L1605.3 2917.64L1602.57 2922.08L1575.74 2909.09Z"/><path fill="#B34194" d="M2602.24 1667.76L2605.44 1667.95L2609.04 1665.91L2611.47 1672.54C2604.46 1676.89 2607.97 1676.41 2600.83 1675.32C2599.65 1670.05 2599.43 1672.55 2602.24 1667.76Z"/><path fill="#53266D" d="M2433.49 1985C2477.03 1983.36 2506.44 1987.74 2547.31 2003.29C2563.54 2009.47 2566.4 2013.25 2584.2 2013.32C2592.66 2020.15 2591.97 2032.37 2595.55 2034.91C2607.4 2043.29 2616.87 2043.77 2620.52 2060.5C2622.12 2067.84 2627.78 2060.26 2635.58 2069.82C2630.11 2080.78 2650.73 2101.41 2654.15 2113.85C2656.56 2122.62 2658.71 2128.61 2660.09 2137.74C2664.25 2165.15 2666.29 2192.9 2663.11 2220.51C2662.36 2227.2 2659.9 2231.2 2658.74 2237.06C2657.99 2240.58 2659.78 2261.4 2657.25 2263.39C2643.23 2274.47 2637.8 2286.29 2629.36 2300.78C2624.44 2309.23 2608.03 2320.32 2601.28 2328.21C2564.5 2371.14 2555.32 2377.88 2500.41 2385.72C2493.1 2389.55 2450.09 2390.36 2439.42 2388.03C2425.04 2383.73 2375.82 2384.14 2365.3 2376.16C2330.62 2349.84 2282.26 2299.56 2269.11 2256.96C2257.41 2219.06 2254.82 2191.33 2260.34 2153.74C2262.5 2139.08 2259.37 2127.68 2266.99 2114.69C2273.59 2102.57 2283.24 2093.45 2290.36 2082.19C2298.22 2069.74 2301.54 2061.39 2311.4 2048.71C2332.54 2022.88 2371.15 2007.28 2400.78 1992.89C2406.98 1989.88 2424.32 1988.32 2433.49 1985Z"/><path fill="#BFE8EC" d="M2439.19 1992.64C2544.61 1981.94 2638.68 2058.87 2649.11 2164.32C2659.54 2269.76 2582.35 2363.64 2476.88 2373.79C2371.8 2383.9 2278.35 2307.07 2267.96 2202.01C2257.57 2096.96 2334.16 2003.31 2439.19 1992.64Z"/><defs><linearGradient id="gradient_4" gradientUnits="userSpaceOnUse" x1="2465.8857" y1="2362.1267" x2="2455.2739" y2="2017.5297"><stop offset="0" stop-color="#59CCC8"/><stop offset="1" stop-color="#86F5ED"/></linearGradient></defs><path fill="url(#gradient_4)" d="M2613.32 2080.53C2643.37 2131.02 2650.09 2193.53 2631.93 2249.04C2618.07 2291.41 2577.81 2332.97 2539.99 2354.38C2507.9 2372.54 2435.98 2373.82 2401.84 2360.7C2352.09 2341.96 2311.76 2304.32 2289.63 2255.98C2274.64 2223.18 2272.72 2158.4 2285.84 2125.29C2301.27 2086.38 2319.75 2066.79 2352.21 2044.22C2385.96 2020.74 2370.76 2022.2 2414.3 2019.16C2454.55 2016.35 2495.81 2008.92 2534.51 2023.86C2560.11 2020.42 2574.3 2039.63 2590.07 2056.79C2599.25 2066.79 2604.6 2068.26 2613.32 2080.53Z"/><path fill="#91D3D6" d="M2534.51 2023.86C2560.11 2020.42 2574.3 2039.63 2590.07 2056.79C2599.25 2066.79 2604.6 2068.26 2613.32 2080.53C2612.03 2080.18 2605.58 2078.52 2604.72 2078.59C2598.35 2079.34 2565.32 2057.95 2563.77 2053.82C2553.94 2027.77 2550.32 2035.89 2534.51 2023.86Z"/><path fill="#91D3D6" d="M2451.34 2054.03C2481.14 2047.48 2488.41 2059.54 2511.68 2066.93C2579.28 2088.41 2602.25 2163.82 2581.43 2226.6C2576.78 2240.64 2558.68 2266.38 2546.6 2279.26L2543.95 2282.06C2534.38 2292.37 2522.11 2291.45 2517.69 2297.18C2498.87 2321.58 2489.59 2312.21 2463.92 2318.35L2460.32 2319.24C2450.77 2318.56 2449.67 2320.54 2438.92 2319.29C2439.17 2319.49 2431.68 2313.5 2431.9 2313.77C2424.36 2304.35 2400.15 2301.89 2393.82 2296.18C2370.23 2274.88 2341.12 2240.08 2335.91 2207.8C2330.31 2173.07 2337.73 2134.67 2357.19 2106.07C2381.08 2070.95 2412.62 2061.6 2451.34 2054.03Z"/><path fill="#53266D" d="M2449.03 2063.6C2515.58 2057.57 2574.42 2106.61 2580.48 2173.15C2586.54 2239.69 2537.52 2298.56 2470.98 2304.64C2404.41 2310.72 2345.51 2261.67 2339.45 2195.09C2333.39 2128.52 2382.46 2069.64 2449.03 2063.6Z"/><defs><linearGradient id="gradient_5" gradientUnits="userSpaceOnUse" x1="2460.2271" y1="2281.4814" x2="2456.4138" y2="2117.9963"><stop offset="0" stop-color="#6E0E63"/><stop offset="1" stop-color="#A91B8C"/></linearGradient></defs><path fill="url(#gradient_5)" d="M2367.41 2120.09C2387.76 2055.42 2516.01 2054.23 2545.45 2110.2C2559.54 2123.49 2569.09 2165.33 2569.53 2184.98C2569.64 2189.74 2569.41 2198.13 2567.84 2202.75C2565.08 2210.86 2559.33 2218.85 2556 2226.84C2552.63 2234.94 2550.8 2244.13 2547.02 2251.99C2545.99 2254.15 2541.37 2260.51 2539.55 2262.11C2516.13 2282.78 2477.72 2290.21 2447.41 2289.59C2425.66 2289.14 2416.78 2285.54 2402.14 2271.3C2398.71 2267.96 2382.53 2250.7 2381.57 2253.97C2381.39 2254.58 2384.17 2253.85 2376.2 2255.78C2342.22 2235.19 2362.91 2208.14 2350.31 2178.36C2344.61 2164.86 2356.97 2130.39 2367.41 2120.09Z"/><defs><linearGradient id="gradient_6" gradientUnits="userSpaceOnUse" x1="2457.2939" y1="2161.01" x2="2447.6675" y2="2078.0386"><stop offset="0" stop-color="#A21E83"/><stop offset="1" stop-color="#C35FAA"/></linearGradient></defs><path fill="url(#gradient_6)" d="M2367.41 2120.09C2387.76 2055.42 2516.01 2054.23 2545.45 2110.2C2513.09 2157.49 2453.63 2177.15 2401.6 2148.76C2378.71 2136.26 2365.18 2160.21 2367.41 2120.09Z"/><path fill="#53266D" d="M1617.49 1984.99C1636.82 1984.93 1670.24 1984.11 1688.51 1986.31L1692.54 1986.82C1734.33 1991.85 1797.56 2046.54 1818.36 2084.18C1859.93 2159.4 1852.42 2260.75 1793.99 2325.31C1783.95 2336.41 1735.08 2380.11 1723.16 2386.93C1713.93 2387.11 1688.39 2386.78 1683.12 2394.22L1679.67 2393.96L1677.2 2394.85C1648.65 2405.33 1595.46 2390.2 1565.05 2381.87L1561.57 2380.91C1531.78 2372.76 1483.46 2296.92 1462.45 2274.08C1452.97 2263.78 1446.35 2183.31 1449.96 2165.59C1457.97 2126.28 1468.92 2080.43 1495.44 2049.45C1523.77 2026.98 1583.98 1991.16 1617.49 1984.99Z"/><path fill="#BFE8EC" d="M1633.14 1992.42C1738.59 1983.67 1831.17 2062.05 1839.94 2167.5C1848.71 2272.95 1770.34 2365.55 1664.89 2374.33C1559.42 2383.11 1466.8 2304.72 1458.03 2199.25C1449.26 2093.78 1527.67 2001.17 1633.14 1992.42Z"/><defs><linearGradient id="gradient_7" gradientUnits="userSpaceOnUse" x1="1613.9401" y1="2357.9885" x2="1680.6923" y2="2009.9945"><stop offset="0" stop-color="#56CCC9"/><stop offset="1" stop-color="#88F0ED"/></linearGradient></defs><path fill="url(#gradient_7)" d="M1711.28 2013.91C1711.88 2014.04 1712.47 2014.16 1713.06 2014.29C1868.91 2075.02 1863.6 2261.5 1737.51 2349.66C1697.8 2377.43 1632.54 2371.44 1594.4 2361.47C1589.06 2360.36 1586.35 2359.45 1581.27 2357.96C1570.77 2354.86 1560.71 2347.45 1551.71 2340.99C1546.02 2336.91 1532.57 2328.77 1528.69 2324.96C1506.7 2303.4 1488.79 2269.13 1473.85 2242.15C1467.24 2230.22 1470.93 2227.8 1469.87 2215.13C1469.59 2211.67 1466.43 2204.8 1466.07 2202.13C1461.27 2166.67 1475.43 2116.03 1493.68 2086.79C1539.89 2012.77 1583.9 2011.69 1663.39 2015.55C1675.75 2016.15 1697.96 2018.04 1709.47 2014.51C1710.08 2014.31 1710.68 2014.11 1711.28 2013.91Z"/><path fill="#91D3D6" d="M1633.49 2057C1635.66 2056.94 1637.83 2056.91 1640 2056.89C1720.58 2056.15 1778.74 2108.16 1777.73 2188.42C1776.95 2249.99 1744.98 2275.77 1698.22 2303.25C1682.97 2312.2 1684.49 2312.1 1665.85 2316.55C1664.6 2316.94 1661.1 2318.1 1659.76 2318.1C1641.45 2318.12 1597.43 2320.32 1584.1 2306.9C1578.02 2300.78 1573.57 2289.29 1563.87 2281.91C1540.41 2264.04 1526.5 2234.92 1521.48 2206.26C1515.42 2170.81 1523.69 2134.4 1544.48 2105.05C1565.54 2075.8 1598.95 2062.58 1633.49 2057Z"/><path fill="#85166D" d="M1590.54 2078.18C1648.09 2047.08 1719.93 2067.36 1752.72 2123.96C1785.51 2180.56 1767.37 2252.98 1711.76 2287.42C1656.15 2321.87 1583.23 2305.87 1547.15 2251.3C1511.08 2196.73 1524.92 2123.37 1578.4 2085.7C1582.3 2082.96 1586.35 2080.45 1590.54 2078.18Z"/><defs><linearGradient id="gradient_8" gradientUnits="userSpaceOnUse" x1="1657.171" y1="2184.1626" x2="1671.995" y2="2077.4436"><stop offset="0" stop-color="#9A157D"/><stop offset="1" stop-color="#C061A6"/></linearGradient></defs><path fill="url(#gradient_8)" d="M1589.03 2089.67C1602.69 2074.01 1678.59 2067.28 1698.62 2077.92C1723.07 2090.9 1731.33 2115.63 1750.74 2132.24C1751.21 2141.83 1751.62 2157.16 1745.08 2164.45C1742.06 2167.81 1732.3 2173.11 1728.01 2175.8C1726.25 2176.9 1708.94 2187.68 1708.96 2187.68C1695.81 2187.21 1681.63 2182.27 1668.38 2184.19C1660.24 2185.37 1651.78 2184.98 1643.21 2182.97C1621.58 2177.89 1607.49 2170 1594.63 2150.68C1584.62 2135.64 1581.27 2118.73 1582.48 2099.97C1582.8 2095 1586.1 2102.19 1589.03 2089.67Z"/><path fill="#53266D" d="M1590.54 2078.18C1648.09 2047.08 1719.93 2067.36 1752.72 2123.96C1785.51 2180.56 1767.37 2252.98 1711.76 2287.42C1656.15 2321.87 1583.23 2305.87 1547.15 2251.3C1511.08 2196.73 1524.92 2123.37 1578.4 2085.7C1575.54 2092.73 1575.7 2090.41 1572.96 2094.95C1563.5 2110.62 1554.32 2131.01 1545 2146.73C1544.66 2166.15 1547.21 2183.54 1549.22 2202.85C1549.72 2207.65 1549.94 2234.01 1551.37 2236.56C1564.01 2259.1 1586.49 2266.85 1609.1 2276.42L1605.27 2275.78C1643.04 2291.09 1690.35 2289.21 1719.78 2257.92C1754.75 2220.74 1753.73 2245.3 1752.45 2187.16C1751.97 2165.69 1769.95 2163.91 1750.74 2132.24C1731.33 2115.63 1723.07 2090.9 1698.62 2077.92C1678.59 2067.28 1602.69 2074.01 1589.03 2089.67L1586.93 2086.65C1587.72 2081.21 1587.29 2083.22 1590.54 2078.18Z"/><path fill="#53266D" d="M1879.64 2505.9C1885.27 2508.72 1884.05 2508.31 1889.89 2509.25C1979.74 2523.7 2069.11 2529.99 2159.63 2515.97C2166.38 2514.93 2173.97 2516.09 2180.58 2515.07C2195.37 2512.79 2209.97 2507.07 2224.96 2505.87C2230.87 2505.4 2241.13 2510.26 2247.41 2512.05C2254.05 2518.58 2260.29 2525.94 2262.67 2535.03C2256.27 2550.6 2254.27 2574.16 2236.35 2579.26C2231.86 2580.54 2234.02 2582.97 2226.47 2582.56C2215.52 2582.22 2208.07 2584.13 2197.97 2588.55L2208.15 2590.58L2208.46 2592C2166.29 2593.69 2140.5 2600.96 2102.17 2606.44C2056.71 2612.94 1947.36 2605.36 1904.18 2589.33L1911.71 2590.98C1892.36 2583.98 1837.21 2567.87 1846.38 2535.47C1850.74 2520.1 1867.79 2513.99 1879.64 2505.9Z"/><path fill="#BFE8EC" d="M2227.75 2516.4C2261.49 2526.29 2252.14 2550.63 2225.25 2562.26C2187.3 2578.67 2146.4 2586.43 2105.65 2592.05C2033.06 2602.07 1957.77 2590.51 1888.9 2566.77C1873.21 2560.87 1854.76 2549.15 1860.91 2529.84C1877.23 2511.73 1904.68 2524.54 1927.12 2530.58C2000.2 2550.95 2077.18 2552.99 2151.25 2536.52C2176.66 2530.85 2202.43 2520.49 2227.75 2516.4Z"/><path fill="#76D1D0" d="M2189.26 2534.07C2203.42 2529.25 2233.99 2515.39 2241.04 2536.22C2238.34 2551.47 2216.9 2563.1 2203.22 2566.46C2185.32 2571.79 2167.17 2576.22 2148.84 2579.74C2079.49 2593.67 2033 2595.58 1962.86 2580.48C1940.83 2575.74 1907.53 2571.95 1889.09 2558.42C1880.99 2552.48 1869.02 2546.5 1867.12 2536.78C1875.67 2523.12 1900.63 2530.14 1913.89 2534.02C2017.41 2564.36 2085.69 2559.44 2189.26 2534.07Z"/><path fill="#91D3D6" d="M2189.26 2534.07C2203.42 2529.25 2233.99 2515.39 2241.04 2536.22C2238.34 2551.47 2216.9 2563.1 2203.22 2566.46C2205.42 2560.88 2218.59 2557.74 2224.86 2548.99L2223.67 2545.26C2212.16 2536.83 2203.36 2533.85 2189.26 2534.07Z"/><path fill="#B34194" d="M1528.86 1568.01L1534.91 1569.68C1536.98 1576.37 1533.35 1569.88 1530.67 1584.82C1532.56 1586.71 1532.06 1585.58 1532.19 1588.21L1528.71 1588C1525.19 1578.76 1526.91 1579.47 1528.86 1568.01Z"/><path fill="#85166D" d="M433.292 1415.86C454.108 1404.85 472.133 1397.79 496.075 1396.69C555.634 1393.93 616.361 1439.43 619.242 1501.21C619.672 1510.44 619.999 1522.68 621.437 1531.66C606.989 1542.89 602.997 1549.15 591.031 1562.68C586.968 1571.27 571.407 1598.96 576.434 1606.51C571.388 1606.54 564.352 1609.99 560.032 1612.64C507.011 1645.2 438.987 1630.1 403.235 1576.31C385.622 1549.44 379.43 1516.67 386.026 1485.22C392.393 1453.46 407.006 1433.48 433.292 1415.86Z"/><path fill="#730E59" d="M433.292 1415.86L439.651 1418.47C439.87 1432.64 424.505 1446.37 425.782 1460.06C426.292 1465.53 427.829 1472.35 426.006 1477.3C421.327 1471.3 422.187 1463.71 416.075 1455.36L412.132 1454C387.388 1474.01 391.081 1595.05 443.185 1596.94C486.274 1598.51 528.019 1596.8 570.803 1596.47L566.552 1595.11L565.715 1592.72L573.245 1590.93L574.621 1587.92C567.38 1588.31 554.989 1590.7 550.163 1588.55C549.619 1589.04 593.182 1562.05 591.031 1562.68C586.968 1571.27 571.407 1598.96 576.434 1606.51C571.388 1606.54 564.352 1609.99 560.032 1612.64C507.011 1645.2 438.987 1630.1 403.235 1576.31C385.622 1549.44 379.43 1516.67 386.026 1485.22C392.393 1453.46 407.006 1433.48 433.292 1415.86Z"/><path fill="#A42583" d="M477.426 1478.52C480.794 1482.83 483.501 1486.29 487.24 1490.36C479.673 1489.51 478.013 1487.94 472.461 1490.82L471.539 1495.99C463.546 1494.33 442.17 1472.77 443.23 1463.53L448.487 1465.26C450.662 1458.79 448.618 1455.46 446.373 1447.89C449.664 1447.89 447.989 1447.76 451.395 1448.34C466.628 1435.96 470.806 1422.98 492.267 1422.8L480.147 1419.31L479.51 1417.71C492.63 1414.01 532.409 1418.91 542.834 1427.19L538.755 1429.33L533.456 1426.17L532.301 1427.17C538.692 1434.18 543.082 1439.1 552.838 1439.64L554.103 1442.1L550.969 1443.01C566.679 1480.11 549.096 1473.2 528.86 1500.3C522.769 1500.89 522.102 1500.6 515.944 1499.73L514.576 1501.7L516.455 1501.69C522.278 1501.7 523.808 1501.28 528.97 1504.11L527.782 1506.47C509.623 1507.16 480.481 1509.32 463.709 1506.12L462.681 1503L465.456 1499.11C485.245 1504.54 489.17 1501.93 507.883 1499.67L507.553 1500.37C515.546 1497.86 512.098 1499.93 518.028 1493.51L518.196 1489.69C511.354 1491.09 506.253 1492.16 499.329 1492.91C492.596 1490.04 494.817 1491.25 490.595 1483.06C484.572 1478.81 484.481 1479.22 477.426 1478.52Z"/><path fill="#BE5BA2" d="M477.426 1478.52C469.915 1472.86 464.55 1467.78 463.114 1458.18C467.983 1436.44 500.564 1431.76 519.16 1436.52C521.914 1437.23 524.653 1438 527.374 1438.83C533.59 1446.39 541.512 1455.37 546.586 1463.53C536.63 1479.54 535.938 1482.13 518.196 1489.69C511.354 1491.09 506.253 1492.16 499.329 1492.91C492.596 1490.04 494.817 1491.25 490.595 1483.06C484.572 1478.81 484.481 1479.22 477.426 1478.52Z"/><path fill="#85166D" d="M3547.96 1531.14C3548.64 1492.34 3557.54 1456.79 3586.61 1428.96C3609.89 1406.93 3641.03 1395.11 3673.07 1396.15C3705.02 1397.08 3735.37 1412.59 3756.44 1435.5C3825.21 1510.29 3760.61 1637.03 3660.66 1628.76C3636.11 1626.73 3618.16 1618.76 3597.54 1605.67C3595.66 1604.5 3590.26 1606.7 3588.75 1607.36L3590.87 1602.94C3587.04 1584.95 3561.13 1544.77 3547.96 1531.14Z"/><path fill="#A42583" d="M3652.59 1408.99C3670.2 1410.73 3741.18 1401.35 3739.58 1433.89C3733.24 1428.36 3726.77 1421.09 3719.28 1420.47C3724.02 1426.55 3733.05 1437.5 3733.53 1444.81C3735.48 1474.62 3721.71 1485.13 3703.48 1504.51C3703.62 1510.25 3704.65 1507.84 3701.12 1512.16C3672.85 1519.78 3659.71 1529.02 3633.86 1505.53C3585.02 1461.17 3623.39 1451.73 3620.04 1432.18C3622.83 1426.92 3632.65 1422.11 3638.21 1418.74L3637.91 1416.87L3625.97 1415.21C3628.72 1412.26 3646.96 1410.02 3652.59 1408.99Z"/><path fill="#B34194" d="M3655.35 1427.77C3673.72 1432.56 3694.63 1414.8 3710.63 1450.79C3714.04 1458.59 3714.22 1467.42 3711.15 1475.36C3705.31 1490.25 3696.15 1495.18 3682.51 1501.1C3670.62 1502.74 3662.88 1502.87 3650.81 1503.01C3612.52 1476.22 3606.32 1445.28 3655.35 1427.77Z"/><path fill="#BE5BA2" d="M3663.46 1440.41C3700.08 1442.14 3704.91 1472.24 3666.31 1480.91C3635.78 1483.83 3621.21 1442.8 3663.46 1440.41Z"/><defs><linearGradient id="gradient_9" gradientUnits="userSpaceOnUse" x1="3478.1013" y1="1665.6649" x2="3440.1257" y2="1604.6271"><stop offset="0" stop-color="#D2D2D1"/><stop offset="1" stop-color="#FAFBF9"/></linearGradient></defs><path fill="url(#gradient_9)" d="M3547.96 1531.14C3561.13 1544.77 3587.04 1584.95 3590.87 1602.94L3588.75 1607.36C3520 1643.36 3454.48 1686.72 3387.73 1726.36C3379.78 1731.08 3369.92 1736.79 3362.53 1742.17C3356.04 1733.99 3353.77 1729.2 3349.04 1720.12L3332.85 1694.03C3332.26 1692.14 3327.84 1684.47 3326.63 1682.26C3324.8 1680.69 3323.45 1678.13 3322.01 1675.93L3323.49 1672.7C3348.3 1659.06 3381.08 1637.41 3405.63 1621.86L3547.96 1531.14Z"/><path fill="#E5E5E4" d="M3326.63 1682.26C3346.49 1676.37 3360.01 1706.38 3349.04 1720.12L3332.85 1694.03C3332.26 1692.14 3327.84 1684.47 3326.63 1682.26Z"/><defs><linearGradient id="gradient_10" gradientUnits="userSpaceOnUse" x1="684.32654" y1="1665.3772" x2="722.97192" y2="1604.2407"><stop offset="0" stop-color="#D1D1D1"/><stop offset="1" stop-color="#FCFCFB"/></linearGradient></defs><path fill="url(#gradient_10)" d="M621.437 1531.66C690.067 1580.6 763.195 1625.32 831.535 1673.59C836.016 1675.9 834.122 1674.54 837.365 1677.45L837.503 1678.23L833.494 1684.21C822.713 1698.53 817.977 1709.4 808.911 1723.48L808.241 1724.79C803.825 1730.43 801.274 1732.9 801.312 1740.45L796.146 1744.47C791.118 1735.06 599.522 1620.19 576.434 1606.51C571.407 1598.96 586.968 1571.27 591.031 1562.68C602.997 1549.15 606.989 1542.89 621.437 1531.66Z"/><path fill="#E5E5E4" d="M808.911 1723.48C793.182 1718.4 804.682 1703.03 811.549 1695.64L813.823 1696.04C811.261 1701.18 808.262 1705.93 805.299 1710.85L807.436 1713.58L807.437 1713.4C824.461 1693.37 813.572 1692.93 820.508 1681.75C827.422 1677.33 828.836 1677.99 837.503 1678.23L833.494 1684.21C822.713 1698.53 817.977 1709.4 808.911 1723.48Z"/><path fill="#F5A200" d="M1980 2650C1980 2650 1700 2700 1550 2850C1500 2910 1510 2980 1580 3010C1700 3060 1900 3040 2048 3030C2196 3020 2400 3000 2500 2960C2580 2930 2590 2860 2530 2810C2380 2690 2100 2650 1980 2650Z"/><path fill="#E89000" d="M1980 2650C1980 2650 1700 2700 1550 2850C1500 2910 1510 2980 1580 3010C1580 3010 1560 2950 1600 2910C1750 2770 2020 2720 2180 2700C2340 2680 2500 2690 2530 2810C2590 2860 2580 2930 2500 2960C2400 3000 2196 3020 2048 3030C1900 3040 1700 3060 1580 3010C1700 3060 1900 3040 2048 3030C2196 3020 2400 3000 2500 2960C2580 2930 2590 2860 2530 2810C2380 2690 2100 2650 1980 2650Z"/></svg>
