<?xml version="1.0" encoding="utf-8" ?><svg xmlns="http://www.w3.org/2000/svg" xmlns:xlink="http://www.w3.org/1999/xlink" width="500" height="500" viewBox="0 0 500 500"><path fill="#E2E1E1" transform="scale(0.488281 0.488281)" d="M222.545 410.771C222.534 410.478 222.494 409.983 222.616 409.736C272.667 308.056 378.635 238.04 491.754 232.234C535.009 230.014 571.977 232.983 611.314 243.882C685.248 264.581 749.682 310.346 793.578 373.336C803.3 387.412 807.026 396.08 814.909 410.043C820.427 411.359 826.381 414.318 830.32 418.442C833.78 424.728 837.405 428.966 840.244 435.877C841.814 445.136 840.223 451.7 835.432 459.692C836.605 464.855 838.463 469.845 839.789 474.966C841.604 481.97 842.887 489.176 844.063 496.313C858.584 584.438 833.845 683.619 770.493 748.766C778.884 756.258 787.324 765.114 795.204 773.152C806.313 784.484 819.277 796.126 826.825 810.133C837.115 829.838 832.136 854.699 817.217 870.799C801.296 887.981 780.652 892.67 758.499 895.02C722.205 898.869 702.636 872.35 680.681 848.456C676.741 844.168 672.652 838.689 668.431 834.552C654.337 841.26 629.102 852.865 614.597 857.225C614.476 857.285 614.355 857.345 614.234 857.406C551.904 881.286 465.477 878.832 405.853 854.425C400.812 852.976 387.623 846.99 382.658 844.614C355.731 831.73 330.118 816.396 307.403 796.938C302.256 792.529 294.86 786.488 290.404 781.464C271.516 766.007 248.638 736.129 235.744 715.112C192.389 644.449 179.835 569.223 194.768 487.955C196.732 477.267 199.992 467.849 202.48 457.472C199.887 450.17 197.701 443.27 199.737 435.451C202.299 429.989 206.178 422.724 209.86 418.021C214.36 414.03 216.883 412.365 222.545 410.771Z"/><defs><linearGradient id="gradient_0" gradientUnits="userSpaceOnUse" x1="525.85834" y1="870.69061" x2="520.9411" y2="825.46021"><stop offset="0" stop-color="#818081"/><stop offset="1" stop-color="#A7A6A6"/></linearGradient></defs><path fill="url(#gradient_0)" transform="scale(0.488281 0.488281)" d="M290.404 781.464C292.326 781.414 292.57 782.201 294.359 783.903C313.926 802.5 335.808 818.499 359.463 831.504C366.065 835.151 374.851 840.385 382.221 841.67C407.929 846.153 434.226 853.364 460.256 854.829C520.369 858.214 590.861 861.218 640.662 821.754C643.431 819.559 644.632 815.427 648.326 815.16C644.78 811.378 622.285 788.774 622.021 785.734C622.012 785.73 631.911 796.471 632.865 797.478L668.431 834.552C654.337 841.26 629.102 852.865 614.597 857.225C614.476 857.285 614.355 857.345 614.234 857.406C551.904 881.286 465.477 878.832 405.853 854.425C400.812 852.976 387.623 846.99 382.658 844.614C355.731 831.73 330.118 816.396 307.403 796.938C302.256 792.529 294.86 786.488 290.404 781.464Z"/><path fill="#636263" transform="scale(0.488281 0.488281)" d="M405.853 854.425C410.428 854.871 434.609 863.945 436.274 863.126L434.725 862.109L435.489 861.527C432.883 861.176 431.7 860.528 429.549 859.071C427.058 858.933 427.666 859.351 426.304 857.953C430.468 857.817 444.763 861.265 449.562 861.943C454.18 862.596 458.854 861.5 463.704 862.326C477.526 864.688 490.799 865.576 504.797 865.509C521.688 865.427 537.422 866.788 554.212 864.108C562.797 862.738 593.988 855.548 600.119 858.354C595.743 860.366 581.909 859.684 579.272 861.815C580.068 862.856 579.878 862.257 580.032 863.558C585.792 867.814 611.777 856.059 614.597 857.225C614.476 857.285 614.355 857.345 614.234 857.406C551.904 881.286 465.477 878.832 405.853 854.425Z"/><path fill="#7C1960" transform="scale(0.488281 0.488281)" d="M814.909 410.043C820.427 411.359 826.381 414.318 830.32 418.442C833.78 424.728 837.405 428.966 840.244 435.877C841.814 445.136 840.223 451.7 835.432 459.692C832.54 448.602 820.323 420.552 814.909 410.043Z"/><defs><linearGradient id="gradient_1" gradientUnits="userSpaceOnUse" x1="214.35367" y1="453.06122" x2="207.97282" y2="414.04895"><stop offset="0" stop-color="#500D41"/><stop offset="1" stop-color="#9D3586"/></linearGradient></defs><path fill="url(#gradient_1)" transform="scale(0.488281 0.488281)" d="M209.86 418.021C214.36 414.03 216.883 412.365 222.545 410.771C222.45 413.124 204.72 451.819 202.48 457.472C199.887 450.17 197.701 443.27 199.737 435.451C202.299 429.989 206.178 422.724 209.86 418.021Z"/><defs><linearGradient id="gradient_2" gradientUnits="userSpaceOnUse" x1="520.51672" y1="752.8067" x2="510.21747" y2="367.1824"><stop offset="0" stop-color="#881872"/><stop offset="1" stop-color="#A9289A"/></linearGradient></defs><path fill="url(#gradient_2)" transform="scale(0.488281 0.488281)" d="M281.831 546.667C281.911 539.751 282.347 532.844 283.139 525.973C289.541 470.223 318.103 419.393 362.392 384.932C406.586 350.073 484.359 335.107 539.44 341.586C541.098 341.64 546.576 341.862 548.041 342.356C572.017 344.177 607.991 352.983 629.831 363.023C635.732 365.765 641.516 368.749 647.17 371.97C648.661 372.804 654.546 376.258 655.568 376.654C661.345 376.466 685.78 400.055 691.629 404.122L691.014 403.306C698.825 409.215 705.451 415.315 710.361 423.665C712.824 427.854 719.88 433.166 722.227 437.987C727.747 449.157 731.677 461.605 735.843 473.362C736.986 476.588 743.153 492.054 741.794 493.883C743.516 501.787 745.809 510.802 746.929 518.729C753.452 564.916 744.72 611.441 719.996 651.135C714.455 660.031 707.047 669.121 700.549 677.466C683.871 667.615 666.084 664.459 647.044 669.358C627.99 674.074 611.651 686.292 601.741 703.237C594.471 715.782 593.383 729.072 594.846 743.297C521.296 765.021 422.499 754.818 361.115 706.586C328.449 680.918 301.925 644.454 289.984 604.5C286.444 592.838 279.757 558.574 281.831 546.667Z"/><defs><linearGradient id="gradient_3" gradientUnits="userSpaceOnUse" x1="518.36707" y1="513.4408" x2="525.66217" y2="350.58173"><stop offset="0" stop-color="#AC2B95"/><stop offset="1" stop-color="#C975B1"/></linearGradient></defs><path fill="url(#gradient_3)" transform="scale(0.488281 0.488281)" d="M510.339 350.185C524.657 350.187 532.993 350.675 546.998 351.6C552.136 352.215 568.565 354.355 572.822 355.98C574.497 355.753 573.672 355.656 575.336 356.531C597.079 358.793 623.561 370.589 642.833 381.006C649.121 384.405 655.524 390.161 661.564 394.066C667.839 398.123 675.528 402.071 679.913 408.38C683.378 414.632 690.186 420.716 693.593 427.659C698.168 436.982 708.469 445.064 704.862 456.654C702.458 466.234 689.228 470.923 684.689 479.435C683.057 482.497 678.838 484.196 676.824 486.442C670.765 493.199 669.665 496.748 660.71 500.145C652.837 503.132 639.125 497.129 633.025 500.457C634.485 502.333 636.937 502.005 639.295 504.136L638.933 504.629C617.395 491.948 589.724 497.988 575.43 518.491C573.823 515.817 577.567 511.912 574.077 510.552C568.318 513.572 564.913 509.556 559.351 512.862C554.948 515.478 547.106 510.226 542.295 509.762C535.033 509.063 528.345 508.285 521.25 506.531C520.259 505.577 519.952 505.248 518.826 504.483L518.303 505.214C515.043 505.905 509.079 506.797 505.867 506.367C502.468 502.15 498.423 509.902 492.795 508.007C488.607 507.222 482.165 508.921 478.049 509.289C466.29 510.341 457.967 510.203 447.425 504.42C447.379 504.394 439.102 502.57 437.035 501.802L436.234 502.555L436.082 502.156L435.92 502.635C436.664 503.356 437.032 503.907 437.561 504.797C436.037 503.98 434.498 503.192 432.944 502.433C418.629 495.496 408.408 496.728 394.009 501.728C394.481 500.473 394.592 500.781 396.192 499.973C393.323 495.959 380.474 490.608 376.13 487.514C375.627 487.156 372.924 483.028 372.397 482.23C367.623 481.114 362.333 474.841 358.631 471.565C357.778 470.81 351.682 467.078 351.159 466.334C348.61 462.71 344.495 456.569 342.267 452.52C342.459 450.731 342.615 449.271 342.737 448.138C340.955 445.579 341.918 448.346 339.833 446.075C340.876 440.891 338.526 441.465 338.155 437.218C337.692 431.394 340.487 426.473 342.375 421.398C344.716 415.102 349.652 411.799 354.328 407.029C357.547 404.369 360.787 398.871 364.038 396.478C368.674 393.065 384.476 383.624 386.242 378.646C388.025 378.024 387.845 377.745 389.315 378.195L389.559 380.248L389.981 380.484L390.734 378.769L391.81 379.127L392.243 378.396L392.803 378.962C395.182 378.608 396.234 377.327 397.917 375.838C401.109 373.015 407.219 371.673 411.088 369.833C435.224 358.353 461.128 353.267 487.669 351.644C495.239 351.181 502.732 350.256 510.339 350.185Z"/><path fill="#C875B1" transform="scale(0.488281 0.488281)" d="M575.336 356.531C578.529 361.683 629.848 369.03 609.954 389.822C599.995 400.231 579.91 411.671 565.338 411.61C553.73 411.561 539.761 411.761 528.207 410.135C520.862 409.169 513.519 406.331 506.042 406.13C485.949 405.592 463.036 397.415 447.04 385.116C436.649 378.364 436.323 371.687 447.686 364.907C465.182 354.48 489.356 356.828 509.148 355.176C518.164 354.402 526.028 353.965 535.123 354.298C547.22 354.74 560.256 357.093 572.196 356.04L572.822 355.98C574.497 355.753 573.672 355.656 575.336 356.531Z"/><defs><linearGradient id="gradient_4" gradientUnits="userSpaceOnUse" x1="618.46698" y1="592.55487" x2="608.79401" y2="498.62421"><stop offset="0" stop-color="#61D2CF"/><stop offset="1" stop-color="#99F5EB"/></linearGradient></defs><path fill="url(#gradient_4)" transform="scale(0.488281 0.488281)" d="M575.43 518.491C589.724 497.988 617.395 491.948 638.933 504.629C655.892 514.613 665.005 533.967 661.897 553.4C658.789 572.834 644.095 588.38 624.867 592.577C605.64 596.774 585.804 588.766 574.88 572.396C563.956 556.026 564.174 534.635 575.43 518.491Z"/><defs><linearGradient id="gradient_5" gradientUnits="userSpaceOnUse" x1="617.78168" y1="575.13232" x2="614.37164" y2="530.8584"><stop offset="0" stop-color="#671853"/><stop offset="1" stop-color="#9D2281"/></linearGradient></defs><path fill="url(#gradient_5)" transform="scale(0.488281 0.488281)" d="M600.961 519.072C608.681 515.008 615.72 514.431 624.132 516.86C626.782 517.625 633.115 520.877 634.607 523.022C637.808 525.798 639.501 527.607 641.319 531.638C642.259 533.124 642.457 533.253 642.878 534.996C646.949 544.163 646.176 553.806 640.305 562.055C638.829 565.912 633.535 570.678 629.98 572.491C613.314 580.992 596.46 574.735 587.851 559.09C584.449 551.636 584.362 545.704 586.084 537.831C586.629 535.947 587.361 534.16 588.065 532.33C589.828 527.745 593.23 524.69 596.83 521.625C598.327 520.572 599.361 519.974 600.961 519.072Z"/><defs><linearGradient id="gradient_6" gradientUnits="userSpaceOnUse" x1="614.0683" y1="543.27197" x2="611.04248" y2="516.21893"><stop offset="0" stop-color="#A1227B"/><stop offset="1" stop-color="#B578AC"/></linearGradient></defs><path fill="url(#gradient_6)" transform="scale(0.488281 0.488281)" d="M600.961 519.072C608.681 515.008 615.72 514.431 624.132 516.86C626.782 517.625 633.115 520.877 634.607 523.022C634.35 525.245 634.775 525.758 635.67 527.826C634.66 530.043 632.52 528.872 633.253 531.319C634 533.81 634.993 533.052 634.899 535.596C628.834 543.678 608.086 544.767 598.811 543.889C589.566 540 593.491 540.512 588.065 532.33C589.828 527.745 593.23 524.69 596.83 521.625C598.327 520.572 599.361 519.974 600.961 519.072Z"/><path fill="#B961A2" transform="scale(0.488281 0.488281)" d="M600.961 519.072C603.366 519.541 604.723 519.584 607.187 519.686L607.951 520.769C607.801 521.311 607.556 522.293 607.379 522.798C604.731 526.816 598.154 528.217 596.83 521.625C598.327 520.572 599.361 519.974 600.961 519.072Z"/><path fill="#C875B1" transform="scale(0.488281 0.488281)" d="M607.379 522.798C605.017 523.906 602.203 525.505 600.218 523.073L600.49 521.843C602.786 519.509 603.835 519.761 607.187 519.686L607.951 520.769C607.801 521.311 607.556 522.293 607.379 522.798Z"/><path fill="#9F2F7A" transform="scale(0.488281 0.488281)" d="M634.607 523.022C637.808 525.798 639.501 527.607 641.319 531.638C640.42 531.017 639.569 530.382 638.759 529.647C636.887 529.752 637.356 529.817 635.549 531.004L635.611 531.589C635.823 533.776 635.973 536.96 634.455 538.993C629.455 545.689 605.026 549.837 598.811 543.889C608.086 544.767 628.834 543.678 634.899 535.596C634.993 533.052 634 533.81 633.253 531.319C632.52 528.872 634.66 530.043 635.67 527.826C634.775 525.758 634.35 525.245 634.607 523.022Z"/><path fill="#4C1D62" transform="scale(0.488281 0.488281)" d="M586.084 537.831C586.945 538.264 588.69 538.89 588.724 540.064C588.825 543.457 589.841 556.915 587.851 559.09C584.449 551.636 584.362 545.704 586.084 537.831Z"/><path fill="#4C1D62" transform="scale(0.488281 0.488281)" d="M642.878 534.996C646.949 544.163 646.176 553.806 640.305 562.055C640.211 559.965 643.648 553.446 643.98 550.019C644.507 544.582 642.819 539.89 642.878 534.996Z"/><defs><linearGradient id="gradient_7" gradientUnits="userSpaceOnUse" x1="401.00504" y1="591.50122" x2="423.05417" y2="499.49228"><stop offset="0" stop-color="#60D0CC"/><stop offset="1" stop-color="#99F2EA"/></linearGradient></defs><path fill="url(#gradient_7)" transform="scale(0.488281 0.488281)" d="M394.009 501.728C408.408 496.728 418.629 495.496 432.944 502.433C434.498 503.192 436.037 503.98 437.561 504.797C447.563 512.7 458.754 524.057 459.014 537.895C459.91 543.237 459.767 549.7 458.767 555.022C453.538 584.817 424.781 600.257 396.48 591.331C386.217 588.094 374.252 578.193 369.821 568.248C358.143 542.045 367.917 514.104 394.009 501.728Z"/><path fill="#A9F4EB" transform="scale(0.488281 0.488281)" d="M459.014 537.895C459.91 543.237 459.767 549.7 458.767 555.022C456.635 552.745 456.826 540.743 459.014 537.895Z"/><defs><linearGradient id="gradient_8" gradientUnits="userSpaceOnUse" x1="406.24689" y1="570.85425" x2="414.21048" y2="529.70123"><stop offset="0" stop-color="#711559"/><stop offset="1" stop-color="#9F2383"/></linearGradient></defs><path fill="url(#gradient_8)" transform="scale(0.488281 0.488281)" d="M397.834 519.721C402.901 513.954 421.238 514.952 427.167 519.577C430.754 521.939 433.915 524.688 436.135 528.44C444.806 541.8 444.56 553.522 434.853 566.175C434.138 570.149 430.199 570.499 427.678 575.091C421.204 578.407 418.231 576.582 411.658 577.449C403.92 579.211 397.209 579.191 391.032 572.672C388.825 570.341 388.963 568.857 389.218 565.781C386.846 562.668 385.853 560.872 384.196 557.387C383.623 555.951 383.147 554.107 382.709 552.585C381.082 537.635 384.795 528.019 397.834 519.721Z"/><defs><linearGradient id="gradient_9" gradientUnits="userSpaceOnUse" x1="408.40915" y1="545.17871" x2="420.60278" y2="518.28003"><stop offset="0" stop-color="#9C1879"/><stop offset="1" stop-color="#B474A7"/></linearGradient></defs><path fill="url(#gradient_9)" transform="scale(0.488281 0.488281)" d="M397.834 519.721C402.901 513.954 421.238 514.952 427.167 519.577C430.754 521.939 433.915 524.688 436.135 528.44C436.422 532.186 438.422 533.968 438.763 538.31C436.504 540.258 435.923 540.189 433.493 541.679L433.583 543.892C429.895 548.56 411.993 546.971 406.524 544.446C401.582 542.164 393.742 538.491 391.416 533.354C391.413 530.585 393.54 525.088 395.028 522.64L398.026 520.429L397.834 519.721Z"/><path fill="#9F2F7A" transform="scale(0.488281 0.488281)" d="M433.493 541.679C432.363 536.441 433.956 535.941 435.264 531.245C436.461 526.944 428.883 523.304 427.167 519.577C430.754 521.939 433.915 524.688 436.135 528.44C436.422 532.186 438.422 533.968 438.763 538.31C436.504 540.258 435.923 540.189 433.493 541.679Z"/><path fill="#4C1D62" transform="scale(0.488281 0.488281)" d="M438.763 538.31C438.422 533.968 436.422 532.186 436.135 528.44C444.806 541.8 444.56 553.522 434.853 566.175C434.138 570.149 430.199 570.499 427.678 575.091C421.204 578.407 418.231 576.582 411.658 577.449C403.92 579.211 397.209 579.191 391.032 572.672C388.825 570.341 388.963 568.857 389.218 565.781C386.846 562.668 385.853 560.872 384.196 557.387C387.237 558.693 386.129 558.887 388.102 560.363C396.249 566.458 402.572 573.339 413.553 572.464C427.716 571.336 429.878 565.064 436.867 557.161L437.204 558.52C439.191 551.566 437.579 546.797 438.622 539.29L438.763 538.31Z"/><path fill="#7FE2D9" transform="scale(0.488281 0.488281)" d="M389.218 565.781C395.605 572.898 400.416 574.912 409.84 576.321C421.87 576.789 426.402 574.043 434.853 566.175C434.138 570.149 430.199 570.499 427.678 575.091C421.204 578.407 418.231 576.582 411.658 577.449C403.92 579.211 397.209 579.191 391.032 572.672C388.825 570.341 388.963 568.857 389.218 565.781Z"/><path fill="#4C1D62" transform="scale(0.488281 0.488281)" d="M397.834 519.721L398.026 520.429L395.028 522.64C381.723 533.039 386.843 540.081 382.709 552.585C381.082 537.635 384.795 528.019 397.834 519.721Z"/><path fill="#7C1960" transform="scale(0.488281 0.488281)" d="M539.44 341.586C541.098 341.64 546.576 341.862 548.041 342.356C572.017 344.177 607.991 352.983 629.831 363.023C635.732 365.765 641.516 368.749 647.17 371.97C648.661 372.804 654.546 376.258 655.568 376.654C661.345 376.466 685.78 400.055 691.629 404.122L691.014 403.306C698.825 409.215 705.451 415.315 710.361 423.665C712.824 427.854 719.88 433.166 722.227 437.987C727.747 449.157 731.677 461.605 735.843 473.362C736.986 476.588 743.153 492.054 741.794 493.883C740.374 491.208 739.031 484.289 737.258 480.489C734.64 478.243 729.093 460.034 726.014 456.071C725.221 455.05 723.035 450.927 722.239 449.584C723.072 451.461 723.756 452.734 724.119 454.757L723.514 454.526C721.62 452.47 719.148 448.346 719.019 445.609L721.779 448.256C714.629 436.042 706.296 424.558 696.902 413.972C695.619 412.505 693.281 409.319 691.73 408.797L690.763 409.6C689.581 408.885 689.351 408.628 688.031 408.312C688.451 409.653 688.867 410.106 688.537 411.204L688.735 410.521C686.483 411.416 685.879 406.147 682.31 404.787L681.823 406.162C681.813 404.973 681.876 405.033 681.173 404.089L680.678 404.525C680.567 406.064 680.563 406.939 679.913 408.38C675.528 402.071 667.839 398.123 661.564 394.066C655.524 390.161 649.121 384.405 642.833 381.006C623.561 370.589 597.079 358.793 575.336 356.531C573.672 355.656 574.497 355.753 572.822 355.98C568.565 354.355 552.136 352.215 546.998 351.6C532.993 350.675 524.657 350.187 510.339 350.185L513.004 348.038C513.9 348.127 514.602 348.106 515.501 348.11L514.726 347.963C516.737 347.687 517.137 347.589 519.084 346.991L519.453 346.248C518.302 345.48 517.389 345.466 516.021 345.25C522.815 341.308 535.9 344.397 539.44 341.586Z"/><defs><linearGradient id="gradient_10" gradientUnits="userSpaceOnUse" x1="537.99567" y1="341.55835" x2="536.70825" y2="351.38541"><stop offset="0" stop-color="#871B63"/><stop offset="1" stop-color="#AF3D83"/></linearGradient></defs><path fill="url(#gradient_10)" transform="scale(0.488281 0.488281)" d="M539.44 341.586C541.098 341.64 546.576 341.862 548.041 342.356C552.385 348.271 601.556 352.275 603.274 358.454L603.538 357.955L603.572 358.463C599.829 358.462 582.595 355.11 578.205 353.814C564.782 349.85 560.784 351.002 546.998 351.6C532.993 350.675 524.657 350.187 510.339 350.185L513.004 348.038C513.9 348.127 514.602 348.106 515.501 348.11L514.726 347.963C516.737 347.687 517.137 347.589 519.084 346.991L519.453 346.248C518.302 345.48 517.389 345.466 516.021 345.25C522.815 341.308 535.9 344.397 539.44 341.586Z"/><path fill="#D8D0D1" transform="scale(0.488281 0.488281)" d="M655.568 376.654C661.345 376.466 685.78 400.055 691.629 404.122L691.014 403.306C698.825 409.215 705.451 415.315 710.361 423.665C712.824 427.854 719.88 433.166 722.227 437.987C727.747 449.157 731.677 461.605 735.843 473.362C736.986 476.588 743.153 492.054 741.794 493.883C740.374 491.208 739.031 484.289 737.258 480.489C735.928 474.799 730.559 462.877 727.914 457.591C714.198 430.731 694.965 407.071 671.473 388.158C666.828 384.417 660.521 380.197 655.568 376.654Z"/><path fill="#7C1960" transform="scale(0.488281 0.488281)" d="M281.831 546.667C281.911 539.751 282.347 532.844 283.139 525.973C289.541 470.223 318.103 419.393 362.392 384.932C406.586 350.073 484.359 335.107 539.44 341.586C535.9 344.397 522.815 341.308 516.021 345.25C517.389 345.466 518.302 345.48 519.453 346.248L519.084 346.991C517.137 347.589 516.737 347.687 514.726 347.963L515.501 348.11C514.602 348.106 513.9 348.127 513.004 348.038L510.339 350.185C502.732 350.256 495.239 351.181 487.669 351.644C461.128 353.267 435.224 358.353 411.088 369.833C407.219 371.673 401.109 373.015 397.917 375.838C396.234 377.327 395.182 378.608 392.803 378.962L392.243 378.396L391.81 379.127L390.734 378.769L389.981 380.484L389.559 380.248L389.315 378.195C387.845 377.745 388.025 378.024 386.242 378.646C387.205 376.212 390.629 373.61 393.11 372.864L392.93 371.834C390.106 372.253 389.154 375.403 385.592 375.449L385.105 374.696L386.41 374.197L386.204 373.184L385.687 372.27L386.982 371.593L386.259 370.842C368.296 379.927 336.619 405.824 326.053 423.205L326.421 423.64C334.826 415.099 345.226 399.973 356.379 394.127C357.52 393.529 357.057 393.91 358.16 393.023L358.665 393.435C356.549 396.638 346.89 404.234 343.716 408.314C339.356 413.118 335.123 417.893 330.685 422.638C325.747 427.919 322.984 436.305 319.019 441.565C311.074 452.105 306.537 459.794 301.387 472.015C300.773 471.542 301.064 471.88 300.753 470.835C294.467 479.03 285.03 514.202 284.258 525.755C283.911 530.945 284.042 543.479 282.404 547.712L281.831 546.667Z"/><path fill="#9F2F7A" transform="scale(0.488281 0.488281)" d="M386.204 373.184C390.083 372.099 395.356 368.951 399.278 367.32C406.469 364.331 413.76 361.805 421.087 359.172C424.165 358.066 429.348 354.974 432.059 354.181C436.513 353.22 444.464 350.093 448.782 349.973C459.991 349.661 470.87 347.177 481.568 345.543C488.101 344.546 510.21 343.307 516.021 345.25C517.389 345.466 518.302 345.48 519.453 346.248L519.084 346.991C517.137 347.589 516.737 347.687 514.726 347.963L515.501 348.11C514.602 348.106 513.9 348.127 513.004 348.038L510.339 350.185C502.732 350.256 495.239 351.181 487.669 351.644C461.128 353.267 435.224 358.353 411.088 369.833C407.219 371.673 401.109 373.015 397.917 375.838C396.234 377.327 395.182 378.608 392.803 378.962L392.243 378.396L391.81 379.127L390.734 378.769L389.981 380.484L389.559 380.248L389.315 378.195C387.845 377.745 388.025 378.024 386.242 378.646C387.205 376.212 390.629 373.61 393.11 372.864L392.93 371.834C390.106 372.253 389.154 375.403 385.592 375.449L385.105 374.696L386.41 374.197L386.204 373.184Z"/><path fill="#7FE2D9" transform="scale(0.488281 0.488281)" d="M429.571 629.735C437.913 621.488 444.31 631.423 451.609 636.15C494.609 664.005 552.536 658.905 592.188 627.443C595.92 624.482 599.105 626.736 602.039 629.633C604.861 637.261 597.869 641.332 592.286 645.291C552.568 673.459 496.482 677.928 453.505 654.45C446.236 650.479 432.895 642.81 428.969 634.955C428.271 633.174 428.941 631.437 429.571 629.735Z"/><path fill="#A9F4EB" transform="scale(0.488281 0.488281)" d="M429.571 629.735C437.913 621.488 444.31 631.423 451.609 636.15C494.609 664.005 552.536 658.905 592.188 627.443C595.92 624.482 599.105 626.736 602.039 629.633L601.431 629.775C592.732 631.867 590.746 635.62 583.909 640.484C581.871 641.934 577.444 643.986 575.059 645.217C534.484 666.158 490.029 665.74 450.396 642.45C444.35 638.897 437.067 630.409 429.571 629.735Z"/><path fill="#D8D0D1" transform="scale(0.488281 0.488281)" d="M602.223 761.876C604.614 763.548 607.763 769.028 608.542 771.797C608.108 773.274 608.384 773.399 608.747 775.101C607.815 774.483 605.096 770.257 603.97 768.793C602.668 766.898 601.248 765.237 600.765 763.044L601.213 762.603C603.026 763.825 603.329 766.857 605.192 768.792L605.775 768.419C605.172 766.351 603.37 763.837 602.223 761.876Z"/><defs><linearGradient id="gradient_11" gradientUnits="userSpaceOnUse" x1="920.73865" y1="405.74133" x2="912.42554" y2="349.8623"><stop offset="0" stop-color="#651352"/><stop offset="1" stop-color="#B43B95"/></linearGradient></defs><path fill="url(#gradient_11)" transform="scale(0.488281 0.488281)" d="M886.979 382.448C887.691 363.281 898.523 347.927 919.309 349.097C927.211 349.535 934.596 353.164 939.77 359.152C950.064 370.933 947.875 390.169 935.858 400.002C932.403 402.83 927.101 406.226 922.558 406.478C915.437 408.433 904.335 406.201 898.929 400.993L897.637 401.197C896.747 399.541 896.603 398.174 895.83 396.546C893.369 391.367 890.896 386.634 886.979 382.448Z"/><path fill="#7C1960" transform="scale(0.488281 0.488281)" d="M898.929 400.993C903.789 400.505 906.021 404.813 910.503 402.707L911.735 403.164L912.097 404.11C912.512 405.178 912.595 405.372 913.289 406.326C916.513 406.93 919.142 406.16 922.558 406.478C915.437 408.433 904.335 406.201 898.929 400.993Z"/><defs><linearGradient id="gradient_12" gradientUnits="userSpaceOnUse" x1="121.19575" y1="405.89185" x2="129.29266" y2="350.1879"><stop offset="0" stop-color="#631450"/><stop offset="1" stop-color="#B23893"/></linearGradient></defs><path fill="url(#gradient_12)" transform="scale(0.488281 0.488281)" d="M143.039 401.751C131.92 409.452 114.384 409.212 105.017 398.904C77.5708 368.698 117.86 331.79 146.912 358.092C154.067 364.569 155.036 374.349 154.939 383.545C149.582 387.915 147.672 390.002 145.087 396.752C144.218 399.021 144.498 399.776 143.039 401.751Z"/><path fill="#B961A2" transform="scale(0.488281 0.488281)" d="M124.169 358.069C130.184 358.7 134.976 361.246 136.34 367.933C136.619 369.297 136.25 370.231 135.451 371.348C134.125 372.165 134.226 372.115 132.662 372.08C132.074 369.439 136.319 367.862 133.957 364.614C133.326 366.843 133.271 367.038 131.375 368.212C130.31 368.498 127.939 369.377 126.963 369.025C123.084 367.628 119.976 367.185 120.522 362.465C121.347 361.399 121.625 361.193 122.094 359.952C117.482 360.654 119.397 364.292 115.775 366.391C114.78 361.108 120.387 359.176 124.169 358.069Z"/><path fill="#E2E1E1" transform="scale(0.488281 0.488281)" d="M886.979 382.448C890.896 386.634 893.369 391.367 895.83 396.546C896.603 398.174 896.747 399.541 897.637 401.197C893.577 404.297 884.341 409.408 879.622 412.267C866.583 420.281 853.456 428.151 840.244 435.877C837.405 428.966 833.78 424.728 830.32 418.442C834.338 415.474 839.564 412.602 843.803 409.785C857.677 400.565 873.556 392.036 886.979 382.448Z"/><defs><linearGradient id="gradient_13" gradientUnits="userSpaceOnUse" x1="170.83647" y1="417.08118" x2="180.89482" y2="400.40256"><stop offset="0" stop-color="#D0CECF"/><stop offset="1" stop-color="#F8F8F8"/></linearGradient></defs><path fill="url(#gradient_13)" transform="scale(0.488281 0.488281)" d="M154.939 383.545C172.745 395.405 192.206 406.275 209.86 418.021C206.178 422.724 202.299 429.989 199.737 435.451C182.126 424.244 161.326 411.582 143.039 401.751C144.498 399.776 144.218 399.021 145.087 396.752C147.672 390.002 149.582 387.915 154.939 383.545Z"/></svg>